<svg width="122" height="122" viewBox="0 0 122 122" xmlns="http://www.w3.org/2000/svg">
    <g fill="none" fill-rule="evenodd">
        <circle cx="61" cy="61" r="61" fill="#EF5759"/>
        <path d="M41.113 46.462C41.06 46.357 40 44.2 40 41c0-3.2 1.06-5.357 1.105-5.447C41.835 34.263 43.39 33 45 33h4v-1a1 1 0 0 1 1-1h4a1 1 0 0 1 1 1v1h12v-1a1 1 0 0 1 1-1h4a1 1 0 0 1 1 1v1h4c1.528 0 3.245 1.135 3.91 2.583C80.94 35.643 82 37.8 82 41c0 3.2-1.06 5.357-1.106 5.447C80.222 47.892 78.544 49 77 49h-1a1 1 0 0 1 0-2h1c.676 0 1.715-.608 2.094-1.422.02-.04.906-1.877.906-4.578 0-2.732-.886-4.535-.895-4.553C78.72 35.607 77.68 35 77 35h-5a1 1 0 0 1-1-1v-1h-2v1a1 1 0 0 1-1 1H54a1 1 0 0 1-1-1v-1h-2v1a1 1 0 0 1-1 1h-5c-.697 0-1.672.683-2.13 1.492.003 0-.87 1.828-.87 4.508 0 2.732.886 4.535.894 4.553C43.294 46.317 44.28 47 45 47h1a1 1 0 0 1 0 2h-1c-1.462 0-3.133-1.09-3.887-2.538zM88.08 51H76a1 1 0 0 0 0 2h3v12h-1a1 1 0 0 0 0 2h1v19c0 1.654-1.346 3-3 3H46c-1.654 0-3-1.346-3-3V67h1a1 1 0 0 0 0-2h-1V53h3a1 1 0 0 0 0-2H34c-1.654 0-3 1.346-3 3v24c0 1.654 1.346 3 3 3h4a1 1 0 0 0 0-2h-4a1 1 0 0 1-1-1V54a1 1 0 0 1 1-1h3v9a1 1 0 0 0 2 0v-9h2v33c0 2.757 2.243 5 5 5h30c2.757 0 5-2.243 5-5V53h2v9a1 1 0 0 0 2 0v-9h3.08c.507 0 .92.45.92 1v24c0 .55-.413 1-.92 1H84a1 1 0 0 0 0 2h4.08c1.61 0 2.92-1.346 2.92-3V54c0-1.654-1.31-3-2.92-3zM49 82V69h-1a1 1 0 0 1-1-1v-4a1 1 0 0 1 1-1h1V38a1 1 0 0 1 2 0v25h2V38a1 1 0 0 1 2 0v25h1a1 1 0 0 1 1 1v4a1 1 0 0 1-1 1h-1v13c0 .265-.106.52-.293.707l-2 2a.997.997 0 0 1-1.414 0l-2-2A1 1 0 0 1 49 82zm4-13h-2v12.586l1 1 1-1V69zm-4-2h6v-2h-6v2zm18 15V69h-1a1 1 0 0 1-1-1v-4a1 1 0 0 1 1-1h1V38a1 1 0 0 1 2 0v25h2V38a1 1 0 0 1 2 0v25h1a1 1 0 0 1 1 1v4a1 1 0 0 1-1 1h-1v13c0 .265-.106.52-.293.707l-2 2a.997.997 0 0 1-1.414 0l-2-2A1 1 0 0 1 67 82zm4-13h-2v12.586l1 1 1-1V69zm-4-2h6v-2h-6v2zm-7-2a1 1 0 0 0 0 2h2a1 1 0 0 0 0-2h-2zm-2-16h6a1 1 0 0 0 0-2h-6a1 1 0 0 0 0 2zm7 3a1 1 0 0 0-1-1h-6a1 1 0 0 0 0 2h6a1 1 0 0 0 1-1z" fill="#FFF"/>
    </g>
</svg>
