<svg width="122" height="122" viewBox="0 0 122 122" xmlns="http://www.w3.org/2000/svg">
    <g fill="none" fill-rule="evenodd">
        <circle fill="#34495E" cx="61" cy="61" r="61"/>
        <path d="M71.025 58c0-.552.443-1 .995-1h.01a1 1 0 0 1 0 2 1.004 1.004 0 0 1-1.005-1zM50.03 57h-.01a.996.996 0 0 0-.995 1c0 .552.453 1 1.005 1a1 1 0 0 0 0-2zM89 85v4c0 1.103-.897 2-2 2H65c-1.103 0-2-.897-2-2v-4c0-1.103.897-2 2-2V63h-8v17a1 1 0 0 1-2 0V63h-5c-2.757 0-5-2.243-5-5s2.243-5 5-5h22c2.757 0 5 2.243 5 5s-2.243 5-5 5h-5v21a1 1 0 0 1-1 1h-1v4h22v-4H70a1 1 0 0 1 0-2h17c1.103 0 2 .897 2 2zM50 61h22c1.654 0 3-1.346 3-3s-1.346-3-3-3H50c-1.654 0-3 1.346-3 3s1.346 3 3 3zm-6-20a1 1 0 0 0 1-1v-3h12v3a1 1 0 0 0 2 0v-3c0-1.103-.897-2-2-2H45c-1.103 0-2 .897-2 2v3a1 1 0 0 0 1 1zm20 0a1 1 0 0 0 1-1v-3h12v3a1 1 0 0 0 2 0v-3c0-1.103-.897-2-2-2H65c-1.103 0-2 .897-2 2v3a1 1 0 0 0 1 1zm-16-8h6a1 1 0 0 0 0-2h-6a1 1 0 0 0 0 2zm20 0h6a1 1 0 0 0 0-2h-6a1 1 0 0 0 0 2zM57 83H40a1 1 0 0 0 0 2h17v4H35v-4h1a1 1 0 0 0 .996-.914l1.998-22.976c.007-.065.02-.097.006-.11h3a1 1 0 0 0 .998-.934L44 45l34.002.066 1 15A1 1 0 0 0 80 61l3.004.09 1.73 19c.05.55.54.95 1.086.906.55-.05.955-.537.906-1.087l-1.73-18.99c-.11-1.363-1.233-1.895-1.996-1.92h-2.064L80 45c0-1.103-.897-2-2-2H44c-1.103 0-2 .897-1.998 1.934L41.064 59h-2.082c-.71.013-1.824.526-1.978 1.914L35.084 83H35c-1.103 0-2 .897-2 2v4c0 1.103.897 2 2 2h22c1.103 0 2-.897 2-2v-4c0-1.103-.897-2-2-2z" fill="#FFF"/>
    </g>
</svg>
