<svg viewBox="0 0 371 221" xmlns="http://www.w3.org/2000/svg">
    <mask id="J" fill="#fff">
        <path d="M3.32 7.67c2.24.95 4.74.07 5.56-1.97.8-1.97-.34-4.34-2.58-5.3C4.07-.53 1.56.35.75 2.4c-.75 1.96.4 4.34 2.57 5.3z"/>
    </mask>
    <mask id="I" fill="#fff">
        <path d="M2.98 7.74c2.24.95 4.75.07 5.56-1.97.8-1.97-.34-4.34-2.58-5.3C3.73-.46 1.22.42.4 2.45c-.73 2.03.4 4.4 2.6 5.3z"/>
    </mask>
    <mask id="H" fill="#fff">
        <path d="M3.46.8S6.64-.47 14.9 2.46c8.27 2.85 13.02 25.6.35 32.05 0 0-23.18-12.5-11.8-33.6z"/>
    </mask>
    <mask id="F" fill="#fff">
        <path d="M.68.27a.6.6 0 0 0-.6.6c0 .35.26.62.6.62a.6.6 0 0 0 .6-.7.6.6 0 0 0-.6-.6z"/>
    </mask>
    <mask id="E" fill="#fff">
        <path d="M2.44 0a1.84 1.84 0 1 0 0 3.67 1.84 1.84 0 0 0 0-3.67z"/>
    </mask>
    <mask id="D" fill="#fff">
        <path d="M5.08 3.67A2.47 2.47 0 0 1 1.9 5.02a2.48 2.48 0 0 1-1.36-3.2A2.47 2.47 0 0 1 3.74.48a2.4 2.4 0 0 1 1.33 3.2z"/>
    </mask>
    <mask id="C" fill="#fff">
        <path d="M.68.27a.6.6 0 0 0-.6.6c0 .35.26.62.6.62a.6.6 0 0 0 .6-.7.6.6 0 0 0-.6-.6z"/>
    </mask>
    <mask id="B" fill="#fff">
        <path d="M2.03.2a1.84 1.84 0 0 0 0 3.67 1.8 1.8 0 0 0 1.83-1.83C3.93 1.02 3.06.2 2.03.2z"/>
    </mask>
    <mask id="A" fill="#fff">
        <path d="M.4 1.56a2.42 2.42 0 0 0 1.36 3.2 2.4 2.4 0 0 0 3.2-1.36A2.42 2.42 0 0 0 3.58.2 2.44 2.44 0 0 0 .4 1.57z"/>
    </mask>
    <mask id="z" fill="#fff">
        <path d="M12.94 2.04C7.18-.34 1.64-.06.47 2.72c-1.15 2.78 2.58 7 8.34 9.36 5.8 2.38 11.4 2.1 12.5-.68 1.2-2.78-2.6-7-8.3-9.36z"/>
    </mask>
    <mask id="y" fill="#fff">
        <path d="M13.2 1.7C7.46-.68 1.9-.4.75 2.38c-1.15 2.78 2.58 7 8.34 9.37 5.7 2.37 11.3 2.1 12.4-.68 1.1-2.8-2.6-7-8.4-9.37z"/>
    </mask>
    <mask id="x" fill="#fff">
        <path d="M17 12.3C27.66 2.16 42.9-2.93 56.05 2.57S76.3 22.54 76.57 37.2c.27 14.67-5.9 29.54-5.9 29.54-15.58 9.3-40.8-1.5-40.8-1.5S4.47 54.8.15 37.22C.07 37.2 6.3 22.35 17 12.3z"/>
    </mask>
    <mask id="w" fill="#fff">
        <path d="M41.74.47c-9 .75-17.9 5.17-24.87 11.82C6.23 22.4.07 37.2.07 37.2c1.5 6.18 5.56 11.4 10.16 15.68C7.4 46.5 6.43 39.5 6.43 39.5 20.6 4.2 41.4.55 41.73.48zM67.56 11.2c5.76 7 8.88 16.36 9.08 26 .34 14.67-5.9 29.54-5.9 29.54-5.4 3.26-12 4.08-18.3 3.74a51 51 0 0 0 12.2-6.72c15.1-34.9 3.12-52.2 2.92-52.55z"/>
    </mask>
    <mask id="v" fill="#fff">
        <path d="M.4 3.12V1.7L6.38.54 2.7 5.7z"/>
    </mask>
    <mask id="u" fill="#fff">
        <path d="M6.37.54L.34 1.7.6 8l5.57 4.36c.06 0 1.5-6.1.2-11.82z"/>
    </mask>
    <mask id="t" fill="#fff">
        <path d="M3.52 6.18l1.02-.95-3.4-5.1L.08 6.46z"/>
    </mask>
    <mask id="s" fill="#fff">
        <path d="M8.6.14L12 5.16l-4.6 4.2-7.06-.94c0 .14 3.32-5.16 8.27-8.28z"/>
    </mask>
    <mask id="r" fill="#fff">
        <path d="M14.03 6.18A42.94 42.94 0 0 1 33.33.14a34.5 34.5 0 0 1 19.73 4.48 32.46 32.46 0 0 1 13 14.73 36.75 36.75 0 0 1 2.86 18.33c0 .2-.07.48-.07.68-.07.68-.2 1.36-.34 2.04-.5 3.8-1.6 10.32-2.3 11-1.2.95-1 .6-1.3 1.5-.4.87.5 1.28-.9 1.9-6.6-7.5-16.7-15.7-28.9-22.83-12.2-7.2-24.3-12.1-34.4-14.33A55.63 55.63 0 0 1 14 6.18z"/>
    </mask>
    <mask id="q" fill="#fff">
        <path d="M27.78 34.3c-1.42 2.77-4.6 2.9-9.55.33-1.3-.62-2.5-1.36-3.6-1.97C5.1 27.1 3.53 22.76.7 14.86c0-.06-.07-.26-.14-.47C7.66 18 15.12 12 18.76.6c2.65 4.76 4.4 8.1 4.4 8.23 0 0 1.98 4.75 3.54 10.18 2.03 7.4 2.43 12.7 1.08 15.3z"/>
    </mask>
    <mask id="p" fill="#fff">
        <path d="M27.78 34.3c-1.42 2.77-4.6 2.9-9.55.33-1.3-.62-2.5-1.36-3.6-1.97C5.1 27.1 3.53 22.76.7 14.86c0-.06-.07-.26-.14-.47C7.66 18 15.12 12 18.76.6c2.65 4.76 4.4 8.1 4.4 8.23 0 0 1.98 4.75 3.54 10.18 2.03 7.4 2.43 12.7 1.08 15.3z"/>
    </mask>
    <mask id="o" fill="#fff">
        <path d="M4.13.75l1.22-.6S.2 33.95 17.55 57.3c17.28 23.43-6.9-1.97-6.9-1.97L2.77 43.45C2.77 43.65-3.2 7 4.12.75z"/>
    </mask>
    <mask id="n" fill="#fff">
        <path d="M25.68 34.76S13.96 11.76 3.93.26c-6.57 14.27-1.56 37.15-.4 40.34 3.18 8.83 4.74 13.1 17.4 19.7 19.53 10.04 4.75-25.54 4.75-25.54z"/>
    </mask>
    <mask id="m" fill="#fff">
        <path d="M25.68 34.76S13.96 11.76 3.93.26c-6.57 14.27-1.56 37.15-.4 40.34 3.18 8.83 4.74 13.1 17.4 19.7 19.53 10.04 4.75-25.54 4.75-25.54z"/>
    </mask>
    <mask id="l" fill="#fff">
        <path d="M.07 0h29.48v22.4H.07z"/>
    </mask>
    <mask id="k" fill="#fff">
        <path d="M.88 4C1.68 1.7 4.6.4 9.56.15c1.35-.07 2.5-.07 3.66-.07 9.7 0 11.92 2.17 15.92 6.18.07.06.13.13.2.27-7.18.34-13 7-14.43 15.68a95.07 95.07 0 0 1-5.4-3.6s-2.6-2.3-4.9-5.2C1.4 9.5.1 6.3.9 4z"/>
    </mask>
    <mask id="j" fill="#fff">
        <path d="M.88 4C1.68 1.7 4.6.4 9.56.15c1.35-.07 2.5-.07 3.66-.07 9.7 0 11.92 2.17 15.92 6.18.07.06.13.13.2.27-7.18.34-13 7-14.43 15.68a95.07 95.07 0 0 1-5.4-3.6s-2.6-2.3-4.9-5.2C1.4 9.5.1 6.3.9 4z"/>
    </mask>
    <mask id="i" fill="#fff">
        <path d="M.4 0C.75 0 16 13.85 29.35 21.45c0 0-22.1-7.13-24.53-10.66C2.38 7 .4 0 .4 0z"/>
    </mask>
    <mask id="h" fill="#fff">
        <path d="M8.95 18.47s14.7 10.32 25.88 13.85c3.66-11.54-4.88-24.3-6.5-25.87C23.83 2.1 21.73-.15 9 .4c-19.7.9-.05 18.07-.05 18.07z"/>
    </mask>
    <mask id="g" fill="#fff">
        <path d="M56.92 20.16s-4.47 9.1-14.03 9.1c-9.7 0-22.5-25.53-35.8-28.5-13.4-3-3.6 10.78-3.5 3.58l1.5 5.64 2.2 6.18 21.4 14.4 14.1 3.84c0-.06 19.3-5.02 14-14.25z"/>
    </mask>
    <mask id="f" fill="#fff">
        <path d="M3.05 25.66S10.15 13.7 21 6.8c10.85-7 25.76-8.77 37.6-1.64 11.95 7.14 17.44 20.98 16.5 33.88C74.7 44.88 73 50.5 71.24 55c.2 1.62 1.5 13.23-7.86 17.5-10.1 4.63-19.52-4.06-23.04-7.46-4.14-3.66-5.63-6.58-11.4-9.98-8.4-4.95-11.5-2.7-22.9-9.5-11.4-6.8-2.98-19.9-2.98-19.9z"/>
    </mask>
    <mask id="e" fill="#fff">
        <path d="M1.7 7.67C-3 16.7 5.3 30.35 20.25 38.1c14.9 7.8 30.83 6.7 35.58-2.32 4.67-9.03-3.6-22.68-18.57-30.42C22.3-2.38 6.36-1.36 1.7 7.66z"/>
    </mask>
    <mask id="d" fill="#fff">
        <path d="M13.08 66.94S4.34 56.22 1.48 43.6c-2.83-12.64.55-27.17 11.33-36 10.8-8.75 25.7-9.23 37.4-4 5.3 2.37 10.1 5.9 13.7 9.03 1.7.34 13 3.12 13.8 13.37.9 11.07-10.4 17.04-14.9 19.15-4.8 2.65-8.1 3.12-13.2 7.25-7.5 6.3-6.5 9.97-16.7 18.38-10.4 8.5-19.7-3.8-19.7-3.8z"/>
    </mask>
    <mask id="c" fill="#fff">
        <path d="M3.05 25.66S10.15 13.7 21 6.8c10.85-7 25.76-8.77 37.6-1.64 11.95 7.14 17.44 20.98 16.5 33.88C74.7 44.88 73 50.5 71.24 55c.2 1.62 1.5 13.23-7.86 17.5-10.1 4.63-19.52-4.06-23.04-7.46-4.14-3.66-5.63-6.58-11.4-9.98-8.4-4.95-11.5-2.7-22.9-9.5-11.4-6.8-2.98-19.9-2.98-19.9z"/>
    </mask>
    <mask id="b" fill="#fff">
        <path d="M8.27 6.25c.8-2.3-.2-4.7-2.24-5.43C4 .07 1.7 1.36.88 3.6c-.8 2.3.2 4.68 2.24 5.43 2.03.74 4.33-.55 5.15-2.8z"/>
    </mask>
    <mask id="a" fill="#fff">
        <path d="M8.27 6.25c.8-2.3-.2-4.7-2.24-5.43C4 .07 1.7 1.36.88 3.6c-.8 2.3.2 4.68 2.24 5.43 2.03.74 4.33-.55 5.15-2.8z"/>
    </mask>
    <mask id="K" fill="#fff">
        <path d="M.14 3.33c.2 1.42 1.42 2.5 2.7 2.3 1.3-.2 2.24-1.5 2.04-2.92C4.68 1.3 3.45.2 2.16.5.8.58-.07 1.88.13 3.38z"/>
    </mask>
    <mask id="G" fill="#fff">
        <path d="M0 .54h113.3v150.53H0z"/>
    </mask>
    <mask id="L" fill="#fff">
        <path d="M.6 5.23c.36 2.37 2.3 4.14 4.5 3.8 2.17-.27 3.66-2.44 3.32-4.9C8.06 1.77 6.1 0 3.92.33 1.77.7.28 2.87.6 5.23z"/>
    </mask>
    <mask id="N" fill="#fff">
        <path d="M0 2.24C4.4-1.63 19.45.14 33.34 7.27c13.9 7.13 24.05 18.26 23.5 24.1l-1.68.75c.47-5.84-9.08-15.48-22.98-22.6C18.28 2.37 4.88.2.48 4.07L0 2.24z"/>
    </mask>
    <mask id="M" fill="#fff">
        <path d="M.95.2s-.14 6.86 6.3 7l-.27 1.83H2.85L.95 7.27S-1.15 3.32.95.2z"/>
    </mask>
    <path fill="#7B573A" d="M-1.28-1.3h11.64v12.44H-1.28z" transform="translate(314.08 139.5)" mask="url(#a)"/>
    <path fill="#040404" d="M-1.76-3.12h17.9V9.1H-1.78z" transform="translate(314.08 139.5)" mask="url(#b)" opacity=".1"/>
    <path fill="#966D48" d="M-1.76-1.3H77.1v76.93H-1.75z" mask="url(#c)" transform="translate(268 72.96)"/>
    <g mask="url(#d)" transform="translate(274.78 75)">
        <path fill="#B48564" d="M-1.48-1.7h60.44v46.92H-1.48z" mask="url(#e)" transform="translate(6.77 11.54)"/>
    </g>
    <g transform="translate(268 72.96)" mask="url(#f)" opacity=".1">
        <path fill="#040404" d="M-1.76-1.5H59.7v37.82H-1.76z" mask="url(#g)" transform="translate(15.58 41.4)"/>
    </g>
    <path fill="#966D48" d="M-1.63-1.48H37.6v35.7H-1.62z" mask="url(#h)" transform="translate(332.38 94.68)"/>
    <path fill="#040404" d="M-1.42-1.9h32.64v25.2H-1.43z" opacity=".1" mask="url(#i)" transform="translate(337.8 105.55)"/>
    <path d="M332.58 98.68c.8-2.3 3.72-3.6 8.68-3.85 1.35-.07 2.5-.07 3.66-.07 9.7 0 11.92 2.17 15.92 6.18.07.06.13.13.2.27-7.18.4-13 7-14.43 15.7a95.07 95.07 0 0 1-5.4-3.6s-2.6-2.3-4.9-5.2c-3.2-3.9-4.5-7.1-3.7-9.4z" stroke="#9A4222" stroke-width=".55"/>
    <path fill="#CE5127" d="M-1.22-1.76h32.4v25.8h-32.4z" mask="url(#j)" transform="translate(331.7 94.68)"/>
    <g mask="url(#k)" transform="translate(331.7 94.68)">
        <path fill="#CE5127" d="M13 4.4h18.17v19.7H13z"/>
        <path d="M29.14 6.25c.07.06.13.13.2.27-7.18.34-13 7-14.43 15.68" stroke="#9A4222" stroke-width="13.2" mask="url(#l)"/>
    </g>
    <path fill="#966D48" d="M-5.1-1.28l29.28-4.27L34.3 63.92 5.03 68.2z" mask="url(#m)" transform="translate(274.78 20)"/>
    <g mask="url(#n)" transform="translate(274.78 20)">
        <path fill="#8B6141" d="M-5.63-1.13l20.85-3.04L26 69.8 5.16 72.82z" mask="url(#o)" transform="translate(-1.34)"/>
    </g>
    <path fill="#CE5127" d="M-3.3.93L25.8-3.3l6.07 41.65-29.1 4.24z" mask="url(#p)" transform="translate(277.5 45.8)"/>
    <path d="M.67 14.87c0-.07-.06-.27-.13-.48C7.67 18 15.14 12 18.77.6" stroke="#9A4222" stroke-width="14.56" mask="url(#q)" transform="translate(277.5 45.8)"/>
    <path fill="#CE5127" d="M-1.28-1.83h72.23v58.4H-1.28z" mask="url(#r)" transform="translate(275.45 72.96)"/>
    <path fill="#966D48" d="M-1.5-1.76h15.38v13.03H-1.5z" mask="url(#s)" transform="translate(322.9 21.36)"/>
    <path fill="#8B6141" d="M-1.84-1.76h8.2V8.28h-8.2z" mask="url(#t)" transform="translate(330.34 21.36)"/>
    <path fill="#966D48" d="M-1.5-1.36H8.8v15.54H-1.5z" mask="url(#u)" transform="translate(360.16 35.62)"/>
    <path fill="#8B6141" d="M-1.5-1.36h9.76v8.9H-1.5z" mask="url(#v)" transform="translate(360.16 35.62)"/>
    <path fill="#8B6141" d="M-1.77-1.4h80.24v73.8H-1.77z" mask="url(#w)" transform="translate(293.07 26.1)"/>
    <path fill="#966D48" d="M-1.77-1.48H78.4v73.93H-1.76z" mask="url(#x)" transform="translate(293.07 26.1)"/>
    <path fill="#8B6141" d="M-1.36-1.83h24.94V15.2H-1.35z" mask="url(#y)" transform="translate(314.08 79.07)"/>
    <path fill="#040404" d="M-1.63-1.48H23.3v17.04H-1.62z" mask="url(#z)" transform="translate(314.76 77.7)"/>
    <path fill="#B48564" d="M-1.62-1.83h8.6V6.8h-8.6z" mask="url(#A)" transform="translate(338.47 81.1)"/>
    <path fill="#040404" d="M-1.62-1.68h7.45v7.45h-7.45z" mask="url(#B)" transform="translate(338.47 81.78)"/>
    <path fill="#FFF" d="M-1.76-1.56h4.93V3.4h-4.93z" mask="url(#C)" transform="translate(339.83 82.46)"/>
    <path fill="#B48564" d="M-1.5-1.64h8.6V7h-8.6z" mask="url(#D)" transform="translate(312.72 70.24)"/>
    <path fill="#010101" d="M-1.3-1.83h7.47v7.46H-1.3z" mask="url(#E)" transform="translate(313.4 71.6)"/>
    <g mask="url(#F)" transform="translate(315.43 72.28)">
        <path fill="#FFF" mask="url(#G)" d="M45.67 63.62h4.95v4.95h-4.95z" transform="translate(-47.43 -65.18)"/>
    </g>
    <path fill="#966D48" d="M-1.56-1.36h26.5v37.62h-26.5z" mask="url(#H)" transform="translate(273.42 89.93)"/>
    <path fill="#7B573A" d="M-1.28-2.17H10.3v12.5H-1.3z" mask="url(#I)" transform="translate(276.8 101.47)"/>
    <g mask="url(#J)" transform="translate(275.45 102.15)">
        <path fill="#AF7246" d="M-1.77-1.57h8.54v9.03h-8.54z" transform="translate(3.4 1.35)" mask="url(#K)"/>
    </g>
    <g mask="url(#L)" transform="translate(276.8 100.8)">
        <path fill="#040404" d="M-1.83-1.63H9.15v12.55H-1.83z" opacity=".1" mask="url(#M)"/>
    </g>
    <path fill="#989A37" d="M-1.9-1.64h60.65v35.66H-1.9z" mask="url(#N)" transform="translate(314.08 31.54)"/>
    <path d="M279.3 27.7l.6-.5c.3-.3.4-.8.1-1.1-.3-.3-.8-.4-1.1-.1l-.6.5c.3-.3.4-.8.1-1.1-.3-.3-.8-.4-1.1-.1l-1.8 1.5c.3-.3.4-.8.1-1.1-.3-.3-.8-.4-1.1-.1L239 56.4l-21.8 7.5 3.2 9.2 22.7-8 38-32.9c.3-.3.4-.8.1-1.1-.3-.3-.7-.4-1.1-.1l-2.3 2c-.3.3-.8.2-1.1-.1-.3-.3-.2-.8.1-1.1l3.5-3c.3-.3.4-.8.1-1.1-.2-.2-.7-.3-1.1 0z" fill="#9E5132"/>
    <path fill="#A87942" d="M25.5 44.3h18.6V66H25.5"/>
    <path d="M19.3 28.8c-1.7 0-3.1-1.4-3.1-3.1 1.7 0 3.1-1.4 3.1-3.1h3.1v9.3c0 1.7-1.4 3.1-3.1 3.1-1.7 0-3.1-1.4-3.1-3.1 1.7 0 3.1-1.3 3.1-3.1z" fill="#653614"/>
    <path d="M50.3 28.8c1.7 0 3.1-1.4 3.1-3.1-1.7 0-3.1-1.4-3.1-3.1h-3.1v9.3c0 1.7 1.4 3.1 3.1 3.1 1.7 0 3.1-1.4 3.1-3.1-1.7 0-3.1-1.3-3.1-3.1z" fill="#402511"/>
    <path d="M6.9 86.2V66c0-3.1 1.6-3.9 3.1-4.6l15.5-7.7c0 5.2 4.2 9.3 9.3 9.3 5.1 0 9.3-4.2 9.3-9.3l15.5 7.7c1.5.8 3.1 1.6 3.1 4.6v20.1h-9.3V128H16.2V86.2H6.9z" fill="#435055"/>
    <path d="M28.3 60.3a9.35 9.35 0 0 0 15.8-6.7l15.5 7.7c1.5.8 3.1 1.6 3.1 4.6V86h-9.3v32.5h-9.3l-6.2-6.2 6.2-36.4-15.8-15.6z" fill="#232D30"/>
    <path d="M25.5 53.6c0 4 2.5 7.5 6.2 8.8v50.1H16.2V86.1c2-3.2 3.1-6.9 3.1-10.7V66c0-3.4-2.7-6.2-6.2-6.2l12.4-6.2z" fill="#A5C5E8"/>
    <path d="M50.3 25.7c-1.7 0-3.1 1.4-3.1 3.1 0 1.7 1.4 3.1 3.1 3.1 1.7 0 3.1-1.4 3.1-3.1 0-1.7-1.4-3.1-3.1-3.1z" fill="#C79255"/>
    <path d="M50.3 27.3c-.9 0-1.5.7-1.5 1.5 0 .9.7 1.5 1.5 1.5.9 0 1.6-.7 1.6-1.5-.1-.8-.7-1.5-1.6-1.5z" fill="#A87942"/>
    <path d="M19.3 25.7c-1.7 0-3.1 1.4-3.1 3.1 0 1.7 1.4 3.1 3.1 3.1 1.7 0 3.1-1.4 3.1-3.1 0-1.7-1.4-3.1-3.1-3.1z" fill="#E8B274"/>
    <path d="M19.3 27.3c-.9 0-1.5.7-1.5 1.5 0 .9.7 1.5 1.5 1.5.9 0 1.6-.7 1.6-1.5s-.7-1.5-1.6-1.5z" fill="#C79255"/>
    <path d="M34.8 7.1c8.5 0 14.7 7 14.7 15.5v15.5c0 8.5-6.2 15.5-14.7 15.5s-14.7-7-14.7-15.5V22.6c0-8.5 6.2-15.5 14.7-15.5z" fill="#E8B274"/>
    <path d="M34.8 7.1c8.5 0 14.7 7 14.7 15.5v15.5c0 4.2-1.5 7.9-4 10.7L20 23.3v-.8c.1-8.4 6.3-15.4 14.8-15.4z" fill="#C79255"/>
    <path d="M27.1 25.7c1.7 0 3.1 1.4 3.1 3.1 0 1.7-1.4 3.1-3.1 3.1-1.7 0-3.1-1.4-3.1-3.1 0-1.7 1.3-3.1 3.1-3.1z" fill="#FFF"/>
    <path d="M42.6 25.7c1.7 0 3.1 1.4 3.1 3.1 0 1.7-1.4 3.1-3.1 3.1-1.7 0-3.1-1.4-3.1-3.1 0-1.7 1.3-3.1 3.1-3.1z" fill="#E6E6E5"/>
    <path d="M27.1 27.3c.9 0 1.6.7 1.6 1.5 0 .9-.7 1.5-1.6 1.5-.9 0-1.6-.7-1.6-1.5s.7-1.5 1.6-1.5z" fill="#414A4E"/>
    <path d="M19.3 21.1h1.6V35c0 1.7 1.4 3.1 3.1 3.1A10.8 10.8 0 0 0 43.1 45l7.3 7.3c-.5.7-1.2 1.1-2.1 1.2a3.1 3.1 0 0 1-3.8 1.4c-.5 1-1.6 1.7-2.8 1.7-.5 0-1-.1-1.5-.4-.6.7-1.1 1.1-2.4 1.1h-6.2c-1 0-1.8-.4-2.4-1.1-.4.2-.9.4-1.5.4-1.2 0-2.3-.7-2.8-1.7-.3.1-.7.2-1.1.2-1.2 0-2.2-.6-2.7-1.6-1.5-.2-2.7-1.5-2.7-3.1 1.3 0 2.3-.7 2.8-1.8-.4.2-.8.3-1.3.3-1.7 0-3.1-1.4-3.1-3.1 1.2 0 2.2-.6 2.7-1.6h-.4c-1.7 0-3.1-1.4-3.1-3.1.6 0 1.1-.2 1.5-.4-.9-.5-1.5-1.5-1.5-2.7.6 0 1.1-.2 1.5-.4-.9-.5-1.5-1.5-1.5-2.7 1.7 0 3.1-1.4 3.1-3.1V21.1h.2z" fill="#653614"/>
    <path d="M42.5 45.8c2-2 3.2-4.7 3.2-7.7 1.7 0 3.1-1.4 3.1-3.1V21.1h1.5V32c0 1.7 1.4 3.1 3.1 3.1 0 1.1-.6 2.1-1.6 2.7.5.3 1 .4 1.6.4 0 1.1-.6 2.1-1.6 2.7.5.3 1 .4 1.6.4 0 1.7-1.4 3.1-3.1 3.1h-.4c.5.9 1.5 1.6 2.7 1.6 0 1.7-1.4 3.1-3.1 3.1-.5 0-.9-.1-1.3-.3.5 1.1 1.6 1.8 2.8 1.8 0 1-.5 2-1.3 2.5l-7.2-7.3z" fill="#402511"/>
    <path d="M42.6 27.3c.9 0 1.5.7 1.5 1.5 0 .9-.7 1.5-1.5 1.5-.9 0-1.6-.7-1.6-1.5s.7-1.5 1.6-1.5z" fill="#414A4E"/>
    <path d="M25.5 28.1c.4 0 .8.3.8.8 0 .4-.3.8-.8.8-.4 0-.8-.3-.8-.8s.4-.8.8-.8zm24.8-5.9v-5.7c0-6.8-5.6-12.4-12.4-12.4h-6.2c-6.8 0-12.4 5.6-12.4 12.4v5.7c4.8-1.7 10.1-2.6 15.5-2.6s10.7.9 15.5 2.6z" fill="#FFF"/>
    <path d="M50.3 22.2v-5.7c0-6.8-5.6-12.4-12.4-12.4h-3.1v15.5c5.4-.1 10.7.9 15.5 2.6z" fill="#E6E6E5"/>
    <path d="M41 28.1c.4 0 .8.3.8.8 0 .4-.3.8-.8.8-.4 0-.8-.3-.8-.8s.4-.8.8-.8z" fill="#FFF"/>
    <path d="M27 38.1h1.6c.9 0 1.5-.7 1.5-1.5s.8-1.5 1.5-1.5l4.6 1.5v3.1c-.6 0-1.1-.2-1.6-.6-.4.4-1 .6-1.5.6h-6.2c-.6 0-1.2-.3-1.6-.7-.4-.4-.7-1-.7-1.6 0-.4.3-.8.8-.8.4 0 .8.3.8.8.1.4.4.7.8.7z" fill="#653614"/>
    <path d="M31.7 35h6.2c.8 0 1.5.8 1.5 1.5 0 .9.7 1.5 1.5 1.5h1.6c.4 0 .8-.3.8-.8 0-.4.3-.8.8-.8.4 0 .8.3.8.8 0 1.3-1 2.3-2.3 2.3h-6.2L31.7 35zm-.6-9.8c.3.3.3.8-.1 1.1-.3.3-.8.3-1.1-.1-.7-.8-1.8-1.3-2.9-1.3-1.1 0-2.1.5-2.9 1.3-.3.3-.8.3-1.1.1a.9.9 0 0 1-.1-1.1c1-1.2 2.5-1.8 4-1.8s3.2.7 4.2 1.8zm15.5 0c.3.3.3.8-.1 1.1-.3.3-.8.3-1.1-.1-.7-.8-1.8-1.3-2.9-1.3-1.1 0-2.1.5-2.9 1.3-.3.3-.8.3-1.1.1a.9.9 0 0 1-.1-1.1c1-1.2 2.5-1.8 4-1.8 1.7 0 3.2.7 4.2 1.8z" fill="#402511"/>
    <path d="M33.3 31.9c-.9 0-1.5.7-1.5 1.6 0 .9.7 1.5 1.5 1.5h4.6l-3.1-3.1h-1.5z" fill="#E8B274"/>
    <path d="M34 28.8c0-.4.3-.8.8-.8s.8.3.8.8v3.1c0 .4-.3.8-.8.8h-1.5c-.4 0-.8.3-.8.8 0 .4.3.8.8.8h1.5c.4 0 .8.3.8.8 0 .4-.3.8-.8.8h-1.5c-1.3 0-2.3-1-2.3-2.3 0-1.3 1-2.3 2.3-2.3h.8v-2.5H34z" fill="#A87942"/>
    <path d="M34.8 4C28 4 22.4 9.6 22.4 16.4v4.8c3.9-1.1 8.1-1.7 12.4-1.7l3.1-6.2L34.8 4z" fill="#CA3927"/>
    <path d="M34.8 4v15.5c4.3 0 8.4.6 12.4 1.7v-4.8C47.2 9.6 41.6 4 34.8 4z" fill="#991B1E"/>
    <path d="M34.8 18.8c2.7 0 5.4.2 8 .7 2.7.5 5.3 1.1 7.7 2 .4.1.6.6.5 1-.1.4-.6.6-1 .5-2.4-.9-4.9-1.5-7.5-1.9a49 49 0 0 0-7.7-.7l-.8-.8.8-.8z" fill="#788890"/>
    <path d="M19.6 22.9c-.4.1-.8-.1-1-.5-.1-.4.1-.8.5-1 2.5-.9 5.1-1.6 7.7-2 2.6-.4 5.3-.7 8-.7v1.5c-2.6 0-5.2.2-7.7.7-2.6.5-5.1 1.2-7.5 2z" fill="#A0B4BA"/>
    <path d="M16.2 118.7h37.2v33.5l-17-16.4c-.1-.9-.7-1.5-1.5-1.5-.9 0-1.5.7-1.5 1.5l-6.2 72.8H16.4v-89.9h-.2z" fill="#653614"/>
    <path d="M53.4 152.2v56.4H42.6l-6.2-72.8c0-.4-.2-.8-.4-1l17.4 17.4zm-9.3-33.5h9.3v9.3" fill="#402511"/>
    <path d="M16.2 145c0 .4-.3.8-.8.8a.8.8 0 0 1-.8-.8v-3c0-.4-.3-.8-.8-.8-.4 0-.8.3-.8.8v4.6c0 .4-.3.8-.8.8a.8.8 0 0 1-.8-.8v.8c0 .4-.3.8-.8.8a.8.8 0 0 1-.8-.8v-.8c0 .4-.3.8-.8.8a.8.8 0 0 1-.8-.8v-2.3c0 .4-.3.8-.8.8a.8.8 0 0 1-.8-.8V86.2h9.3V145h.3z" fill="#E8B274"/>
    <path d="M44.1 53.6c0 4-2.5 7.5-6.2 8.8v50.1h15.5V86.1c-2-3.1-3.1-6.8-3.1-10.7V66c0-3.4 2.7-6.2 6.2-6.2l-12.4-6.2z" fill="#A5C5E8"/>
    <path d="M44.1 53.6c0 4-2.5 7.5-6.2 8.8v7.5l14.6 14.6c-1.4-2.7-2.2-5.8-2.2-9.1V66c0-3.4 2.7-6.2 6.2-6.2l-12.4-6.2z" fill="#799DC9"/>
    <path d="M53.4 145c0 .4.3.8.8.8.4 0 .8-.3.8-.8v-3c0-.4.3-.8.8-.8.4 0 .8.3.8.8v4.6c0 .4.3.8.8.8.4 0 .8-.3.8-.8v.8c0 .4.3.8.8.8.4 0 .8-.3.8-.8v-.8c0 .4.3.8.8.8.4 0 .8-.3.8-.8v-2.3c0 .4.3.8.8.8.4 0 .8-.3.8-.8V86.2h-9.3V145h-.3z" fill="#C79255"/>
    <path d="M53.4 145c0 .4.3.8.8.8.4 0 .8-.3.8-.8v-3c0-.4.3-.8.8-.8.4 0 .8.3.8.8v4.6c0 .4.3.8.8.8.4 0 .8-.3.8-.8v.8c0 .4.3.8.8.8.4 0 .8-.3.8-.8v-.8c0 .4.3.8.8.8.4 0 .8-.3.8-.8v-2.3c0 .4.3.8.8.8.4 0 .8-.3.8-.8v-7l-9.3-9.3v17h-.3z" fill="#E8B274"/>
    <path d="M.7 217.9h27.9v2.3c0 .4-.3.8-.8.8H1.5a.8.8 0 0 1-.8-.8v-2.3z" fill="#FFF"/>
    <path d="M27.1 207c.4 0 .8.3.8.8v1.5c0 .3-.1.5-.3.6.6 2.6 1 5.4 1.1 7.9H.8c0-1.3.8-2.6 2.1-2.9l9.2-2c1.6-.4 2.8-1.7 3.6-3.1-.1-.1-.1-.3-.1-.4v-1.5c0-.4.3-.8.8-.8h10.7v-.1z" fill="#CA3927"/>
    <path d="M27.7 211l.3 1.5c-1.3.1-2.4.7-3.3 1.6-1 1-1.6 2.3-1.6 3.8h-1.5c0-1.9.8-3.7 2-4.9 1.1-1.1 2.6-1.8 4.1-2zm-13.8 6.9h-1.6c0-.6-.3-1.2-.7-1.6-.4-.4-1-.7-1.6-.7H1.7c.3-.3.7-.5 1.1-.6l4.2-.9h3c1.1 0 2 .4 2.7 1.1.8.6 1.2 1.6 1.2 2.7z" fill="#991B1E"/>
    <path fill="#653614" d="M6.9 126.5h4.7v3.1H6.9"/>
    <path fill="#402511" d="M16.2 126.5h-4.6v3.1h4.6"/>
    <path d="M11.6 124.9c1.7 0 3.1 1.4 3.1 3.1 0 1.7-1.4 3.1-3.1 3.1-1.7 0-3.1-1.4-3.1-3.1 0-1.7 1.4-3.1 3.1-3.1z" fill="#435055"/>
    <path d="M11.6 126.5c.9 0 1.6.7 1.6 1.5 0 .9-.7 1.5-1.6 1.5-.9 0-1.5-.7-1.5-1.5-.1-.9.6-1.5 1.5-1.5z" fill="#FFF"/>
    <path d="M26.3 95.5c0 2.8-1.1 5.3-2.9 7.1a9.97 9.97 0 0 1-7.1 2.9V104c2.4 0 4.5-1 6-2.5s2.5-3.7 2.5-6h1.5zm17 0c0 2.8 1.1 5.3 3 7.1 1.8 1.8 4.3 2.9 7.1 2.9V104c-2.4 0-4.5-1-6-2.5s-2.5-3.7-2.5-6h-1.6z" fill="#799DC9"/>
    <path d="M68.9 217.9H41v2.3c0 .4.3.8.8.8h26.3c.4 0 .8-.3.8-.8v-2.3z" fill="#E6E6E5"/>
    <path d="M42.5 207c-.4 0-.8.3-.8.8v1.5c0 .3.1.5.3.6-.6 2.6-1 5.4-1.1 7.9h27.9c0-1.3-.8-2.6-2.1-2.9l-9.2-2c-1.6-.4-2.8-1.7-3.6-3.1.1-.1.1-.3.1-.4v-1.5c0-.4-.3-.8-.8-.8H42.5v-.1z" fill="#991B1E"/>
    <path d="M41.9 211l-.3 1.5c1.3.1 2.4.7 3.3 1.6 1 1 1.6 2.3 1.6 3.8h1.6c0-1.9-.8-3.7-2-4.9a7.5 7.5 0 0 0-4.2-2zm13.8 6.9h1.6c0-.6.3-1.2.7-1.6.4-.4 1-.7 1.6-.7h8.3c-.3-.3-.7-.5-1.1-.6l-4.2-.9h-3c-1.1 0-2 .4-2.7 1.1-.7.6-1.2 1.6-1.2 2.7z" fill="#653614"/>
    <path fill="#A87942" d="M186.6 44.3h18.6V66h-18.6"/>
    <path d="M177.4 118.7h37.2v33.5l-17-16.4c-.1-.9-.7-1.5-1.5-1.5-.9 0-1.5.7-1.5 1.5l-6.2 72.8h-10.8v-89.9h-.2z" fill="#A5C5E8"/>
    <path d="M214.5 152.2v56.4h-10.8l-6.2-72.8c0-.4-.2-.8-.4-1l17.4 17.4z" fill="#799DC9"/>
    <path fill="#402511" d="M205.2 118.7h9.3v9.3"/>
    <path d="M177.4 145c0 .4-.3.8-.8.8a.8.8 0 0 1-.8-.8v-3c0-.4-.3-.8-.8-.8-.4 0-.8.3-.8.8v4.6c0 .4-.3.8-.8.8a.8.8 0 0 1-.8-.8v.8c0 .4-.3.8-.8.8a.8.8 0 0 1-.8-.8v-.8c0 .4-.3.8-.8.8a.8.8 0 0 1-.8-.8v-2.3c0 .4-.3.8-.8.8a.8.8 0 0 1-.8-.8V84.6h9.3V145h.3z" fill="#9E5132"/>
    <path d="M161.9 217.9h27.9v2.3c0 .4-.3.8-.8.8h-26.3a.8.8 0 0 1-.8-.8v-2.3z" fill="#FFF"/>
    <path d="M188.2 207.8c.4 0 .8.3.8.8v.8c0 .3-.1.5-.3.6.6 2.6 1 5.4 1.1 7.9h-27.9c0-1.3.8-2.6 2.1-2.9l9.2-2c1.6-.4 2.8-1.7 3.6-3.1-.1-.1-.1-.3-.1-.4v-.8c0-.4.3-.8.8-.8h10.7v-.1z" fill="#FFCD05"/>
    <path d="M167.3 214.2l1.6-.3v.9c0 .4-.3.8-.8.8a.8.8 0 0 1-.8-.8v-.6zm3.1-.7l1.5-.3.4 1.4c.1.4-.1.8-.5.9-.4.1-.8-.1-.9-.5l-.5-1.5zm3.1-.7c.5-.2.9-.4 1.4-.7l.8 1.4c.2.4.1.8-.3 1.1-.4.2-.8.1-1.1-.3l-.8-1.5zm2.3-1.6c.3-.4.6-.9.9-1.3l1.2 1.2c.3.3.3.8 0 1.1-.3.3-.8.3-1.1 0l-1-1z" fill="#B8952F"/>
    <path fill="#435055" d="M168.1 126.5h4.6v3.1h-4.6"/>
    <path fill="#232D30" d="M177.4 126.5h-4.7v3.1h4.7"/>
    <path fill="#9E5132" d="M186.6 44.3h18.6V66h-18.6"/>
    <path fill="#814127" d="M186.6 44.3h18.6V66h-3.3l-15.3-15.2"/>
    <path d="M195.9 1c12 0 21.7 9.7 21.7 21.7s-9.7 21.7-21.7 21.7l-1.5-21.7L195.9 1z" fill="#232D30"/>
    <path d="M168.1 84.6V66c0-3.1 1.6-3.9 3.1-4.6l15.5-7.7c0 5.2 4.2 9.3 9.3 9.3 5.1 0 9.3-4.2 9.3-9.3l25.5 6.7c1.5.8 3.1 8.7 3.1 8.7l-19.3 15.5V128h-37.2V84.6h-9.3z" fill="#FFCD05"/>
    <path fill="#B8952F" d="M214.5 90.8v31l-27.9-27.9 18.6-12.4"/>
    <path d="M195.9 44.3c-12 0-21.7-9.7-21.7-21.7S183.9.9 195.9.9v43.4z" fill="#435055"/>
    <path d="M185.1 54.4l1.6-.8v31l-1.6-3.1V54.4zm20.1 21.7l1.5.8v4.7l-1.5 3.1v-8.6z" fill="#414A4E"/>
    <path fill="#232D30" d="M205.2 53.7v-.1l1.6.8v23.2l-1.6-1.5"/>
    <path d="M211.4 25.7c-1.7 0-3.1 1.4-3.1 3.1 0 1.7 1.4 3.1 3.1 3.1 1.7 0 3.1-1.4 3.1-3.1 0-1.7-1.3-3.1-3.1-3.1z" fill="#9E5132"/>
    <path d="M211.4 27.3c-.9 0-1.5.7-1.5 1.5 0 .9.7 1.5 1.5 1.5.9 0 1.5-.7 1.5-1.5.1-.8-.6-1.5-1.5-1.5z" fill="#814127"/>
    <path d="M180.5 25.7c-1.7 0-3.1 1.4-3.1 3.1 0 1.7 1.4 3.1 3.1 3.1 1.7 0 3.1-1.4 3.1-3.1 0-1.7-1.4-3.1-3.1-3.1z" fill="#9E5132"/>
    <path d="M180.5 27.3c-.9 0-1.6.7-1.6 1.5 0 .9.7 1.5 1.6 1.5.9 0 1.5-.7 1.5-1.5s-.7-1.5-1.5-1.5z" fill="#814127"/>
    <path d="M207.9 12.8c2.2 2.7 3.5 6.1 3.5 9.8v15.5c0 8.5-7 15.5-15.5 15.5s-15.5-7-15.5-15.5V22.6c0-3.7 1.3-7.1 3.5-9.8 3.4 2.3 7.6 3.6 12 3.6 4.5 0 8.6-1.3 12-3.6z" fill="#9E5132"/>
    <path d="M195.9 44.3c3.4 0 6.2-2.8 6.2-6.2h-12.4c0 3.5 2.8 6.2 6.2 6.2z" fill="#232D30"/>
    <path d="M195.9 44.3c1.1 0 2.1-.3 3-.8a6.1 6.1 0 0 0-6 0c.9.6 2 .8 3 .8z" fill="#DE324F"/>
    <path d="M188.2 25.7c1.7 0 3.1 1.4 3.1 3.1 0 1.7-1.4 3.1-3.1 3.1-1.7 0-3.1-1.4-3.1-3.1 0-1.7 1.4-3.1 3.1-3.1zm12.4 12.4c0 .9-.7 1.5-1.6 1.5h-6.2c-.9 0-1.5-.7-1.5-1.5h9.3zm3.1-12.4c1.7 0 3.1 1.4 3.1 3.1 0 1.7-1.4 3.1-3.1 3.1-1.7 0-3.1-1.4-3.1-3.1 0-1.7 1.4-3.1 3.1-3.1z" fill="#FFF"/>
    <path d="M188.2 27.3c.9 0 1.5.7 1.5 1.5 0 .9-.7 1.5-1.5 1.5-.9 0-1.6-.7-1.6-1.5s.7-1.5 1.6-1.5zm15.5 0c.9 0 1.5.7 1.5 1.6 0 .9-.7 1.5-1.5 1.5-.9 0-1.5-.7-1.5-1.5-.1-.9.6-1.6 1.5-1.6z" fill="#232D30"/>
    <path d="M186.6 28.1c.4 0 .8.3.8.8 0 .4-.3.8-.8.8a.8.8 0 0 1-.8-.8c.1-.5.4-.8.8-.8zm15.5 0c.4 0 .8.3.8.8 0 .4-.3.8-.8.8a.8.8 0 0 1-.8-.8c.1-.5.4-.8.8-.8z" fill="#FFF"/>
    <path d="M192.2 24.5c.3.3.3.8-.1 1.1-.3.3-.8.3-1.1-.1-.7-.8-1.8-1.3-2.9-1.3-1.1 0-2.1.5-2.9 1.3-.3.3-.8.3-1.1.1a.9.9 0 0 1-.1-1.1c1-1.1 2.5-1.8 4-1.8a5 5 0 0 1 4.2 1.8zm15.5-.8c.3.3.3.8-.1 1.1-.3.3-.8.3-1.1-.1-.7-.8-1.8-1.3-2.9-1.3-1.1 0-2.1.5-2.9 1.3-.3.3-.8.3-1.1.1-.3-.2-.3-.8-.1-1.1 1-1.1 2.5-1.8 4-1.8 1.7 0 3.2.6 4.2 1.8z" fill="#232D30"/>
    <path d="M210.7 16.4c0-.4.3-.8.8-.8.4 0 .8.3.8.8v21.7c0 8.9-7.3 16.3-16.3 16.3l-1.5-3.5 1.5-3.5c2.4 0 4.6-.9 6.2-2.4v6.4c5.2-2.4 8.5-7.6 8.5-13.3V16.4z" fill="#232D30"/>
    <path d="M195.9 54.4c-9 0-16.3-7.3-16.3-16.3V16.4c0-.4.3-.8.8-.8.4 0 .8.3.8.8v21.7c0 5.7 3.4 10.9 8.5 13.3V45c1.6 1.5 3.8 2.4 6.2 2.4v7z" fill="#435055"/>
    <path d="M208.3 26.5h-7.7c-.4 0-.8.3-.8.8v1.6c0 1.3 1 2.3 2.3 2.3h3.9c1.3 0 2.3-1 2.3-2.3v-2.4zM195.9 25c1 0 2 .4 2.7 1.1.4-.7 1.2-1.1 2-1.1h11.6c.4 0 .8.3.8.8 0 .4-.3.8-.8.8h-2.3v2.3c0 2.1-1.7 3.9-3.9 3.9h-3.9a3.9 3.9 0 0 1-3.9-3.9c0-1.3-1-2.3-2.3-2.3l-.6-.8.6-.8z" fill="#799DC9"/>
    <path d="M179.7 26.5a.8.8 0 0 1-.8-.8c0-.4.3-.8.8-.8h11.6c.8 0 1.5.4 2 1.1.7-.7 1.6-1.1 2.7-1.1v1.5c-1.3 0-2.3 1-2.3 2.3 0 2.1-1.7 3.9-3.9 3.9h-3.9a3.9 3.9 0 0 1-3.9-3.9v-2.3h-2.3v.1zm11.6 0h-7.7v2.3c0 1.3 1 2.3 2.3 2.3h3.9c1.3 0 2.3-1 2.3-2.3v-1.5c0-.4-.4-.8-.8-.8z" fill="#A5C5E8"/>
    <path d="M198.3 28.8c0-.4-.3-.8-.8-.8-.4 0-.8.3-.8.8v3.1c0 .4.3.8.8.8h1.5c.4 0 .8.3.8.8 0 .4-.3.8-.8.8h-6.2a.8.8 0 0 1-.8-.8c0-.4.3-.8.8-.8h1.6c.4 0 .8-.3.8-.8v-3.1c0-.4-.3-.8-.8-.8s-.8.3-.8.8v2.3h-.8c-1.3 0-2.3 1-2.3 2.3 0 1.3 1 2.3 2.3 2.3h6.2c1.3 0 2.3-1 2.3-2.3 0-1.3-1-2.3-2.3-2.3h-.8v-2.3h.1z" fill="#814127"/>
    <path d="M171.2 124.9h3.1c.9 0 1.6.7 1.6 1.5v3.1c0 .9-.7 1.5-1.6 1.5h-3.1c-.9 0-1.5-.7-1.5-1.5v-3.1c-.1-.8.6-1.5 1.5-1.5z" fill="#435055"/>
    <path fill="#FFF" d="M171.2 126.5h3.1v3.1h-3.1"/>
    <path d="M186.6 131.1c-.7 1.8-2 3.3-3.5 4.4a9.53 9.53 0 0 1-5.8 1.8v-1.5c1.8 0 3.5-.6 4.9-1.6 1.1-.8 2-1.9 2.7-3.1h1.7zm18.6 0c.7 1.8 2 3.3 3.5 4.4 1.6 1.2 3.6 1.8 5.8 1.8v-1.5c-1.8 0-3.5-.6-4.9-1.6-1.1-.8-2-1.9-2.7-3.1h-1.7z" fill="#799DC9"/>
    <path d="M230 217.9h-27.9v2.3c0 .4.3.8.8.8h26.3c.4 0 .8-.3.8-.8v-2.3z" fill="#E6E6E5"/>
    <path d="M203.7 207.8c-.4 0-.8.3-.8.8v.8c0 .3.1.5.3.6-.6 2.6-1 5.4-1.1 7.9H230c0-1.3-.8-2.6-2.1-2.9l-9.2-2c-1.6-.4-2.8-1.7-3.6-3.1.1-.1.1-.3.1-.4v-.8c0-.4-.3-.8-.8-.8h-10.7v-.1z" fill="#B8952F"/>
    <path d="M224.6 214.2l-1.5-.3v.9c0 .4.3.8.8.8.4 0 .8-.3.8-.8v-.6h-.1zm-3.1-.7l-1.5-.3-.4 1.4c-.1.4.1.8.5.9.4.1.8-.1.9-.5l.5-1.5zm-3.2-.7c-.5-.2-.9-.4-1.4-.7l-.8 1.4c-.2.4-.1.8.3 1.1.4.2.8.1 1.1-.3l.8-1.5zm-2.2-1.6c-.3-.4-.6-.9-.9-1.3l-1.2 1.2c-.3.3-.3.8 0 1.1.3.3.8.3 1.1 0l1-1z" fill="#FFCD05"/>
    <path fill="#414A4E" d="M186.6 83.1h18.6v10.8h-18.6"/>
    <path fill="#FFF" d="M186.6 81.5h18.6v3.1h-18.6"/>
    <path d="M195.9 83.1c2.6 0 4.7 2.1 4.7 4.6 0 2.6-2.1 4.6-4.7 4.6s-4.6-2.1-4.6-4.6c0-2.5 2.1-4.6 4.6-4.6z" fill="#788890"/>
    <path d="M195.9 85c1.5 0 2.7 1.2 2.7 2.7 0 1.5-1.2 2.7-2.7 2.7a2.7 2.7 0 0 1-2.7-2.7c0-1.5 1.2-2.7 2.7-2.7zm7-2.7h1.6v1.5h-1.6" fill="#232D30"/>
    <path d="M113.8 140.4v75.9h-7.7l-1.5-3.1c.9 0 1.7-.7 1.5-1.6l-10.2-71.3h17.9v.1z" fill="#653614"/>
    <path fill="#402511" d="M113.8 140.4V167l-16.5-16.4-1.4-10.2m39 0l-10.2 71.3c-.1.8.7 1.6 1.5 1.6l-1.5 3.1H117v-76.9l17.9.9z"/>
    <path fill="#377979" d="M130.9 21.7h-30.7v46.4h30.7"/>
    <path d="M115.4 0c12 0 21.7 9.7 21.7 21.7s-9.7 21.7-21.7 21.7-21.7-9.7-21.7-21.7S103.4 0 115.4 0z" fill="#5CA3A3"/>
    <path d="M140.2 70.3c-.5.3-1.1.7-1.6 1H92.2c-.5-.3-1.1-.6-1.6-1v-6.8c0-3.1 1.6-3.9 3.1-4.6l13.9-7v-8.5h15.5v8.5l13.9 7c1.5.8 3.1 1.5 3.1 4.6v6.8h.1z" fill="#FCD6CC"/>
    <path d="M140.2 70.3c-.5.3-1.1.7-1.6 1h-8.7L107.6 49v-5.7h15.5v8.5l13.9 7c1.5.8 3.1 1.5 3.1 4.6v6.9h.1z" fill="#F6C0B2"/>
    <path d="M140.2 139.4H90.6V63.5c0-3.1 1.6-3.9 3.1-4.6l13.9-7a7.7 7.7 0 0 0 15.4 0l13.9 7c1.5.8 3.1 1.5 3.1 4.6v75.9h.2zm-9.3-65.1c-2 5-3.1 9.9-3.1 15.5s1.1 11.1 3.1 15.7V74.3zm-31 31c2-4.9 3.1-9.9 3.1-15.5 0-5.5-1.1-10.8-3.1-15.5v31z" fill="#A5C5E8"/>
    <path d="M129.1 54.9l7.9 4c1.5.8 3.1 1.5 3.1 4.6v24l-9.3-9.3v-3.9c-.4 1-.7 1.9-1 2.9l-11.5-11.5 10.8-10.8z" fill="#799DC9"/>
    <path d="M130.9 110.1l-28.2-28.2v-.1a7.7 7.7 0 0 0 10.4-.5c.6-.6 1.4-.9 2.2-.9.9 0 1.6.3 2.2.9 1.4 1.4 3.4 2.3 5.5 2.3 1.9 0 3.6-.7 5-1.8.1-.1.3-.2.5-.4-.6 2.7-.9 5.4-.9 8.4 0 5.6 1.1 11.1 3.1 15.7.2-37.5.2-22.1.2 4.6z" fill="#799DC9"/>
    <path d="M96.9 57.2l10.7-5.4c0 4.3 3.5 7.7 7.7 7.7-.4 4.8-4.4 8.5-9.3 8.5-5.1 0-9.3-4.2-9.3-9.3.1-.4.1-.9.2-1.5z" fill="#FFF"/>
    <path d="M130.9 35.6c0 8.5-7 15.5-15.5 15.5s-15.5-7-15.5-15.5V20.9c3.3-1.2 6.1-3.6 7.7-6.7a30.7 30.7 0 0 0 20.2 7.5c1 0 2.1-.1 3.1-.2v14.1z" fill="#FCD6CC"/>
    <path d="M130.9 35.6c0 .6 0 1.2-.1 1.8l-23.2-23.2a30.7 30.7 0 0 0 20.2 7.5c1 0 2.1-.1 3.1-.2v14.1z" fill="#F6C0B2"/>
    <path d="M103 22.6a7.07 7.07 0 0 1 9.2 0l-1 1.2c-1-.9-2.3-1.4-3.6-1.4-1.3 0-2.6.5-3.6 1.4l-1-1.2zm15.5 0c.9-.8 2-1.3 3.1-1.6 1.5.3 3 .5 4.6.6.5.3 1 .6 1.5 1l-1 1.2c-1-.9-2.3-1.4-3.6-1.4-1.3 0-2.6.5-3.6 1.4l-1-1.2z" fill="#B08C82"/>
    <path d="M121.1 38.5c.3-.3.8-.3 1.1.1.3.3.3.8-.1 1.1-1.9 1.6-4.2 2.5-6.7 2.5s-4.9-.9-6.7-2.5a.9.9 0 0 1-.1-1.1c.3-.3.8-.3 1.1-.1 1.6 1.4 3.6 2.1 5.7 2.1 2.1.1 4.1-.7 5.7-2.1z" fill="#991B1E"/>
    <path d="M107.7 24.8c1.7 0 3.1 1.4 3.1 3.1 0 1.7-1.4 3.1-3.1 3.1-1.7 0-3.1-1.4-3.1-3.1 0-1.7 1.3-3.1 3.1-3.1zm15.4 0c1.7 0 3.1 1.4 3.1 3.1 0 1.7-1.4 3.1-3.1 3.1-1.7 0-3.1-1.4-3.1-3.1 0-1.7 1.4-3.1 3.1-3.1z" fill="#FFF"/>
    <path d="M123.1 24.8c1.7 0 3.1 1.4 3.1 3.1 0 1.3-.9 2.5-2.1 2.9l-4-4c.5-1.2 1.7-2 3-2z" fill="#E6E6E5"/>
    <path d="M107.7 26.3c.9 0 1.5.7 1.5 1.5 0 .9-.7 1.5-1.5 1.5-.9 0-1.6-.7-1.6-1.5s.7-1.5 1.6-1.5zm15.4 0c.9 0 1.5.7 1.5 1.5 0 .9-.7 1.5-1.5 1.5-.9 0-1.6-.7-1.6-1.5.1-.8.8-1.5 1.6-1.5z" fill="#435055"/>
    <path d="M106.1 27.1c.4 0 .8.3.8.8 0 .4-.3.8-.8.8-.4 0-.8-.3-.8-.8s.4-.8.8-.8zm15.5 0c.4 0 .8.3.8.8 0 .4-.3.8-.8.8-.4 0-.8-.3-.8-.8s.4-.8.8-.8z" fill="#FFF"/>
    <path d="M133.8 57.2l-10.6-5.4c0 4.3-3.5 7.7-7.8 7.7.4 4.8 4.4 8.5 9.3 8.5 5.1 0 9.3-4.2 9.3-9.3-.1-.4-.1-.9-.2-1.5z" fill="#E6E6E5"/>
    <path d="M103 9.3l-9.3 12.4v46.5c5.1 0 9.3-4.2 9.3-9.3V9.3zm24.8 3.1l9.3 9.3v46.5c-5.1 0-9.3-4.2-9.3-9.3V12.4z" fill="#5CA3A3"/>
    <path d="M121.6 25.5c-1.3 0-2.3 1-2.3 2.3 0 2.4 1.9 4.3 4.3 4.3s4.3-1.9 4.3-4.3v-2.3h-6.3zm-6.2 0l-.8-.8.8-.8c1.2 0 2.4.6 3.1 1.6.7-1 1.9-1.5 3.1-1.5h7c.4 0 .8.3.8.8v3.1a5.8 5.8 0 0 1-11.6 0c-.1-1.3-1.1-2.4-2.4-2.4z" fill="#9A5635"/>
    <path d="M115.4 25.5c-1.3 0-2.3 1-2.3 2.3a5.8 5.8 0 0 1-11.6 0v-3.1c0-.4.3-.8.8-.8h7c1.2 0 2.4.6 3.1 1.5.7-1 1.9-1.6 3.1-1.6v1.7h-.1zm-6.2 0H103v2.3c0 2.4 1.9 4.3 4.3 4.3s4.3-1.9 4.3-4.3c-.1-1.2-1.1-2.3-2.4-2.3z" fill="#BB653D"/>
    <path d="M115.4 65c.9 0 1.6.7 1.6 1.5 0 .9-.7 1.5-1.6 1.5-.9 0-1.5-.7-1.5-1.5-.1-.8.6-1.5 1.5-1.5z" fill="#FFF"/>
    <path d="M116.5 65.5c.3.3.5.7.5 1.1 0 .9-.7 1.5-1.6 1.5-.4 0-.8-.2-1.1-.5l2.2-2.1z" fill="#E6E6E5"/>
    <path d="M114.6 27.9c0-.4.3-.8.8-.8.4 0 .8.3.8.8V31c0 .4-.3.8-.8.8h-1.5c-.4 0-.8.3-.8.8 0 .4.3.8.8.8h1.5c.4 0 .8.3.8.8s-.3.8-.8.8h-1.5c-1.3 0-2.3-1-2.3-2.3 0-1.3 1-2.3 2.3-2.3h.8v-2.5h-.1z" fill="#B08C82"/>
    <path d="M115.4 71.2c.9 0 1.6.7 1.6 1.5 0 .9-.7 1.5-1.6 1.5-.9 0-1.5-.7-1.5-1.5-.1-.8.6-1.5 1.5-1.5z" fill="#FFF"/>
    <path d="M116.5 71.7c.3.3.5.7.5 1.1 0 .9-.7 1.5-1.6 1.5-.4 0-.8-.2-1.1-.5l2.2-2.1z" fill="#E6E6E5"/>
    <path fill="#FFF" d="M98.3 123.9h-7.7v-6.2h7.7m41.9 6.2h-7.8v-6.2h7.8m-24.8-40.3c.9 0 1.6.7 1.6 1.5 0 .9-.7 1.5-1.6 1.5-.9 0-1.5-.7-1.5-1.5-.1-.8.6-1.5 1.5-1.5z"/>
    <path d="M116.5 77.9c.3.3.5.7.5 1.1 0 .9-.7 1.5-1.6 1.5-.4 0-.8-.2-1.1-.5l2.2-2.1z" fill="#E6E6E5"/>
    <path d="M115.4 83.6c.9 0 1.6.7 1.6 1.5 0 .9-.7 1.5-1.6 1.5-.9 0-1.5-.7-1.5-1.5-.1-.8.6-1.5 1.5-1.5z" fill="#FFF"/>
    <path d="M116.5 84.1c.3.3.5.7.5 1.1 0 .9-.7 1.5-1.6 1.5-.4 0-.8-.2-1.1-.5l2.2-2.1z" fill="#E6E6E5"/>
    <path d="M115.4 217.9H92.2v1.6c0 .9.7 1.5 1.5 1.5h20.1c.9 0 1.5-.7 1.5-1.5v-1.6h.1z" fill="#FFF"/>
    <path d="M92.1 217.9c0-1.4 1-2.6 2.3-3l10.8-3c.9 1.7 2.7 2.9 4.8 2.9 1.5 0 2.8-.6 3.8-1.5.2-.2.4-.2.6-.2.2.1.4.2.4.4.4 1.4.6 2.8.6 4.4H92.1z" fill="#CA3927"/>
    <path d="M115.4 217.9h23.2v1.6c0 .9-.7 1.5-1.5 1.5H117c-.9 0-1.6-.7-1.6-1.5v-1.6z" fill="#E6E6E5"/>
    <path d="M138.6 217.9c0-1.4-1-2.6-2.3-3l-10.8-3c-.9 1.7-2.7 2.9-4.8 2.9-1.5 0-2.8-.6-3.8-1.5-.2-.2-.4-.2-.6-.2-.2.1-.4.2-.4.4-.4 1.4-.6 2.8-.6 4.4h23.3z" fill="#991B1E"/>
    <path d="M93.7 145.6c1.7 0 3.1-1.4 3.1-3.1 0 1.7 1.4 3.1 3.1 3.1 1.7 0 3.1-1.4 3.1-3.1 0 1.7 1.4 3.1 3.1 3.1 1.7 0 3.1-1.4 3.1-3.1 0 1.7 1.4 3.1 3.1 3.1 1.7 0 3.1-1.4 3.1-3.1 0 1.7 1.4 3.1 3.1 3.1 1.7 0 3.1-1.4 3.1-3.1 0 1.7 1.4 3.1 3.1 3.1 1.6 0 2.8-1.2 3.1-2.6.2 1.5 1.5 2.6 3.1 2.6 1.7 0 3.1-1.4 3.1-3.1h.1c0 1.7 1.4 3.1 3.1 3.1 1.7 0 3.1-1.4 3.1-3.1v-3.1H90.7v3.1c-.1 1.7 1.3 3.1 3 3.1z" fill="#FFF"/>
    <path d="M130.9 137.9c0 .4.3.8.8.8.4 0 .8-.3.8-.8v-3.1c0-.4.3-.8.8-.8.4 0 .8.3.8.8v4.6c0 .4.3.8.8.8.4 0 .8-.3.8-.8v.8c0 .4.3.8.8.8.4 0 .8-.3.8-.8v-.8c0 .4.3.8.8.8.4 0 .8-.3.8-.8v-2.3c0 .4.3.8.8.8.4 0 .8-.3.8-.8v-13.2h-7.7l-.6 1.1c-.7 1.4-1 2.6-1 4.2v8.7h-.3zm-31 0c0 .4-.3.8-.8.8a.8.8 0 0 1-.8-.8v-3.1c0-.4-.3-.8-.8-.8-.4 0-.8.3-.8.8v4.6c0 .4-.3.8-.8.8a.8.8 0 0 1-.8-.8v.8c0 .4-.3.8-.8.8a.8.8 0 0 1-.8-.8v-.8c0 .4-.3.8-.8.8a.8.8 0 0 1-.8-.8v-2.3c0 .4-.3.8-.8.8a.8.8 0 0 1-.8-.8v-13.2H98l.6 1.1c.7 1.4 1 2.6 1 4.2v8.7h.3z" fill="#FCD6CC"/>
    <path fill="#DA9A5B" d="M268 220.1h46.2v-34.5H268"/>
    <path opacity=".13" d="M314.2 202.86l-17.33 17.24h17.32"/>
    <path fill="#E5B486" d="M285.6 194.23h10.98v-8.62H285.6"/>
    <path d="M293.3 202.4v4.4h2.22v-3.3h1.1v3.3h1.1v-3.3h1.12v3.3h1.1v-4.42h-6.63zm-3.36 3.33h1.16v-2.27h-1.16v2.27zm-2.2-3.34l.03 5.5h2.2v-1.1h2.22v-4.5h-4.5zm-5.5 4.4h2.2v-3.4h1.1v3.3h1.1v-4.4h-4.4v4.4zm-1.14-5.6h20v6.7h-10v1.1h-4.45v-1.1h-5.55v-6.7z" fill="#191008"/>
    <path fill="#DA9A5B" d="M297.8 184.5H344V150h-46.2"/>
    <path opacity=".13" d="M344 167.25l-17.33 17.25H344"/>
    <path fill="#E5B486" d="M315.4 158.62h10.98V150H315.4"/>
    <path d="M323.1 166.78v4.42h2.22v-3.32h1.1v3.32h1.1v-3.3h1.1v3.3h1.1v-4.42h-6.62zm-3.36 3.35h1.16v-2.27h-1.16v2.26zm-2.2-3.35l.03 5.57h2.2v-1.1H322v-4.47h-4.45zm-5.5 4.44h2.2v-3.34h1.1v3.34h1.1v-4.42h-4.4v4.42zm-1.13-5.56h20v6.68h-10v1.07h-4.4v-1H311v-6.7z" fill="#191008"/>
    <path fill="#DA9A5B" d="M315.7 220.1h46.18v-34.5h-46.2"/>
    <path opacity=".13" d="M361.88 202.86l-17.32 17.24h17.32"/>
    <path fill="#E5B486" d="M333.3 194.23h10.97v-8.62H333.3"/>
    <path d="M341 202.4v4.4h2.2v-3.3h1.1v3.3h1.12v-3.3h1.1v3.3h1.12v-4.42H341zm-3.38 3.33h1.16v-2.27h-1.15v2.27zm-2.18-3.34v5.5h2.2v-1.1h2.23v-4.5h-4.43zm-5.52 4.4h2.2v-3.4h1.1v3.3h1.1v-4.4h-4.4v4.4zm-1.14-5.6h19.98v6.7h-10v1.1h-4.44v-1.1h-5.56v-6.7z" fill="#191008"/>
</svg>
