<svg xmlns="http://www.w3.org/2000/svg" xmlns:xlink="http://www.w3.org/1999/xlink">
    <defs>
        <path id="path-1" d="M1359.92 0H0v463.6h1359.92V0z"/>
        <linearGradient x1="27.64%" y1="69.8%" x2="101.93%" y2="4.08%" id="linearGradient-3">
            <stop stop-color="#925443" offset="0%"/>
            <stop stop-color="#9F624B" offset="7.21%"/>
            <stop stop-color="#B97C59" offset="22.86%"/>
            <stop stop-color="#D09465" offset="39.34%"/>
            <stop stop-color="#E1A76F" offset="56.82%"/>
            <stop stop-color="#EEB475" offset="75.98%"/>
            <stop stop-color="#F3B978" offset="100%"/>
        </linearGradient>
        <linearGradient x1="49.59%" y1="60.85%" x2="49.59%" y2="10.31%" id="linearGradient-4">
            <stop stop-color="#845A39" offset="0%"/>
            <stop stop-color="#A06D45" offset="22.16%"/>
            <stop stop-color="#C58554" offset="52.98%"/>
            <stop stop-color="#D5905B" offset="70.42%"/>
        </linearGradient>
        <linearGradient x1="49.81%" y1="168.68%" x2="49.81%" y2="9.3%" id="linearGradient-5">
            <stop stop-color="#9C663F" offset="0%"/>
            <stop stop-color="#BB8557" offset="19.31%"/>
            <stop stop-color="#E5B179" offset="44.7%"/>
            <stop stop-color="#FDC789" offset="57.82%"/>
        </linearGradient>
        <linearGradient x1="49.59%" y1="150.79%" x2="49.59%" y2="16.45%" id="linearGradient-6">
            <stop stop-color="#845A39" offset="0%"/>
            <stop stop-color="#A06D45" offset="22.16%"/>
            <stop stop-color="#C58554" offset="52.98%"/>
            <stop stop-color="#D5905B" offset="70.42%"/>
        </linearGradient>
        <linearGradient x1="50.07%" y1="58.84%" x2="50.07%" y2="3.15%" id="linearGradient-7">
            <stop stop-color="#925443" offset="0%"/>
            <stop stop-color="#B67A58" offset="16.22%"/>
            <stop stop-color="#DEA46D" offset="33.36%"/>
            <stop stop-color="#F3B978" offset="42.22%"/>
        </linearGradient>
        <linearGradient x1="69.62%" y1="84.01%" x2="24.26%" y2="4.83%" id="linearGradient-8">
            <stop stop-color="#713D2F" offset="0%"/>
            <stop stop-color="#804C37" offset="7.95%"/>
            <stop stop-color="#9C6745" offset="23.47%"/>
            <stop stop-color="#B47D50" offset="39.83%"/>
            <stop stop-color="#C68E58" offset="57.17%"/>
            <stop stop-color="#D19A5D" offset="76.17%"/>
            <stop stop-color="#D69F60" offset="100%"/>
        </linearGradient>
        <linearGradient x1="110.03%" y1="123.58%" x2="20.33%" y2="13.39%" id="linearGradient-9">
            <stop stop-color="#713D2F" offset="0%"/>
            <stop stop-color="#733F30" offset="1.56%"/>
            <stop stop-color="#996444" offset="26.16%"/>
            <stop stop-color="#B88152" offset="48.31%"/>
            <stop stop-color="#CD965B" offset="67.05%"/>
            <stop stop-color="#D69F60" offset="80.11%"/>
        </linearGradient>
        <linearGradient x1="22.5%" y1="141.26%" x2="63.46%" y2="7.46%" id="linearGradient-10">
            <stop stop-color="#925443" offset="0%"/>
            <stop stop-color="#B67A58" offset="18.53%"/>
            <stop stop-color="#DEA46D" offset="38.12%"/>
            <stop stop-color="#F3B978" offset="48.24%"/>
        </linearGradient>
        <linearGradient x1="41.64%" y1="120.77%" x2="56.42%" y2="-4.31%" id="linearGradient-11">
            <stop stop-color="#9D5C48" offset="0%"/>
            <stop stop-color="#AC6C51" offset="8.68%"/>
            <stop stop-color="#C48660" offset="24.08%"/>
            <stop stop-color="#D99E6C" offset="40.3%"/>
            <stop stop-color="#EAB076" offset="57.51%"/>
            <stop stop-color="#F7BD7D" offset="76.36%"/>
            <stop stop-color="#FDC27F" offset="100%"/>
        </linearGradient>
        <linearGradient x1="87.67%" y1="125%" x2="27.16%" y2="4.03%" id="linearGradient-12">
            <stop stop-color="#713D2F" offset="0%"/>
            <stop stop-color="#733F30" offset="1.56%"/>
            <stop stop-color="#996444" offset="26.16%"/>
            <stop stop-color="#B88152" offset="48.31%"/>
            <stop stop-color="#CD965B" offset="67.05%"/>
            <stop stop-color="#D69F60" offset="80.11%"/>
        </linearGradient>
        <linearGradient x1="43.12%" y1="140.9%" x2="53.06%" y2="15.59%" id="linearGradient-13">
            <stop stop-color="#925443" offset="0%"/>
            <stop stop-color="#B67A58" offset="18.53%"/>
            <stop stop-color="#DEA46D" offset="38.12%"/>
            <stop stop-color="#F3B978" offset="48.24%"/>
        </linearGradient>
        <linearGradient x1="35.94%" y1="111.5%" x2="61.47%" y2=".82%" id="linearGradient-14">
            <stop stop-color="#9D5C48" offset="0%"/>
            <stop stop-color="#AC6C51" offset="8.68%"/>
            <stop stop-color="#C48660" offset="24.08%"/>
            <stop stop-color="#D99E6C" offset="40.3%"/>
            <stop stop-color="#EAB076" offset="57.51%"/>
            <stop stop-color="#F7BD7D" offset="76.36%"/>
            <stop stop-color="#FDC27F" offset="100%"/>
        </linearGradient>
        <linearGradient x1="50.84%" y1="141.63%" x2="50.84%" y2="8.39%" id="linearGradient-15">
            <stop stop-color="#845A39" offset="0%"/>
            <stop stop-color="#A06D45" offset="22.16%"/>
            <stop stop-color="#C58554" offset="52.98%"/>
            <stop stop-color="#D5905B" offset="70.42%"/>
        </linearGradient>
        <linearGradient x1="50.09%" y1="134.18%" x2="50.09%" y2="5.2%" id="linearGradient-16">
            <stop stop-color="#845A39" offset="0%"/>
            <stop stop-color="#A06D45" offset="22.16%"/>
            <stop stop-color="#C58554" offset="52.98%"/>
            <stop stop-color="#D5905B" offset="70.42%"/>
        </linearGradient>
        <linearGradient x1="50.2%" y1="172.23%" x2="50.2%" y2="11.67%" id="linearGradient-17">
            <stop stop-color="#7E4435" offset="0%"/>
            <stop stop-color="#864C39" offset="9.73%"/>
            <stop stop-color="#9C6244" offset="25.59%"/>
            <stop stop-color="#C48A58" offset="45.51%"/>
            <stop stop-color="#E1A766" offset="55.72%"/>
        </linearGradient>
        <linearGradient x1="176.26%" y1="128.99%" x2="-28.63%" y2=".2%" id="linearGradient-18">
            <stop stop-color="#925443" offset="0%"/>
            <stop stop-color="#A76A4F" offset="11.87%"/>
            <stop stop-color="#EAB073" offset="37.24%"/>
            <stop stop-color="#F3B978" offset="39.28%"/>
        </linearGradient>
        <path d="M13.73 20.23s18.1 3.68 30.05 2.66C42.58 11 29.45 2.8 27.46 2 21.5-.2 18.7-1.43 6.76 3.9c-18.5 8.16 6.97 16.33 6.97 16.33z" id="path-19"/>
        <path d="M.38 16.14c.2.4 1.6 2.05 1.6 2.05C14.7 19 23.65 3.6 23.65 3.6l-2.6-3C15.1 11.45.4 16.15.4 16.15" id="path-21"/>
        <path d="M.38 16.14c.2.4 1.6 2.05 1.6 2.05C14.7 19 23.65 3.6 23.65 3.6l-2.6-3C15.1 11.45.4 16.15.4 16.15" id="path-23"/>
        <path id="path-25" d="M.23.25H8.6v5.3H.22z"/>
        <path d="M5.55 2.25c-11.34 7.35-1.4 24.1-1 24.52.2.2.6.2.6.2 12.74-.2 21.3-14.9 21.3-14.9.2-.22.2-.42.2-.63C26.65 11.24 18.9.2 10.33.6c-1.6.22-3.2.63-4.78 1.65" id="path-27"/>
        <path d="M5.55 2.25c-11.34 7.35-1.4 24.1-1 24.52.2.2.6.2.6.2 12.74-.2 21.3-14.9 21.3-14.9.2-.22.2-.42.2-.63C26.65 11.24 18.9.2 10.33.6c-1.6.22-3.2.63-4.78 1.65" id="path-29"/>
        <path id="path-31" d="M.76.9h16.92v20.85H.76z"/>
        <linearGradient x1="49.93%" y1="100.38%" x2="49.93%" y2="0%" id="linearGradient-33">
            <stop stop-color="#4A4A4A" offset="0%"/>
            <stop stop-color="#29282A" offset="100%"/>
        </linearGradient>
        <linearGradient x1="49.81%" y1="100.05%" x2="49.81%" y2=".02%" id="linearGradient-34">
            <stop stop-color="#4A4A4A" offset="0%"/>
            <stop stop-color="#29282A" offset="100%"/>
        </linearGradient>
        <style>
            @media (max-width:1300px){.wide{display:none}}
            @media (min-width:1299px){.narrow{display:none}}
        </style>
    </defs>
    <rect id="ground" height="100%" width="100%" fill="#206F9C"/>
    <rect class="wide" id="skyWide" width="100%" height="70%" fill="#2481B7"/>
    <svg viewBox="0 0 1330 464" preserveAspectRatio="xMidYMin meet">
        <rect id="sky" width="100%" height="350" fill="#2481B7"/>
        <svg y="50" viewBox="0 0 1330 464" preserveAspectRatio="xMidYMin meet">
            <mask id="aboveground">
                <rect width="100%" height="362" fill="#fff"/>
            </mask>
            <path d="M1355.3 221.75l-1.96 2.45h-3.85l-2-2.45h7.8zm.35 2.45h-1.73l1.73-2.16v2.16zm0 18.64l-3.95-4.9 3.4-4.24h.55v9.14zm0 5.34h-3.36l3.3-4.17v4.2zm0 5.65l-2.17-2.7h2.17v2.7zm0 7.7H1353l-1.3-1.63 3.95-4.9v6.53zm-5.26 0l1-1.27 1 1.27h-2.1zm-3.3 0v-6.62l4 5-1.3 1.7h-2.7zm0-37.33v-2.24l1.8 2.24h-1.8zm1.2 9.5h6.2l-3.2 3.88-3.1-3.88zm-1.2 9.22v-9.22h.6l3.4 4.23-4 5zm.3.26l3.9-4.9 3.9 4.9h-7.9zm3.6 5l-3.6-4.4h7.7l-3.6 4.4h-.6zm-4 0v-4.25l3.4 4.25h-3.4zm2.2 2.95l-2.3 2.78v-2.7h2.2zm5.9 3.64l-3.9 4.77-3.8-4.77h7.7zm-7.8-.6l2.4-3.04h3l2.4 3.05h-7.9zm-.7-32.42v2.45h-23.4v-3.05h-3.9v-.78h31.1v.8h-3.9v.58zm0 21.43v5h-11a6.47 6.47 0 0 0-5.6 3.2h-5.5v-.35a2.5 2.5 0 0 0-1.3-2.2V236.8h.1a.9.9 0 0 0 0-1.77h-.1v-1.33h23.4v9.48zm0 11v7.35h-2.6v-.46a9.7 9.7 0 0 0-9.7-9.7c.4-.15.8-.24 1.3-.24h11v3.05zm-7.1 7.35h-7.5v-5.75h2.2a5.3 5.3 0 0 1 5.2 5.3v.45zm-10.4 0h-5.9v-3.1a2.52 2.52 0 0 0 1.3-2.2v-.45h4.6v5.75zm-6.2-37.33h-1.8l1.7-2.16v2.16zm0 10.93a.9.9 0 0 0-.4.4l-1.4-.02h-.3l1.4-1.8h.5v1.5zm0 7.7l-3.1-3.76v-1.2c0-.37-.1-.7-.1-1l.4-.55h.9c.5 0 .9-.02 1.3-.04a1 1 0 0 0 .4.42v6.14zm0 5.86a2 2 0 0 0-1-.2h-.4v-2.9l1.3-1.7v4.7zm-.4-5l-1 1.2v-1.2h.9zm-1-.6c-.1-1.3-.6-2.3-1.2-2.3h-.5v-1.2l2.7 3.4h-1.1zm1.3 18.3h-2.1a12.1 12.1 0 0 0-1.3-2.4l.3-.5h2.1c.3 0 .6-.1.9-.2v2.9zm-3.7-2.8l-.1-.1-.1.1zm-1.1-21.8l-.6-.7h.6l-.1.6zm-.1.8v.3l-3.8 4.7v-6.2c.1 0 .2.1.3.1a.9.9 0 0 0 .8-.6h1.5l1 1.3v.2zm0 3h-.6c-.6 0-1.1 1-1.2 2.3h-1.8l3.4-4.3v2zm-1.7 4.9l-1.7-2h1.6v2zm0 2.7h-.5a2.5 2.5 0 0 0-1.7.6v-5.3l2.1 2.6v2zm-2.1 13v-.8c.3.2.5.5.8.8h-.8zm2.3-37.3l-2-2.5h7.8l-2 2.4h-3.8zm-1.2 9.5h6.3l-1.5 1.8h-3.3l-1.5-1.8zm-1.2-9.5v-2.3l1.8 2.2h-1.8zm.6 9.5l1.5 1.8h-.9a.9.9 0 0 0-1.2-.5v-1.4h.6zm-.9-12v2.5h-13.3c-3.3 0-6.3.7-9.1 2v-5h-3.8v-.8h30.1v.8h-3.9v.6zm0 13.5a.9.9 0 0 0-.3.6c0 .2.1.4.3.6V249a2.5 2.5 0 0 0-.6 1.55v.4h-1.1a9.7 9.7 0 0 0-7.1 3.1h-13.7V238a11.35 11.35 0 0 1 9-4.5h13.3v1.6zm0 26.2h-6.9v-.4c0-.6.1-1.2.2-1.7h3.2c1.3 0 2.4.4 3.4 1.1v1zm-11.3-.5v.5h-11.1V259h11.2a9.3 9.3 0 0 0-.2 1.68zM1291 226a19.93 19.93 0 0 0-2.95 1.8l-1.06-1.27 3.9-4.9v4.4zm0 16.42l-1.35-1.65a11 11 0 0 1 1.3-2.6v4.2zm-1.9.34c.1-.5.2-1 .34-1.5l1.2 1.5h-1.54zm1.47.6l-1.6 2.04v-.7c0-.45 0-.9.1-1.33h1.6zm.4 10.05l-2-2.5v-4.7l2-2.5v9.9zm-2 .3v-2l1.77 2.2h-1.7zm0 7.4h2V259h-2v2.1zm-5-29.4h-1.1l3.9-4.8 1 1.2a20.95 20.95 0 0 0-3.7 3.7zm-.73 1l-.3-.4h.67l-.3.4zm-.7 1.2v-1.4l.5.7-.5.8zm4-7.4l-4 5V222l4 4.98zm-3.6-5.2h7.8l-3.9 4.9-3.9-4.8zm-.7 0v13.1a20.77 20.77 0 0 0-2.7 10.3v16.5h-2.6v-41.1h9.2v.8h-3.86v.6zm-5.54-22.8l-4-4.8 3.96-4.9v9.8zm0 11l-4-4.8 3.96-4.9v9.8zm0 8.3h-2.2l-1.8-2.2 3.95-4.9v7.1zm0 2.7l-.4-.5h.4v.5zm0 4.7h-2.8l2.9-3.5v3.5zm-5.1 0l-3-3.7h7.67l-3 3.8h-1.6zm-3.5 0V222l2.9 3.6h-2.9zm-.3-36.7V218h-22v-30.8h26v.8h-3.8v.6zm0 32.4v4.4h-8V221h-3.8v-.8h11.9v.88zm-8.3 4.4h-2.8l2.86-3.5v3.6zm-5.1 0l-3.1-3.8h7.8l-3.03 3.8h-1.6zm-3.5 0V222l2.9 3.6h-2.9zm-.3-3.8v3.8h-4.9V220h8.87v.8h-3.8v.6zm17.4-22.8v-10l4 5-4 5zm.4.2l3.9-4.8 3.98 4.9h-7.7zm.08.6h7.8l-3.9 4.8-3.9-4.8zm-.4 10.2V200l4 4.98-4 5zm.4.3l3.9-4.9 3.9 4.9h-7.9zm.05.6h7.7l-3.9 4.8-3.9-4.7zm2.3 7.3l1.5-1.8 1.5 1.9h-2.9zm-1.75 2.2h6.5l.7.9h-7.9l.7-.9zm-1.06-2.2v-7.2l4 5-1.78 2.2H1268zm.44 2.2l-.47.6v-.6h.5zm7.73-31.5l-3.9 4.8-3.9-4.8h7.8zm-33.3-57.9h2.1v-5.4h-2.1v5.4zm0 5.9h2.1V131h-2.1v5.5zm0 5.8h2.1V137h-2.1v5.5zm0 5.8h2.1v-5.4h-2.1v5.5zm0 5.9h2.1v-5.4h-2.1v5.5zm0 5.9h2.1v-5.5h-2.1v5.5zm0 5.8h2.1V160h-2.1v5.5zm0 5.8h2.1V166h-2.1v5.5zm0 5.8h2.1V172h-2.1v5.5zm0 5.8h2.1v-5.5h-2.1v5.5zm0 1.8h2.1v-1.4h-2.1v1.5zm2.1 4.1h-.5v-1h-1.5v-.8h2.1v1.8zm-.5 5.8h.5V189h-.6v5.5zm.5 5.8h-.6V195h.6v5.5zm-.6 5.9h.6V201h-.6v5.5zm.6 5.8h-.6v-5h.5v5.5zm-.6 5.6h.5v-5.3h-.6v5.2zm.5 6h-.6v-4h.5v3.9zm-.6 1.4h.5v-1h-.6v1zm-.3-36.3h-.1l.1-.1v.1zm0 5.9h-1.3v-4.4l.8-1h.4v5.5zm0 3.9l-1.3-1.5v-2h1.2v3.5zm0 2h-.7l.6-.8v.8zm0 5.8h-1.3v-5.1l.3-.4h.9v5.5zm0 3.2l-1.3-1.5v-1h1.2v2.8zm0 2.6h-1.2l1.2-1.5v1.5zm-1.3 5.6h1.2v-5.3h-1.2v5.3zm1.2 2.7l-.4-.5h.4v.5zm0 3.3h-1.2v-.6l1.2-1.5v2.2zm-1.2 1.4h1.2v-1h-1.2v1zm0-3.7h.8l-.8 1v-1zm0-1.5h.2l.7.9h-.9v-.9zm0-9.5h.8l-.9 1.1v-1zm0-1.7l.9 1.2h-.9v-1zm0-9.2h.9l-.9 1.1v-1.03zm0-1.7l.9 1.1h-.9v-1zm0-8.52h.3l-.3.36v-.3zm0-.75h.9l-.4.4h-.6v-.42zm-4-57.9h3.3v-6h-3.3v5.46zm0 5.8h3.3V131h-3.3v5.45zm0 5.86h3.3V137h-3.3v5.5zm0 5.8h3.3V143h-3.3v5.5zm0 5.8h3.3v-5.5h-3.3v5.5zm0 5.8h3.3v-6h-3.3v5.5zm0 5.9h3.3v-6h-3.3v5.5zm0 5.8h3.3V166h-3.3v5.5zm0 5.8h3.3V172h-3.3v5.5zm0 5.86h3.3v-5.5h-3.3v5.5zm0 1.8h3.3v-1.5h-3.3v1.5zm1.7 3h1.6v-.8h-1.6v.8zm-1.7 1h3.3v-.4h-3.3v.4zm3.3 1.5l-2.3 2.9-1-1.2V189h3.3v1.2zm0 4.3h-1.2l-.9-1 2-2.56v3.6zm0 1.5l-.9-1.1h.9v1zm0 2.7h-3.3v-3.6l.2-.2h1.6l1.5 1.8v2zm-3.3 1.7h3.3v-1.1h-3.3v1.1zm3.3.8l-2.3 2.9-1-1.3v-2h3.3v.5zm0 4.94h-.7l-1.4-1.7 2.1-2.5v4.3zm0 .8l-.4-.4h.3v.5zm0 2.8h-3.3v-3h2.4l.9 1.2v2zm-3.3 2.3h3.3v-1.7h-3.4v1.7zm3.3 5.7h-.3l-1.8-2.2 2.1-2.5v4.7zm-3.4 3.1h3.3v-.9h-3.3v.8zm3.3 2.5l-.4.5h-2.9V222h3.4v1.9zm0 1.8h-.9l.8-1h.1v1zm-3.2 0l-.2-.2v-.8h2.6l-.8 1h-1.7zm-.2-8l1-1.2 1.5 1.9h-2.5v-.6zm0-2.5l.7.9-.7.9v-2zm0-2.2h3.2l-2.2 2.7-1-1.27v-1.45zm0-6.3l1-1.3 1.1 1.4h-2.1v-.1zm0-2.5l.7.9-.7.9v-2zm1-9.77l.5.7h-1.1l.5-.7zm-1-1.23l.7.9-.7.9v-2zm0-4.9h.3v-.8h-.3v.8zm-.7-57.3h-1.9v-5.5h1.9v5.5zm-2 5.8h1.9V131h-1.9v5.5zm0 5.8h1.9V137h-1.9v5.5zm0 5.8h1.9v-5h-1.9v5.5zm0 5.8h1.9v-5.5h-1.9v5.5zm0 5.8h1.9v-5.5h-1.9v5.5zm0 5.86h1.9V160h-1.9v5.5zm0 5.8h1.9V166h-1.9v5.5zm0 5.8h1.9V172h-1.9v5.5zm0 5.8h1.9v-5h-1.9v5.5zm0 1.8h1.9v-1.42h-1.9v1.5zm0 3h1.9v-.8h-1.9v.8zm1.9 1h-1.8l-.1-.1v-.3h1.9v.4zm0 2.38l-1.6-2h1.6v2zm0 3.5h-1.9v-5.3l1.9 2.5v2.8zm0 .7l-2 2.4v-3h1.9v.36zm0 3.4h-1.9v-.3l1.9-2.4v2.8zm0 1.7h-1.2l-.7-.8v-.3h1.9v1.1zm0 1.7l-1-1.3h1v1.3zm0 4.16h-1.9V201h.3l1.6 2v3.46zm0 3.5h-1.9v-.37l1.9-2.47v2.8zm0 2.3h-.8l-1.2-1.5v-.27h1.9v1.7zm0 1l-.5-.6h.5v.6zm0 4.2l-.4.5h-1.6v-5h.9l1 1.3v3.5zm0 3.6h-1.9v-.3l.4-.5h1.5v.8zm0 3h-.2l-1.7-2.1v-.2h1.9v2.4zm0 1.4h-1.9v-1h1.4l.6.7v.3zm-2-2.8l1.1 1.5h-1.1v-1.4zm0-11l.6.75h-.6v-.8zm0-4.7h1.7l-1.7 2.1v-2zm0-6.3v.1-.1zm-3.7-70.7h2v-4.6h-2v4.6zm-3.6 0h2v-4.6h-2v4.6zm-3.66 0h2v-4.6h-2v4.6zm-3.6 0h2v-4.6h-2v4.6zm-3.6 0h2v-4.6h-2v4.6zm-3.6 0h2v-4.6h-2v4.6zm-3.6 0h2v-4.6h-2v4.6zm-3.6 0h2v-4.6h-2v4.6zm-1.6 82.56h-4.5v-40.8h-3.4v-1.1h7.9v41.9zm-4.8-30.1l-3.1-3.9v-2.1l3.1-3.84v9.8zm0 11l-3.1-3.9v-2.1l3.1-3.8v9.8zm0 11l-3.1-3.9v-2.2l3.1-3.8v9.8zm0 8.1h-2.3l-.8-1v-2.2l3.1-3.8v7zm-3.1 0v-.3l.2.3h-.2zm-.5-133.8l-6.3-4.2V73l6.3-4.3v9.86zm0 11l-6.3-4.2V84l6.3-4.2v9.8zm0 11l-6.2-4.2V95l6.3-4.22v9.82zm0 11l-6.2-4.2V106l6.3-4.26v9.8zm0 11.1l-6.2-4.24V117l6.3-4.3v9.9zm0 11l-6.2-4.3V128l6.3-4.27V134zm0 10.97l-6.2-4.2v-1.3l6.3-4.2v9.8zm0 11l-6.2-4.2v-1.3l6.3-4.2v9.8zm0 11.1l-6.2-4.2v-1.34l6.3-4.2v9.8zm0 1.6h-.6l.6-.4v.4zm0 7.97l-.6.8-3.9-4.8h4.5v4.1zm0 1.5l-.1-.03-.2-.3.3-.4v.7zm0 4.9h-4.5l1.1-1.4 3.4-2.3v3.7zm0 4.67l-.6.7-3.86-4.85h4.5v4.1zm0 1.4l-.1-.1-.2-.3.3-.4v.7zm0 4.9h-4.5l1.2-1.5 3.4-2.3v3.7zm0 4.6l-.6.7-3.85-4.8h4.5v4.07zm0 1.4l-.1-.1-.2-.2.3-.4v.7zm0 4.96h-4.56l1-1.2 3.6-2.5v3.7zm0 4.6l-.6.8-3.8-4.8h4.45v4zm0 1.5l-.3-.4.3-.4v.8zm0 1.7h-.7l.7-.4v.42zm-.9-1.3l.1-.2.2.2h-.34zm-1.1 1.3l.6-.7h.7l-1.04.7h-.2zm-2.9 0v-.7h2.95l-.6.7h-2.3zm0-38v-1.98l3.54 4.3-3.6-2.4zm3.5 3.7h-3.5v-3l3.8 2.5-.36.4zm-3.5 3.5V179h3l-1.5 1.85-1.5 1zm0 .9v-.2l.2-.2-.2.3zm0 3v-2l3.5 4.4-3.5-2.4zm3.4 3.7h-3.4v-3l3.8 2.6-.4.4zm-3.4 3.4V190h2.94l-1.5 1.8-1.5 1zm0 .9v-.2l.2-.14-.26.3zm0 3v-2l3.5 4.4-3.5-2.4zm3.4 3.7h-3.4v-3l3.8 2.5-.4.4zm-3.4 3.5v-3h3l-1.6 2-1.38.9zm0 .7l.1-.06-.1.1zm3.8 6.4l-.3.4h-3.4v-2.9l3.7 2.5zm-3.7-3.27v-2.1l3.7 4.6-3.7-2.5zm4-7.4l.1-.16.22.18h-.4zm.3.6l-1.7 1.15.9-1.1h.7zm-.3-11.6l.1-.15.2.2h-.36zm.2.6l-1.4.95.7-.9h.63zm-.2-11.6l.1-.1.2.1h-.3zm.2.6l-1.4 1 .8-.96h.64zm-4.5-6.4v2l-1-.7v-1.37l2.4-1.6h2.5v1.1h-3.9v.6zm0 5.9h-1v-3.9l1 .7v3.2zm0 3.6l-1 .7V179h1v3zm0 .9v2.6l-1-.7v-1.3l1-.7v.16zm0 6.5h-1v-3.9l1 .7v3.2zm0 3.65l-1 .7V190h1v3zm0 .9v2.57l-1-.7v-1.3l1-.7v.2zm0 6.5h-1v-3.9l1 .7v3.2zm0 3.7l-1 .7v-4h1v3.1zm0 .8v2.67l-1-.7v-1.3l1-.7v.1zm0 6.5h-1v-3.8l1 .7v3.1zm-1 1.3h1v-.7h-1v.77zm0-41.9h1.4l-1.4.96v-.9zm0-2.83h5.6l-1 .7h-4.6v-.6zm0-4.4l5.65 3.9h-5.7v-3.85zm0-6.5h5.6l-5.6 3.8v-4zm0-4.5l5.8 3.9h-5.8v-3.9zm0-6.5h5.5l-5.5 3.7V146zm0-4.5l5.7 3.9h-5.7v-3.9zm0-6.6h5.55l-5.5 3.7V135zm0-4.5l5.7 3.9h-5.7v-3.9zm0-6.5h5.6l-5.6 3.8V124zm0-4.4l5.65 3.8h-5.7v-3.8zm0-6.6h5.6l-5.6 3.8V113zm0-4.5l5.8 3.9h-5.8v-3.9zm0-6.5h5.5l-5.5 3.7V102zm0-4.5l5.7 3.9h-5.7v-3.9zm0-6.56h5.55l-5.53 3.8V91zm0-4.4l5.7 3.8h-5.7v-3.9zm0-6.6h5.6l-5.6 3.8V80zm0-4.4l5.65 3.8h-5.7v-3.9zm0-6.6h5.6l-5.6 3.8V69zm6.8 136.6h2.7l-2.7 3.35v-3.4zm0-4.05l2.8 3.5h-2.8v-3.5zm0-7h2.7l-2.7 3.3v-3.33zm0-4.1l2.8 3.5h-2.8v-3.5zm0-6.94h2.7l-2.7 3.4v-3.4zm0-4l2.75 3.4h-2.73v-3.4zm0-7h2.7l-2.7 3.4v-3.4zm-9.8-99.6l-5.5-3.7h5.5V73zm0 2.2l-6.2 4.2V69l6.24 4.24v1.5zm0 4.5h-5.5l5.52-3.8v3.77zm0 4.3l-5.5-3.7h5.4V84zm0 2.2l-6.2 4.2V80l6.24 4.25v1.5zm0 4.5h-5.6l5.6-3.8v3.8zm0 4.25l-5.4-3.7h5.42v3.7zm0 2.2l-6.2 4.25V91l6.24 4.23v1.5zm0 4.53h-5.6l5.6-3.8v3.8zm0 4.23l-5.4-3.7h5.4v3.7zm0 2.2l-6.2 4.3v-10l6.24 4.3v1.5zm0 4.6h-5.6l5.64-3.8v3.9zm0 4.4l-5.5-3.7h5.5v3.7zm0 2.2l-6.2 4.3V113l6.24 4.24v1.5zm0 4.5h-5.5l5.52-3.7v3.73zm0 4.3l-5.5-3.7h5.4v3.7zm0 2.2l-6.2 4.3v-10l6.24 4.2v1.5zm0 4.5h-5.6l5.6-3.8v3.8zm0 4.3l-5.4-3.7h5.42v3.7zm0 2.2l-6.2 4.3v-10l6.24 4.2v1.5zm0 4.53h-5.6l5.6-3.8v3.8zm0 4.25l-5.4-3.6h5.4v3.7zm0 2.2l-6.2 4.3v-10l6.24 4.24v1.5zm0 4.6h-5.6l5.64-3.8v3.84zm0 4.3l-5.5-3.7h5.5v3.7zm0 2.2l-6.2 4.3v-10l6.24 4.3v1.5zm0 4.5h-5.5l5.52-3.7v3.8zm0 1.3h-4.5l-1-.7h5.4v.7zm0 3l-1.2-.8h1.22v.8zm0 2.2l-6.2 4.3V171h4l2.3 1.6v1.5zm0 4.5h-5.6l5.6-3.74v3.8zm0 4.3l-5.4-3.7h5.42v3.7zm0 2.2l-3.95 2.7h-2.3v-9l6.3 4.24v1.5zm0 2.7h-2.9l2.9-1.9v2zm-6.2-19.4l.7.5h-.7v-.6zm-.5 10.3v9.2h-1.66v-17h1.66v7.6zm-20.5 9.2h9.5v-17h-9.5v16.7zm-4.4-18.9h-5.1v-62c0-4.2-1.5-7.8-3.9-10.1v-2.3h-.5v-6.1h-3.9c.6-2.87 2.6-4.9 5-4.9h3.2c2.9 0 5.22 3 5.22 6.8v78.1zm-2.2 3.3h2.2V171h-2.2v1.1zm-2.9 0h1.4V171h-1.4v1.1zm5.1 1.8l-3 3.6-2.2-2.6V173h5v1.2zm0 7.2h-.1l-2.6-3.2 2.6-3.3v6.4zm-5.1-.9V176l1.8 2.3-1.9 2.3zm0 .8v-.2l2.1-2.6 2.2 2.8h-4.4zm-5.7-86.2h1v-6h-1.1V95zm-1.3 0h1.1v-6h-1.1V95zm-.2 0h-1v-6h1V95zm-1.3-.1l-.3-.1V91c0-.55.1-1.1.2-1.6h.16V95zm-4.7-4.1v-2h.1c-.1.5-.1 1.03-.1 1.6zm-.2 3.92c-.34 0-.7.1-1.03.13v-6h1.1v5.6zm-1.2.2h-1v-6h1.07v5.73zm-2.3 0h1v-6h-1V95zm-1.3 0h1.1v-6h-1V95zM1124 5h1.55V.35H1124V5zm-2.84 0h1.56V.35h-1.56V5zm-2.83 0h1.55V.35h-1.55V5zm-2.83 0h1.55V.35h-1.55V5zm-2.84 0h1.55V.35h-1.5V5zm-2.84 0h1.56V.35h-1.56V5zM1107 5h1.54V.35H1107V5zm-2.85 0h1.56V.35h-1.5V5zm-5.5 175.74h-8.1v-42.57h-3.83v-1h-1.42v1h-3.9v42.56h-24.7v-42.57h-3.86v-1h-1.43v1h-3.8v42.56h-3.3l-9.2-43.66h64.6l-1 43.66zm-8.4-31.87l-3.95-4.9 3.95-4.92v9.82zm0 10.98l-3.95-4.9 3.95-4.9v9.8zm0 11l-3.95-4.92 3.95-4.9v9.8zm0 9.9h-.87l-3.08-3.84 3.95-4.9v8.8zm-7.03 0l2.8-3.48 2.8 3.47h-5.6zm2.5-14.82l-4 5v-10l4 5zm0-11l-4 5v-9.97l4 4.98zm0-10.97l-4 5v-10l4 5zm-3.6-5.2h7.8l-3.9 4.85-3.9-4.8zm-.02 10.42l3.9-4.86 3.93 4.86h-7.83zm.04.6h7.75l-3.9 4.8-3.9-4.8zm-.06 10.4l3.93-4.88 4 4.9h-7.8zm.08.6h7.7l-3.85 4.8-3.8-4.8zm7.7 11l-3.85 4.77-3.8-4.76h7.7zm-7.8-.58l3.95-4.92 4 4.92h-7.9zm-.35 9.54v-8.82l4.1 5-3.1 3.82h-.9zm-25.3-31.87l-3.9-4.9 4-4.92v9.82zm0 11l-3.9-4.93 4-4.9v9.82zm0 10.97l-3.9-4.9 4-4.92v9.82zm0 9.9h-.8l-3.1-3.83 4-4.9v8.8zm-7 0l2.8-3.47 2.8 3.47h-5.6zm2.5-14.8l-4 4.97V161l4 5zm0-11l-4 5v-9.98l4 4.98zm0-10.98l-4 5v-9.98l4 4.98zm-3.6-5.2h7.8l-3.9 4.85-3.9-4.8zm0 10.42l3.9-4.86 3.9 4.86h-7.8zm.1.6h7.8l-3.8 4.8-3.8-4.8zm0 10.4l4-4.88 4 4.9h-7.8zm.1.6h7.7l-3.8 4.8-3.8-4.8zm7.7 11l-3.8 4.77-3.8-4.76h7.7zm-7.8-.58l4-4.9 4 4.9h-7.9zm-.3 9.54v-8.82l4 5-3.1 3.82h-.9zm-17.8-50.7h2.9v-4.54h-2.9v4.53zm-3.5 0h2.9v-4.54h-2.8v4.53zm-3.5 0h2.9v-4.54h-2.9v4.53zm-1.6 0h1v-4.54h-.9v4.53zm-.5-30.6l-6.2-4.23v-1.3l6.3-4.2v9.8zm0 11l-6.2-4.25v-1.4l6.3-4.3v9.8zm0 10.97l-6.2-4.2v-1.3l6.3-4.2v9.8zm0 3.4h-3.2l3.2-2.2v2.2zm-1.3 5.3h1.4v-4.5h-1.3v4.6zm-.6 0h-1.5l-1.4-.9V126l.6-.4h2.3v4.52zm-2.9 0v-.2l.4.3h-.3zm-1.3-5.2v-2.4h5.5l-3.5 2.4h-2zm.7.9l-.7.5v-.6h.7v.2zm0 3l-.7-.4V127l.7-.44v2.3zm0 1.5h-.7V129l.7.46v.7zm-.7-12.1l5.7 3.9h-5.7v-4zm0-6.5h5.6l-5.5 3.8v-3.8zm0-4.4l5.7 3.9h-5.7v-4zm0-6.5h5.6l-5.6 3.8v-3.7zm0-4.5l5.7 3.8h-5.7v-4zm0-6.6h5.6l-5.6 3.8v-3.8zm-3.1 3.7l-5.5-3.7h5.5v3.7zm0 2.2l-6.2 4.3v-10l6.2 4.3v1.5zm0 4.5h-5.5l5.6-3.8v3.8zm0 4.3l-5.4-3.7h5.5v3.7zm0 2.2l-6.2 4.3V101l6.2 4.24v1.5zm0 4.5h-5.6l5.6-3.8v3.8zm0 4.3l-5.4-3.7h5.5v3.7zm0 2.2l-6.2 4.3V112l6.2 4.2v1.5zm0 4.6h-5.6l5.6-3.8v3.8zm0 3h-1.9l-3.5-2.4h5.4v2.4zm0 1.2l-.7-.5h.8v.6zm0 2.3l-2.6 1.8V126h.8l1.9 1.27v1.5zm0 1.8h-1.6l1.6-1.1v1.1zm-3.2-5.3h-3v-2.3l3.3 2.3h-.4zm-2.9 5.3h2.9V126h-2.9v4.57zm-3.5 0h2.9V126h-2.9v4.57zm-3.5 0h2.8V126h-2.8v4.57zm-3.6 0h2.9V126h-3v4.57zm-.7 0h-.4l-.1-4.5h.6v4.6zm-4.4-90.9h1V36h-1v3.1zm-1.9 0h1V36h-1v3.1zm-1.8 0h1V36H986v3.1zm-1.9 0h1V36h-1v3.1zm-1.9 0h1V36h-1v3.1zm-1.9 0h1V36h-1v3.1zm-1.9 0h1V36h-1v3.1zm-1.9 0h1V36h-1v3.1zm-3 87.5V126v1.1zm-3.6 3.5h2.8V126h-3v4.54zm-3.5 0h2.9V126h-2.9v4.54zm-3.5 0h2.8V126h-3v4.54zm-9.3 42.2l-6.8 33v-106c0-4.2-2-7.9-5.2-10.3V87h-.7v-6.2H936c.84-2.9 3.5-5 6.7-5h4.23a6.97 6.97 0 0 1 7 6.97v89.9zM939.4 87h1.4v-6h-1.4v5.9zm-1.63 0h1.4v-6h-1.4v5.9zm-.26 0H936a.2.2 0 0 0-.1 0v-6h1.4v5.9zm-1.6-.05l-.4-.08v-4.2c0-.6.1-1.17.2-1.7h.2v5.8zm-6.3-4.2V81h.1c-.1.55-.1 1.1-.1 1.66zm-.3 4.05l-1.4.2v-6h1.4v5.7zm-1.6.2H926v-6h1.4v5.9zm-3 0h1.4v-6h-1.4v5.9zm-1.6 0h1.4v-6H923v5.9zm-10.2 18h4.1v-2.36h-4.1V105zm0 2.7h4.1V105h-4.1v2.35zm0 2.6h4.1v-2.35h-4.1v2.3zm0 2.66h4.1v-2.4h-4.1v2.37zm0 2.64h4.1V113h-4.1v2.35zm0 2.64h4.1v-2.4h-4.1v2.3zm0 2.6h4.1v-2.35h-4.1v2.3zm0 2.7h4.1V121h-4.1v2.34zm0 2.63h4.1v-2.33h-4.1v2.3zm0 2.7h4.1V126h-4.1v2.37zm0 2.65h4.1V129h-4.1v2.3zm0 2.64h4.1v-2.34h-4.1v2.3zm0 2.7h4.1V134h-4.1v2.37zm0 2.63h4.1V137h-4.1v2.3zm0 2.7h4.1v-2.4h-4.1v2.3zm0 2.6h4.1v-2.3h-4.1v2.4zm0 2.7h4.1V145h-4.1v2.4zm0 2.6h4.1v-2.3h-4.1v2.3zm0 2.7h4.1V150h-4.1v2.34zm0 2.6h4.1V153h-4.1v2.3zm0 2.6h4.1v-2.4h-4.1v2.4zm0 2.6h4.1V158h-4.1v2.35zm0 2.6h4.1v-2.4h-4.1v2.3zm0 2.6h4.1v-2.4h-4.1v2.3zm2.1 24.9h1.7v-3.1H915v3.1zm-2.1 0h1.7v-3.1h-1.7v3.1zm-2.1 0h1.7v-3.1h-1.7v3.1zm-2.1 0h1.7v-3.1h-1.7v3.1zm-2.1 0h1.7v-3.1h-1.7v3.1zm-2 0h1.7v-3.1h-1.7v3.1zm-2.1 0h1.7v-3.1h-1.7v3.1zm-2.1 0h1.7v-3.1h-1.7v3.1zm-2.1 0h1.7v-3.1h-2v3.1zm-2.1 0h1.7v-3.1H896v3.1zm-2.1 0h1.7v-3.1h-1.7v3.1zm-2.1 0h1.7v-3.1H892v3.1zm-2.1 0h1.7v-3.1h-1.7v3.1zM874.4 257a5.9 5.9 0 0 0-.5 0h-11v-5a5.9 5.9 0 0 1 5.87-5.9h.18a2.62 2.62 0 0 0 2.62 2.57h4.62l-1.9 8.2zm-1.03 4.57H862.9v-2.02h10.9l-.45 2.05zm-17.3 0H858v-2.02h-1.94v2.05zm-1.13-57.4h1v-2h-1v2zm0 2.3h1v-1.98h-1v2zm0 2.3h1v-2h-1v2zm0 2.27h1v-2h-1v2zm0 2.28h1v-2h-1v2zm0 2.28h1v-2h-1v2zm0 2.28h1v-2h-1v2zm0 2.28h1v-2h-1v2zm0 2.3h1v-2h-1v2zm0 2.3h1v-2h-1v2zm0 2.3h1v-2h-1v2zm0 2.26h1v-2h-1v2zm0 2.28h1v-2h-1v2zm0 2.28h1v-2h-1v2zm0 2.3h1V234h-1v2zm0 2.3h1v-2h-1v2zm0 2.27h1v-2h-1v2zm0 2.3h1v-2h-1v2zm0 2.26h1v-2h-1v2zm0 2.3h1v-2h-1v2zm0 2.3h1v-2h-1v2zm0 2.3h1v-2h-1v2zm0 2.3h1v-2h-1v2zm0 2.3h1v-2h-1v2zm0 .5h1v-.2h-1v.2zm0 4.6h1v-2h-1v2.1zm-.1-57.4h-1.17v-2h1.14v2zm-1.17 2.3h1.14v-1.9h-1.2v2zm0 2.3h1.14v-2h-1.2v2zm0 2.3h1.14v-2h-1.2v2zm0 2.3h1.14v-2h-1.2v2zm0 2.3h1.14v-2h-1.2v2zm0 2.3h1.14v-2h-1.2v2zm0 2.3h1.14v-2h-1.2v2zm1.14 2.3h-1.2v-2h1.1v2zm-1.2 2.3h1.1v-2h-1.1v2zm0 2.3h1.1v-2h-1.1v2zm0 2.3h1.1v-2h-1.1v2zm0 2.3h1.1v-2h-1.1v2zm0 2.3h1.1v-2h-1.1v2zm0 2.3h1.1v-2h-1.1v2zm0 2.3h1.1v-2h-1.1v2zm0 2.3h1.1v-2h-1.1v2zm1.1 2.3h-1.1v-2h1.2v2zm-1.1 2.3h1.2v-2h-1.1v2zm0 2.3h1.2v-2h-1.1v2zm0 2.3h1.2v-2h-1.1v2zm0 2.3h1.2v-2h-1.1v2zm0 2.3h1.2v-2h-1.1v2zm0 2.3h1.2v-2h-1.1v2zm0 .5h1.2v-.2h-1.1v.2zm1.2 4.6h-58.1V260h10.2v1.8h5.1V260h11.7c.1.5.5.9 1.1.9h2.5c.5 0 1-.4 1.1-.9h7.9v1.8H854V260h1.2v2zm-47.9-2.2h1.2l-1.1 1.3V260zm0-3.6l1 1.1h-.9v-1.1zm.2-.4l1.4-1.6v1.6h-1.4zm1.4 4.1v1.5h-1.4l1.3-1.5h.1zm-.2-2.5l-1.1-1.2h1.4v1h-.3zM807 251l1.6 1.7v1.4l-1.5 1.8v-5zm1.6-.2v1.5l-1.3-1.57h1.4zm-1.3-.3l1.4-1.6v1.5h-1.4zm-.2-5.2l1.6 1.8v1.4L807 250v-5zm1.6-.2v1.5l-1.3-1.53h1.4zm1.6 14.9h.1l1.3 1.5h-1.3V260zm0-3.8h1.4l-1 1.1h-.2V256zm0-1.9l1.4 1.54h-1.3V254zm1.6 5.6v1.3l-1.2-1.34h1.2zm-1-2.53l1-1.15v1h-1zm-.5-4.9l1.6-1.8v5.03l-1.53-1.8v-1.47zm0-1.9h1.4l-1.36 1.5v-1.5zm0-1.88l1.4 1.5h-1.35v-1.5zm0-1.8l1.6-1.8v5l-1.53-1.8v-1.5zm0-1.9h1.4l-1.35 1.5V245zm26.1-42.7h1.5v-2.4h-1.43v2.4zm.3 18.9v-17.4l5.5 6.2v4.9l-5.44 6.2zm.6.5l4.9-5.5v5.5h-4.8zm.1 1h4.8v5.4l-4.7-5.5zm-.7 17.8V223l5.5 6.2v4.9l-5.5 6.22zm.6.6l4.9-5.6v5.5h-4.9zm.2 1h4.7v5.4l-4.7-5.4zm-.6 17.7l-.1.1v-.1h.1zm2.2-2.6h-2.35v-14.7l5.5 6.2v4.9l-3.1 3.6zm3.1 2.5v.7h-4.9l.65-.8h4.3zm-2-2.6l2-2.3v2.3h-2zm2-54.1v5.5l-4.8-5.5h4.8zm-4-1.1h1.44v-2.4H838v2.4zm1.7 0h1.47v-2.4H840v2.4zm1.76 0h.57v-2.4h-.53v2.4zm6.1 57.6H852l.65.7h-4.76v-.8zm0-4.7l1.9 2.1h-1.9v-2zm5.5 4.7v.2l-.2-.3h.2zm-5.46-11.2l5.5-6.2V257h-2.5l-3-3.42v-5.2zm0-6.5h4.6l-4.6 5.2v-5zm0-6.5l4.75 5.4h-4.8v-5.4zm0-6.5l5.5-6.2v17.6l-5.5-6.2v-5zm0-6.5h4.64l-4.65 5.3v-5.3zm0-6.4l4.7 5.3h-4.7V216zm0-6.5l5.5-6.2V221l-5.5-6.2v-5.2zm0-6.6h4.7l-4.7 5.3V203zm0-1h.55v-2.4h-.6v2.4zm.84 0h1.4v-2.4h-1.5v2.4zm1.73 0h1.5v-2.4h-1.44v2.4zm1.8 0h1.44v-2.4H852v2.4zm-58.76 55h-8.9V254h7.5c.5 0 1 .2 1.4.5v2.4zm-8.9 4.5h8.9v-2h-8.9v2.1zm-4.7 4h-10.1v-13.7h10.1v13.7zm-10.1 4.9h7.7V269h-7.7v1.3zm-28.4-8.6h7.7v8.6h-8v-8.6zm-2.4-17.2h13.6V258h-1.1v-7.6h-.5V249h-.2v1.4h-.4V249h-.2v1.4h-.4V249h-.1v1.4h-.5v7.6H739v-13.6zm18.3 25.7h4.2V269H757v1.3zm0-6.5l2.1-2.1h4.5v3.8H757v-1.7zm0-17.1h8.9v3.9h-.5V249h-.1v1.4h-.4V249h-.1v1.4h-.5V249h-.1v1.4h-.5v3.9h-.6v1.1h-6v-8.9zM736.6 258h-8.2l1.6-1.6 6.6-6.6v8.2zm-2.4 12.1h-2V269h-1.4v-1.4h-1.4v-1.4H728v-1.43h-1.5v-1.4H725v-1.47h8.87v8.57zm-8.9 0v-4.9l5.1 5H725zM699 145.4a2 2 0 0 0 1-.6l-.5-.5a2.2 2.2 0 0 1-.9.55h-.1a2.17 2.17 0 0 1-.9 0l-.2-.04a2.1 2.1 0 0 1-.9-.6l-.5.6c.34.3.74.5 1.2.7l-4.2 33.4h-31.5l-3.8 3.4v-1l3.8-3.3.04.1v-.1h-3.86v-1l38.7-34.2v.1a1.68 1.68 0 0 0 3.3 0c0-.1 0-.2-.04-.3l53.2 36.5h-36.9l-9.2 9.6h-.7v-.9h-.2l-6.8-42.1zm5.5 42.1v1a.3.3 0 0 0-.2.1l-4.5-6.03V181l3.3-4.43 1.8 11h-.26zm0 15.9a.3.3 0 0 0-.3.2l-4.4-5.2v-1.2l4.5-5.2c.07.06.15.13.26.13h.1v11.3zm0 14.87a.3.3 0 0 0-.2.2l-4.5-5.2V212l4.47-5.2c.1.1.2.2.3.2h.1v11.27zm0 14.7c-.1 0-.2.1-.3.2l-4.4-5.1v-1.3l4.46-5.2a.3.3 0 0 0 .3.2h.1V233zm0 14.9c-.1 0-.2.1-.3.2l-4.4-5.2v-1.3l4.5-5.2c.06.1.14.1.26.1h.1v11.22zm0 6.9H701l3-3.5c.1.1.2.2.3.2h.1v3.3zm-7.3 0l-3.6-4.2v-.6H704v.6l-3.6 4.2H697zm-4 0v-3.3h.1c.16 0 .2-.1.3-.2l3 3.5H693zm4.8-73.7v1.5l-4.5 6.1a.3.3 0 0 0-.2-.1h-.1v-.9h-.25l1.4-11.5 3.7 5zm-4.4 9v-.8l4.6-6.1c.03 0 .06.1.1.1h1.36l4.6 6.1v.8h-10.6zm6.07 6.5s-.03-.1-.1-.1H698c-.05 0-.1.1-.14.1l-4.53-5.3v-.7h10.54v.7l-4.52 5.27zm-6 8.4v-.7l4.5-5.2c0 .07.1.1.1.1h1.3a.2.2 0 0 0 .1-.05l4.5 5.3v.7h-10.6zm5.9 6.3H698a.2.2 0 0 0-.13.1l-4.56-5.3v-.6h10.6v.6l-4.5 5.24h-.1zm-5.9 8.6v-.7l4.5-5.25c.07.1.1.1.17.1h1.24c.1 0 .1 0 .1-.04l4.6 5.3v.7h-10.5zm5.9 6.24H698a.2.2 0 0 0-.15.1l-4.5-5.2v-.6h10.57v.6l-4.5 5.3h-.12zm-5.9 8.4v-.5l4.54-5.2a.2.2 0 0 0 .1.1h1.4l4.5 5.2v.5h-10.5zm6.06 6.5a.17.17 0 0 0-.1 0H698a.2.2 0 0 0-.13 0l-4.56-5.3v-.9h10.6v.8l-4.6 5.3zm-6 7.8l4.5-5.2.1.1h1.28a.2.2 0 0 0 .1 0l4.6 5.2v.7h-10.5v-.6zm-.35-12.2c.13 0 .2-.1.26-.2l4.5 5.2v1.2l-4.45 5.2c-.1-.1-.2-.2-.3-.2h-.1v-11.3zm0-14.7a.3.3 0 0 0 .3-.2l4.47 5.2v1.2l-4.5 5.2a.28.28 0 0 0-.3-.2h-.1V222h.1zm-.07-18.4V192h.1c.1 0 .2-.06.3-.14l4.5 5.22v1.2l-4.5 5.2a.3.3 0 0 0-.2-.17h-.1zm.1 3.6a.3.3 0 0 0 .3-.2l4.5 5.2v1.2l-4.5 5.2a.3.3 0 0 0-.3-.1h-.1V207h.1zm9.6-31.7l.1.6-3.4 4.6H698l-3.8-5.1v-.1h8.43zm-4.6-8.2h.7l3.8 6.9.1.7h-8.2l.1-.1 3.7-7.5zm-.5-2.3v2.1c0 .1.1.2.2.2l-3.2 6.5L696 162l1.56 3zm3.1-2.9l1.7 11-3.2-5.9a.2.2 0 0 0 .1-.2v-2.2l1.4-2.7zm-4.5-1.4l1.9-14.9 2.4 14.9H696zm4.4.5v.3l-1.5 3.1H698l-1.74-3.2v-.2h4.4zm-8.7 26.5h-.3v1H690l-8.3-8.6H693l-.96 7.7zm-.3 15.9h-.1a.32.32 0 0 0-.3.3v3c0 .2.1.3.3.3h.1v11.3h-.1a.3.3 0 0 0-.3.3v2.9c0 .2.1.3.3.3h.1v11h-.1a.32.32 0 0 0-.3.3v2.9c0 .2.1.3.3.3h.1v11.3h-.1a.32.32 0 0 0-.3.3v2.9c0 .1.1.3.3.3h.1v3.3H683V205h-25.4v-6h3.9v-1.6h-3.83v-.7h3.7v-1.6h-3.8v-.7h3.8V193h-3.82v-.7h3.8v-1.6h-3.84v-.8H691v1.7c0 .1.14.3.3.3h.1v11.3zm-12-23.5h.6l8.3 8.6h-17.2l8.3-8.6zm-9 8.6h-.3l-8.3-8.6h17l-8.3 8.7zm-13.6-.7h3.9V181l-3.8 3.46v-1.04l3.9-3.52h.4l8.3 8.64h-12.7v-.76zm40.3-45.8a.86.86 0 1 1 0 1.8.86.86 0 0 1 0-1.7zm92.2 37h-36.4l-53-36.3 89.4 36.3zm-7.9 9.6h-.3l-8.6-8.9h17.5l-8.6 8.95zm19 0h-18.2l8.6-8.8 9.8 8.85zm-37.1 0l8.6-8.9 8.6 9h-17.2zm-1 0l-8.6-9h17.6l-8.7 9h-.3zm-17.8 0l8.6-8.9 8.6 8.9H745zm-1 0l-8.6-8.9H753l-8.6 8.97h-.3zm-17.8 0l8.6-8.9 8.6 8.9H726zm-1 0l-8.6-8.9H734l-8.6 8.97h-.4zm-17.9 0l8.6-8.9 8.7 9H707zm-.9 15.2a.3.3 0 0 0-.3-.3h-.1v-11.3h.1a.3.3 0 0 0 .3-.3v12zM515.6 228h8.9v-8.9h-8.9v8.9zm0 15h8.9v-8.9h-8.9v8.9zm0 11.62h8.9v-4.53h-8.9v4.5zm-18.3-24.08h13.6v-13.6h-13.6v13.64zm2.34 12.44h8.88v-8.9h-8.88v8.9zm.15 11.62h8.7v-4.53h-8.8v4.52zm-4.9-24.06h-8.2l1.6-1.6 6.6-6.6v8.2zm-2.4 12.43h-.5v-.37h-1.5v-1.4H489v-1.42h-1.48v-1.4h-1.4v-1.4h-1.48v-1.4h-1.3v-1.5h8.9v8.9zm-8.9 0v-5.25l5.4 5.25h-5.4zm-168.4-96.5a.22.22 0 0 0-.2.07l-3.4-4.46v-1.1l2.7-3.6 1 8.44h.8l-.7-5.67h8.3l-6.1 6.34H315zm0 10.92h-.1c-.1 0-.2 0-.2.1l-3.3-3.8v-.9l3.3-3.9s.1.1.2.1v8.3zm0 10.8h-.1c-.1 0-.2 0-.2.1l-3.3-3.9v-.9l3.3-3.8c0 .1.1.1.2.1v8.2zm0 10.7h-.1a.2.2 0 0 0-.2.1l-3.3-3.8v-.9l3.3-3.8c0 .1.1.2.2.2v8.2zm0 10.8h-.1c-.1 0-.2 0-.2.1l-3.3-3.8v-.9l3.3-3.8s.1.1.2.1v8.2zm0 10.8h-.1a.2.2 0 0 0-.2.1l-3.3-3.8v-.9l3.3-3.8s.1.1.2.1v8.2zm0 4.5h-2l1.7-2.1c0 .1.1.1.2.1h.1v1.9zm-5.9 0l-2.2-2.6v-.4h7.8v.5l-2.2 2.5h-3.3zm-2.5 0v-1.9c.1 0 .1-.1.2-.2l1.7 2h-2zm0-12.8c.1 0 .1-.1.2-.2l3.2 3.8v.9l-3.3 3.8c-.1-.1-.1-.2-.2-.2h-.1V192zm0-10.9l.1-.1 3.3 3.8v.9l-3.2 3.8c-.1-.1-.1-.2-.2-.2v-8.3zm0-10.8c.1 0 .1-.1.2-.2l3.2 3.8v.9l-3.3 3.8c-.1-.1-.1-.2-.2-.2h-.1v-8.2zm0-10.9c.1 0 .1-.1.2-.2l3.2 3.8v.9l-3.3 3.8c-.1 0-.1-.1-.2-.1h-.1v-8.2zm0-10.9l.1-.1 3.3 3.8v.9l-3.3 3.8a.2.2 0 0 0-.1-.1h-.1v-8zm.3 9.4v-.4l3.3-3.9h1s.1 0 .1-.1l3.3 3.8v.5H307zm4.3 4.6h-1l-3.3-3.8v-.5h7.8v.4l-3.3 3.8a.15.15 0 0 0-.1 0zm-4.3 6.3v-.5l3.3-3.9h1s.1 0 .1-.1l3.3 3.8v.5H307zm4.3 4.5h-1l-3.3-3.9v-.4h7.7v.4l-3.4 3.9a.16.16 0 0 0-.1-.1zm-4.3 6.2v-.4l3.3-3.9h1l.1-.1 3.3 3.8v.4H307zm4.3 4.7h-.9a.15.15 0 0 0-.1 0l-3.3-3.9v-.5h7.7v.5l-3.3 3.9a.15.15 0 0 0-.1-.1zm-4.3 6.2v-.5l3.3-3.9h1.1l3.3 3.8v.4H307zm7.7 10.4v.4H307v-.4l3.3-3.9h1c.06 0 .1-.1.1-.1l3.3 3.9zm-3.4-5.8h-1.1l-3.3-3.9v-.5h7.7v.4l-3.3 3.8a.15.15 0 0 0-.1-.1zm-4.4-47.7h7.7v.5l-3.3 3.8c0-.1-.1-.1-.1-.1h-1L307 148v-.5zm0-1l3.3-4.5h1l3.4 4.7v.6H307v-.6zm.9-9.8v-.4h6.2v.1l-2.8 3.7h-.9l-2.6-3.4zm.2-1.3l2.7-5.1h.5l2.7 5.5v.2h-6v-.5zm1.4-8.8l1 2v1.5c0 .1 0 .1.1.1l-2.4 4.3 1.3-8.1zm.1-.7h3.3v.1l-1.3 2.3h-.9l-1.1-2.3v-.3zm1.8-11.3l1.3 11h-3l1.7-11zm2.5 20.4l-2.3-4.7s.1-.1.1-.2V129l1.1-2.14 1 8.53zm10.6 4.6l6.1 6.3H318l6.1-6.3h.4zm12.9 0l-6.1 6.3h-.2l-6.1-6.3h12.4zm.8 0l7 6.3H332l6.1-6.3h.3zM305.5 157h-.06c-.14 0-.24.1-.24.2v-8.8c0 .14.1.24.2.24h.08v8.3zm-1.07-1.87H297c.48-3.4 1.8-6.65 3.3-6.65h4.57v6.6zm-12.5-9.1l6.3-6.56 6.3 6.53H292zm-.7 0l-6.4-6.57h13l-6.3 6.57h-.25zm-13.1 0l6.3-6.54 6.3 6.5h-12.6zm-.8 0l-6.3-6.57H284l-6.3 6.57h-.28zm-13.06 0l6.3-6.54 6.26 6.5h-12.6zm-.76 0l-6.3-6.57h12.9l-6.3 6.57h-.3zm-13.1 0l6.3-6.54 6.3 6.5h-12.5zm-.7 0l-6.3-6.57h12.9l-6.3 6.57h-.3zm-13.9 0l7.1-6.5 6.3 6.5H236zm73.6-33.6l-38.9 26.6h-26.6l65.5-26.6zm2-.56a.63.63 0 1 1 0 1.25.63.63 0 0 1 0-1.22zM707 191.6h6.2c2.07 0 3.88 4.4 4.5 9.04H707v-9.07zm652.74 28.55V218h-82.46v-29.9h-3.86v-.8h3.84v-2.2h-31.2V125H1206v43.4h-7.94V68.2h-6.78v-4.26h2.3V49.4h-7.8v14.5h2.35v4.26h-6.8V168.5h-1.64v-47.57h-9.4v47.56h-9.5V90.4c0-6.94-4.3-11-9.7-11h-3.2c-4.9 0-8.8 3.33-9.6 9.1h-5.2v6.05h-.5v2.3c-.4.38-.8.78-1.1 1.22l1.7 82.67h-3.1l-1.4-65.76v-.3l-.1-2.3h.1v-.3h-.1l-.1-2.3h.1v-.28h-.1l-2-104.5h-.1V0h-24v5h-.1l-3.1 129.86H1034l-1-4.83v-5.27h-12V88.74h-6.8v-3.4h1.1v-9.3h-5.4v9.3h1.1v3.4h-6.77v36.02h-11.2l-1.8-85.66h-.1V36h.06v-.24h-16v3.33h-.1l-2 85.6H962v5.3l-2.75 13.3v-61c0-7.1-5.75-12.9-12.85-12.9h-4.27a12.85 12.85 0 0 0-12.68 10.9h-6.95v6.2h-.65v2.3a12.83 12.83 0 0 0-5.2 10.3v2.6h-4.1v-1.5h-.6v72.3h.6v-6.9h4.1v21h-27.48v3.6L878.5 238c-.24-.07-.5-.12-.77-.12h-.43v-5.24c0-1.44-.55-2.6-1.22-2.6h-.55V227c0-.62-.05-1.2-.13-1.6h1.5a17 17 0 0 0 1.36-.04.92.92 0 1 0 0-.7c-.37-.05-.84-.07-1.36-.07h-5.88a.92.92 0 0 0-1.77.3.92.92 0 0 0 1.76.4h2.9c-.1.4-.1 1-.1 1.6v3.2h-.5c-.6 0-1.2 1.2-1.2 2.6v5.3h-.4a2.62 2.62 0 0 0-2.6 2.6v.5h-.2a10.8 10.8 0 0 0-10.7 10.8v4.8h-1.9v-55.1h-2.4V199h-6v-8.8h.8l1.2-8.2h-9.4l1.2 8.2h.8v8.83H836V257h-7.85c-.1-.5-.5-.86-1.02-.86h-.17V254c0-.58-.2-1.05-.5-1.05h-.2v-1.26c0-.3 0-.5-.06-.7h1.17c.07.1.2.2.35.2a.4.4 0 0 0 .38-.4.37.37 0 0 0-.7-.2c-.16-.1-.34-.1-.56-.1h-2.34a.37.37 0 0 0-.7.1c0 .2.15.4.36.4.14 0 .26-.1.32-.2h1.17a3.6 3.6 0 0 0-.06.6v1.2h-.2c-.3 0-.5.5-.5 1v2.1h-.2c-.6 0-1 .3-1.1.8h-11.7V244h-1.8v-3h.2l.3-2.36H808l.33 2.36h.23v3.27h-1.72v12.68h-10.2v-7.7h-1.17v1.27H781.8v-1.28h-2.34v1.4h-10.1v-8.68h-1.17v1.28h-13.7v-1.28h-2.4v1.4H738v-1.4h-.2v1.4h-.4v-1.4h-.18v1.4h-.44v-1.4h-.2v1.4h-.48v3.88h-.58v1.4h-1.4v1.4h-1.4v1.4h-1.43v1.42H730v1.4h-1.4v1.4h-1.4v1.4h-1.4v1.2h-2.04v-14.9h-.5v-1.4h-.16v1.4h-.44v-1.4h-.16v1.4h-.44v-1.4h-.16v1.4h-.5v27.02h-2.28v-15.8H705.7v-3.3h.1a.3.3 0 0 0 .3-.3v-2.96a.3.3 0 0 0-.3-.3h-.1v-11.27h.1a.3.3 0 0 0 .3-.3v-2.96a.3.3 0 0 0-.3-.4h-.1v-11.1h.1a.3.3 0 0 0 .3-.3v-3a.3.3 0 0 0-.3-.4h-.1v-11.2h.1a.3.3 0 0 0 .3-.3v4.6h9.76c5.88 0 3.17-20.8-2.46-20.8h-7.3v-.5h95.7v-1.6l-10.65-9.6-92.78-37.6h-.02a1.67 1.67 0 0 0-1.7.1l-.22.2-.04.1-39.2 34.6v-45.7h-15.6v-9h-36.3v9h-15.6v104.4h-31v-54.2h-5.2v-6H545v5.9h-13.7v74H528v-62h-.2v-7.2h-.16v7.2h-.43v-3.8h-.1v3.7h-.2v22.9h-13.7v-15.5h-.5v-23.1h-.1v23.1h-.4v-22h-.2v22.1h-.4v-15.2h-.1v15.2h-.5v15.7h-14.1v-10.8h-.2v10.8h-.4v-13.3h-.2v13.3h-.4v-8.9h-.1v8.9h-.5v3.8h-.6v1.4H493v1.4h-1.4v1.4h-1.4v1.4h-1.4v1.4h-1.4v1.4H486v1.4h-1.4v1.2h-2.05v-14.9h-.5V210h-.17v5.4h-.44v-3.2h-.17v3.2h-.4V212h-.1v3.44h-.5V244h-8.8V84l-23.1-21V25.5h-2.7v37.54l-23 21.1V220.7h-18.2v-55.4H377v21.25h-15.7v-6.76l-11.48-6.5-11.7 6.5v6.7h-4.9v18.7h-16.6v-1.9c.1 0 .23-.1.23-.3v-2.2c0-.2-.1-.3-.24-.3v-8.3h.1c.2 0 .3-.1.3-.3v-2c0-.1-.1-.2-.2-.2v-8.3h.1c.2 0 .3-.1.3-.3V179c0-.1-.1-.2-.2-.2v-8.1c.2 0 .3-.1.3-.23v-2.15c0-.1-.1-.2-.3-.2V160h.1c.1 0 .2-.1.2-.22v-2.16c0-.13-.1-.23-.2-.23h-.1v-8.3h.1c.2 0 .3-.1.3-.3v-1.3H347v-1.2l-7.9-7H316l-3-24.5a2 2 0 0 0 .84-.6l-.4-.4a1.56 1.56 0 0 1-1.5.4h-.07a1.62 1.62 0 0 1-.67-.4l-.4.4c.2.2.4.3.7.5l-5 30.8h.78l1.3-8.1 2.4 3.3v1.2l-3.3 4.4a.23.23 0 0 0-.2-.1h-1.6l-6.7-7H272l39-26.7s-.05.1-.05.2a1.23 1.23 0 0 0 2.5 0v-.1l29.2 25.8H339v.1h.06l7.87 7v-7H343L312.84 112l-.15-.13h-.1a1.2 1.2 0 0 0-.7-.2c-.2 0-.4.04-.6.13l-68 27.6-7.8 7v1.14h70.1v.36h-5.4c-4.1 0-6.1 15.2-1.8 15.2h7.2v-3.4c0 .13.1.23.2.23v8.27c-.2 0-.3.1-.3.23v2.16c0 .1.1.2.2.2h.1v8.2h-.1c-.1 0-.2.1-.2.2v2.1c0 .1.1.2.2.2v8.2h-.1c-.1 0-.2.1-.2.2v2.1c0 .1.1.2.2.2h.1v8.2h-.1c-.2 0-.3.1-.3.2v2.2c0 .1.1.2.2.2v1.9h-12.4v10h-5.9v-46h-36.8v-15.2c-.2.2-.3.4-.5.5V169h-3.8v-14.68c-.2-.17-.3-.35-.5-.57V169H220v85.6h-6.8V115.1h-36.8v50.2h-39.2V92.12H68.5v131.93h-6.04V210.3h-40.5v41.14H0V463.6h1359.92V261.52h-3.97v-10.4h3.97v-2.94h-3.97V233.7h3.97v-9.5h-3.97v-3.05h-3.86v-.78h7.8z" fill="#1A6E9E" opacity=".48" fill-rule="evenodd" id="cityscape" mask="url(#aboveground)"/>
        </svg>
    </svg>
    <rect id="groundWide" class="wide" y="70%" height="100%" width="100%" fill="#206F9C"/>
    <symbol id="foreground" viewBox="0 0 1330 464">
        <g id="detail">
            <path fill="url(#linearGradient-3)" d="M106.02 56.63h101.12v149.4H106.02z" transform="translate(953 189)"/>
            <path fill="url(#linearGradient-4)" d="M218.4 62.04l-11.26-5.4v149.4h11.26z" transform="translate(953 189)"/>
            <path fill="url(#linearGradient-5)" d="M127.08 0h61.7v56.62h-61.7z" transform="translate(953 189)"/>
            <path fill="url(#linearGradient-6)" d="M202.73 9.6L188.78 0v56.63h13.95z" transform="translate(953 189)"/>
            <path fill="url(#linearGradient-7)" d="M31.83 75.1l17.63-7.15v138.1H31.83z" transform="translate(953 189)"/>
            <path fill="url(#linearGradient-8)" d="M49.46 67.95h85.2v138.1h-85.2z" transform="translate(953 189)"/>
            <path fill="url(#linearGradient-9)" d="M12.73 128.75h85.2v77.54h-85.2z" transform="translate(953 189)"/>
            <path fill="url(#linearGradient-10)" d="M.5 130.47l12.23-1.72v77.3L.5 201.85z" transform="translate(953 189)"/>
            <path fill="url(#linearGradient-11)" d="M114.34 128.75h141.52v77.54H114.34z" transform="translate(953 189)"/>
            <path d="M984.6 346.06h42.1v14.28h-21.06v2.2h-9.3v-2.2H984.6v-14.28zm2.43 11.8h4.66v-7.12h2.4v7.13h2.2v-9.35H987v9.35zm11.5-9.34v11.82h4.66v-2.47h4.6v-9.35h-9.3zm4.66 2.22h2.4v4.92h-2.5v-4.92zm7.1-2.22v9.35h4.6v-7.13h2.4v7.13h2.2v-7.13h2.4v6.9h2.4v-9.37l-14.2.25z" fill="#1C140F"/>
            <path fill="url(#linearGradient-12)" d="M63.42 151.64h86.68v77.54H63.42z" transform="translate(953 189)"/>
            <path fill="url(#linearGradient-13)" d="M46.77 151.64h16.65v77.3l-16.65-5.9z" transform="translate(953 189)"/>
            <path d="M1038.7 368.46h42.1v14.28h-21.05v2.2h-9.3v-2.2h-11.75v-14.28zm2.45 11.8h4.65v-7.12h2.45v7.13h2.2v-9.35h-9.3v9.35zm11.75-9.34v11.82h4.65v-2.47h4.65v-9.35h-9.3zm4.4 2.22h2.45v4.92h-2.44v-4.92zm7.1-2.22v9.35h4.66v-7.13h2.2v7.13h2.2v-6.9h2.45v6.9h2.5v-9.35h-13.9z" fill="#1C140F"/>
            <path fill="url(#linearGradient-14)" d="M164.78 165.67h61.7v56.6h-61.7z" transform="translate(953 189)"/>
            <path fill="#F0B877" d="M1041.4 382.98h102.58v51.7h-102.6z"/>
            <path fill="#FECE99" d="M1138.6 378.3H1047l-5.63 4.68h102.83z"/>
            <path fill="url(#linearGradient-15)" d="M236.28 165.18l-9.8.5v56.6l9.8-3.44z" transform="translate(953 189)"/>
            <path fill="url(#linearGradient-16)" d="M272.76 131.2l-16.9-2.45v77.3l16.9-4.93z" transform="translate(953 189)"/>
            <path fill="url(#linearGradient-17)" d="M68.07 25.37H119V67.7H68.07z" transform="translate(953 189)"/>
            <path fill="url(#linearGradient-18)" d="M68.07 25.37l-9.3 6.15v36.43h9.3z" transform="translate(953 189)"/>
            <path fill="#FECE99" d="M1189.28 354.18h-57.05l-14.45.25h61.7z"/>
            <path fill="#161616" opacity=".18" d="M1109.46 317.75h-21.55v-53.9l21.6 18.2zm-15.66-72.12h-13.72v-16l13.7 11.57z"/>
            <path fill="#FECE99" d="M1016.42 340.9l-16.65-.26h103.32zm111.16-22.43l-60.24-.72h141.28zm-118.5-.47l-43.35-.25h84.96zm36.96-60.8l-43.58-.25h85.45zm71-11.04l-45.04-.53h88.14z"/>
            <path fill="#C2C2C2" d="M1089.14 382.98h7.35v14.77h-7.4z"/>
            <path fill="#E2E2E2" d="M1106.76 189h7.35v14.78h-7.3z"/>
            <path fill="#C2C2C2" d="M1062.2 340.9h-6.36v14.5h6.36z"/>
            <path fill="#E3E3E3" d="M1096 378.3h-6.37l-.5 4.68h7.35z"/>
            <path fill="#E3E3E3" d="M1142.02 381h-98.43l1.2-.73h96z"/>
            <path fill="#B0B1B1" d="M1183.9 354.43v12.3h1.95v-12.3zm35.5-35.2v12.06l-2.45-.3v-12.1zm-51.9-69.9v11.56l-2.46-.5v-12.3zm-16.9-54.16v11.57l-2.2-.74v-12.3z"/>
            <path d="M1037.47 247.6h-5.14c-.5 0-.98.5-.98.98v5.17c0 .5.5 1 .98 1h5.14c.5 0 .98-.5.98-1v-5.17c.25-.5-.24-.98-.98-.98zm-1.22.5s.24.48.24.73-.3.25-.3.25c-.3 0-.3-.25-.3-.25 0-.25.2-.74.2-.74zm.98 3.44c0-.25-.25-.5-.5-.5-.24 0-.48.25-.48.5 0-.25-.25-.5-.5-.5-.24 0-.24 0-.48.25v2.2c0 .5-.25.7-.74.7-.5 0-.73-.3-.73-.8h.24c0 .2.25.5.5.5.24 0 .48-.3.48-.5v-2.2s-.24-.3-.5-.3a.5.5 0 0 0-.48.5.5.5 0 0 0-.48-.5.5.5 0 0 0-.5.5c0-1.3.98-2.2 1.96-2.2v-.2h.25v.2c.98.2 1.96 1 1.96 2.2zm-.25-1.73c-.24 0-.24-.2-.24-.2 0-.2.24-.7.24-.7s.25.5.25.8-.25.3-.25.3zm8.57-2.2h-5.14c-.4 0-.9.5-.9 1v5.2c0 .5.5 1 1 1h5.2c.5 0 1-.5 1-1v-5.1c.3-.5-.2-1-.9-1zm-3.67 1.3l.73 1h-.4v3.2h-.7v-3.2h-.2l.8-.9zm2.94 4.9h-3.18v-.8h3.18v.8zm0-3.9v3.2h-.74v-3.2h-.5l.75-.9.73 1h-.24zm-15.42-2.2h-5.15c-.5 0-.98.5-.98 1v5.2c0 .5.5 1 .98 1h5.14c.4 0 .9-.5.9-1v-5.1c.2-.5-.3-.9-1-.9zm-2.7 1.7l-.25.3.25-.7v.5zm-1.22 1.7v-.7.8zm0-2.4h.97l-.5 1.3-.23-.4-.24 1-.25.7.25-2.4zm2.44 2.7c0 .5-.24 1-.73 1v1.7l.7.5h-2.2l.7-.5v-1.7c-.5 0-.8-.5-.8-1v-.2l.2-.2.2-.7.2.3.7-1.2h.7v2.2zm88.38-18.2h-6.35c-.74 0-1.23.5-1.23 1.3v6.4c0 .8.5 1.3 1.23 1.3h6.36c.8 0 1.3-.5 1.3-1.2v-6.4c.3-.5-.5-1.2-1.2-1.2zm-1.7.5s.24.8.24 1c0 .3-.24.3-.24.3-.25 0-.25-.2-.25-.2 0-.2.25-.9.25-.9zm1.22 4.5c0-.2-.24-.5-.73-.5-.3 0-.8.3-.8.5 0-.2-.3-.5-.8-.5-.3 0-.5 0-.5.3v2.7c0 .5-.5 1-1 1s-1-.5-1-1h.2c0 .3.2.8.7.8.5 0 .7-.2.7-.7V238c0-.27-.3-.27-.5-.27-.3 0-.8.27-.8.5 0-.23-.3-.5-.7-.5-.3 0-.8.27-.8.5 0-1.46 1.2-2.7 2.4-2.7v-.24h.2v.2c1.7 0 2.9 1.2 2.9 2.7zm-.24-1.9c-.25 0-.25-.2-.25-.2 0-.2.25-.9.25-.9s.24.8.24 1c0 0 0 .3-.24.3zm10.77-2.9H1120c-.75 0-1.24.5-1.24 1.3v6.4c0 .8.5 1.3 1.23 1.3h6.3c.7 0 1.2-.5 1.2-1.2v-6.4c0-.5-.5-1.2-1.3-1.2zm-4.65 1.5l.98 1.3h-.73v3.9h-.74v-4h-.4l1-1.2zm3.43 6.2h-3.92v-.8h4v.8zm0-4.9v3.9h-.74v-4h-.5l.9-1.2 1 1.3h-.8zm11.27-2.7h-6.37c-.74 0-1.23.5-1.23 1.3v6.4c0 .7.5 1.2 1.23 1.2h6.36c.7 0 1.2-.5 1.2-1.2v-6.4c0-.5-.5-1.2-1.3-1.2zm-3.2 6.2v1.7h-1.46v-1l-1.23-1.4v-2.5c0-.2.3-.2.3-.2.3 0 .3.2.3.2v1.5s-.2 0-.2.3v.2c0 .3 0 .3.3.3l1.3 1-1.2-1c-.2 0-.2-.3 0-.5 0-.3.3-.3.5 0l1.3 1c0-.3.5 0 .5.5zm0-1.2l-1.46-1V236l1.47 1v1.4zm-1.7-2.7l1.7-1 1.72 1-1.7 1-1.73-1zm3.42.3v1.4l-1.47 1V237l1.47-1zm1.23 2.7s-.25.3 0 0l-1.47 1.8v.7h-1.23v-2c0-.5.5-.7.5-.7l1.22-.9h.5v.5l-1.24 1 1.23-1 .24-.2v-.2l-.24-.3V236c0-.3.24-.3.24-.3l.25.2v2.7zm-29.88-5.1h-6.36c-.7 0-1.2.5-1.2 1.3v6.4c0 .8.5 1.3 1.3 1.3h6.4c.8 0 1.3-.5 1.3-1.2V235c.3-.5-.5-1.2-1.2-1.2zm-3.18 2l-.3.5.2-1v.5zm-1.5 2.5l-.3-.7.2.5v.3zm0-3.2h1.2l-.5 1.5-.3-.7-.3 1-.3.7V235zm2.9 3.2c0 .8-.5 1.3-1 1.3v1.9l1 .5h-2.7l1-.5v-2c-.5-.3-1-.7-1-1.2v-.5l.2-.5.2-1 .2.5.7-1.7h.9v3.2h.2zm-40.4 184h-6.6c-.8 0-1.5.8-1.5 1.5v6.6c0 .8.7 1.5 1.4 1.5h6.6c.7 0 1.5-.7 1.5-1.5v-6.6a1.6 1.6 0 0 0-1.5-1.4zm-1.7.5s.5.8.5 1-.3.5-.5.5a.54.54 0 0 1-.5-.5c0-.2.5-1 .5-1zm1.2 4.7c0-.2-.2-.5-.7-.5-.5 0-.8.3-.8.5 0-.2-.3-.5-.8-.5-.3 0-.5 0-.5.3v2.9c0 .5-.5 1-1 1s-1-.5-1-1h.2c0 .2.2.7.7.7.5 0 .7-.2.7-.7v-3c-.3-.2-.3-.2-.5-.2-.5 0-.7.3-.7.5 0-.2-.3-.5-.7-.5-.5 0-.8.3-.8.5a2.7 2.7 0 0 1 2.7-2.7v-.3h.2v.2a2.7 2.7 0 0 1 2.7 2.7zm-.2-2.2a.54.54 0 0 1-.5-.5c0-.2.5-1 .5-1s.5.7.5 1c-.3.2-.3.5-.5.5zm11.2-2.9h-6.6c-.8 0-1.5.8-1.5 1.5v6.6c0 .8.7 1.5 1.5 1.5h6.6a1.6 1.6 0 0 0 1.4-1.5v-6.6c0-.7-.7-1.4-1.5-1.4zm-4.9 1.5l.9 1.2h-.5v4.2h-1v-4h-.5l1-1.5zm3.6 6.7h-4.2v-.8h4.1v.8zm0-5.1v4.2h-1V425h-.5l.9-1.25 1 1.23h-.5zm-19.9-3h-6.6c-.8 0-1.5.8-1.5 1.5v6.6c0 .8.7 1.5 1.5 1.5h6.6c.7 0 1.5-.7 1.5-1.4V424c-.3-.7-.8-1.45-1.5-1.45zm-3.7 2.2l-.3.5.2-1v.5zm-1.5 2.5l-.3-.7.2.5v.3zm0-3.4h1.4l-.5 1.5-.2-.7-.3 1.2-.3 1-.2-2.9zm3.1 3.4c0 .8-.5 1.3-1 1.5v2.1l.9.5h-2.7l1-.5V428c-.8-.25-1-.74-1-1.48v-.5l.2-.5.3-1 .3.5.7-1.73h1.2v3.2zm-65.3-43h-6c-.8 0-1.3.5-1.3 1.3v6.1c0 .8.5 1.3 1.2 1.3h6.1c.7 0 1.2-.5 1.2-1.2V385c0-.5-.5-1.25-1.3-1.25zm-1.7.5s.2.8.2 1-.3.3-.3.3c-.3 0-.3-.3-.3-.3l.2-1zm1.2 4.5c0-.3-.3-.5-.7-.5-.3 0-.8.2-.8.5 0-.3-.3-.5-.8-.5-.3 0-.5 0-.5.2v2.7c0 .5-.5 1-1 1s-1-.5-1-1h.2c0 .3.3.8.7.8.3 0 .8-.2.8-.7v-2.7c0-.2-.2-.2-.5-.2-.2 0-.7.3-.7.5 0-.2-.2-.5-.7-.5-.2 0-.7.3-.7.5 0-1.5 1.2-2.5 2.5-2.7v-.3h.3v.3c1.7 0 3 1.2 3 2.7zm-.3-2c-.2 0-.2-.2-.2-.2 0-.2.2-.9.2-.9s.2.7.2 1c0 0 0 .3-.3.3zm10.8-2.9h-6c-.8 0-1.2.5-1.2 1.3v6.1c0 .8.4 1.2 1.2 1.2h6.1c.7 0 1.2-.5 1.2-1.2V385c0-.5-.5-1.2-1.3-1.2zm-4.9 1.5l1 1.2h-.5v4h-.7V387h-.5l.7-1.2zm3.6 6.2H991v-.8h3.9v.7zm0-4.9v4h-.7v-4h-.5l1-1.2.9 1.2h-.7zm-18.7-3h-6c-.8 0-1.3.5-1.3 1.3v6.1c0 .8.5 1.3 1.2 1.3h6.1c.7 0 1.2-.5 1.2-1.2V385c.2-.5-.5-1.25-1.2-1.25zm-3.2 1.9l-.3.5.2-1v.5zm-1.5 2.5l-.3-.7.3.5v.3zm0-3.2h1.2l-.5 1.5-.2-.7-.2 1-.2.8V385zm2.9 3.2c0 .8-.5 1.3-1 1.3v2l1 .5h-2.7l.9-.5v-2c-.5-.2-1-.7-1-1.2v-.5l.2-.4.3-1 .27.5.7-1.7h1v3.2h.2z" fill="#975D42"/>
            <path d="M1140.06 386.18c0-.5-.5-.98-.98-.98h-11.5c-.5 0-.98.5-.98.98v4.2c0 .48.5.97.98.97h11.5c.5 0 .98-.5.98-.98v-4.2z" fill="#EDEDED"/>
            <path fill="#777" d="M1127.82 385.7h11.26v.52h-11.26zm0 1.47h.1v3.45h-.1zm.73 0h.1v3.45h-.1zm.5 0h.1v3.45h-.1zm2.2 0h.1v3.45h-.1zm1.95 0h.1v3.45h-.1zm-1.47 0h.1v3.45h-.1zm5.87 0h.1v3.45h-.1zm-8.07 0h.25v3.45h-.25zm.97 0h.26v3.45h-.25zm1.72 0h.25v3.45h-.25zm3.43 0h.25v3.45h-.25zm-1.47 0h.25v3.45h-.25zm2.94 0h.25v3.45h-.25zm-7.1 0h.1v3.45h-.1zm4.9 0h.1v3.45h-.1zm3.43 0h.1v3.45h-.1zm.25 0h.1v3.45h-.1zm-4.9 0h.1v3.45h-.1zm2.7 0h.1v3.45h-.1zm2.68 0h.1v3.45h-.1zm-2.45 0h.1v3.45h-.1zm-.5 0h.1v3.45h-.1z"/>
            <path d="M1019.84 262.6c0-.48-.5-.97-.98-.97h-10.52c-.5 0-.98.5-.98.98v3.7c0 .5.5 1 .98 1h10.52c.5 0 .98-.5.98-1v-3.7z" fill="#EDEDED"/>
            <path fill="#777" d="M1008.83 262.12h10.04v.25h-10.04zm0 1.48h.1v3.2h-.1zm.5 0h.1v3.2h-.1zm.47 0h.1v3.2h-.1zm1.97 0h.1v3.2h-.1zm1.96 0h.1v3.2h-.1zm-1.23 0h.1v3.2h-.1zm5.14 0h.1v3.2h-.1zm-7.34 0h.25v3.2h-.25zm.98 0h.25v3.2h-.25zm1.47 0h.25v3.2h-.25zm2.93 0h.25v3.2h-.25zm-1.22 0h.25v3.2h-.2zm2.7 0h.24v3.2h-.25zm-6.36 0h.1v3.2h-.1zm4.4 0h.1v3.2h-.1zm2.93 0h.1v3.2h-.1zm.5 0h.1v3.2h-.1zm-4.66 0h.1v3.2h-.1zm2.7 0h.1v3.2h-.1zm2.2 0h.1v3.2h-.1zm-1.97 0h.1v3.2h-.1zm-.73 0h.1v3.2h-.1z"/>
            <path fill="#CBCBCB" d="M960.6 332.77h-2.7v-14.03l2.7-.25zm33.53-57.37l-2.7.75v-14.77l2.7-.98z"/>
            <path d="M1103.58 276.15h43.34v14.77h-21.8v2.46h-9.54v-2.46h-12v-14.77zm2.45 12.06h4.9v-7.3h2.45v7.4h2.44v-9.6h-9.55v9.6h-.24zm12-9.8v12.3h4.65v-2.4h4.9v-9.8h-9.55zm4.65 2.5h2.45v4.9h-2.45v-4.9zm7.35-2.4v9.6h4.9v-7.4h2.44v7.4h2.45V281h2.45v7.1h2.45v-9.6h-14.7zm-106.27 6.4h43.34v14.8h-21.8v2.4h-9.54v-2.4h-12v-14.8zm2.45 12.1h4.9v-7.4h2.5v7.4h2.5v-9.6h-9.5v9.6h-.2zm12-9.6v12.3h4.7v-2.4h4.9v-9.8h-9.5zm4.9 2.2h2.5v5h-2.4v-4.9zm7.1-2.2v9.6h4.9v-7.4h2.5v7.4h2.5v-7.1h2.5v7.1h2.5v-9.6h-14.7zm93.3 84.7h21.8v7.4h-10.7v1.3h-4.9v-1.2h-6.1V372zm1.3 5.9h2.5v-3.6h1.3v3.7h1.2v-5h-4.9v4.9zm5.9-4.6v6.2h2.5v-1.2h2.5v-4.9h-4.9zm2.5 1.3h1.3v2.4h-1.2v-2.4zm3.7-1.2v5h2.5v-3.7h1.3v3.7h1.2v-3.7h1.2v3.7h1.2v-4.9h-7.3zm-23.5-40.3h41.6v14h-20.8v2.2h-9.3V347h-11.5v-14.1zm2.5 11.6h4.7v-7.1h2.2v7.2h2.3V335h-9.3v9.35h.3zm11.5-9.3V347h4.7v-2.2h4.7v-9.37l-9.3-.25zm4.4 2.5h2.5v4.7h-2.4V338zm7.1-2.4v9.4h4.7v-7h2.2v6.9h2.2V338h2.3v6.9h2.2V335H1159zm-85.7 62.7h41.6v14H1094v2.2h-9.33V412H1073v-14.1zm2.5 11.6h4.7V403h2.2v7.1h2.2v-9.4h-9v9.2zm11.5-9.3V412h4.7v-2.2h4.7V400h-9.3zm4.5 2.5h2.5v4.7h-2.5V403zm7.1-2.4v9.3h4.7v-7h2.2v6.9h2.2V403h2.2v6.9h2.2V400h-13.5zm1.5-191.3h35.7v12h-18v2h-8v-2h-9.8V209zm2 9.9h3.9v-6h1.9v5.9h2v-8h-7.9v7.8zm9.8-7.8v10h3.9v-2h3.9V211h-7.9zm3.9 1.9h1.9v4.2h-1.9v-4.2zm6.1-1.9v7.8h3.9v-5.9h2v5.9h1.9v-5.9h2v5.9h1.9v-7.9H1122zm-87.9 15.5h25.7v8.6h-13v1.5h-5.7v-2h-7.1v-8.6zm1.5 7.1h2.9v-5h1.5v4.4h1.5v-5.7h-5.6v5.7h-.2zm7.1-5.7v7.1h2.9V234h3v-6h-5.9zm2.7 1.4h1.4v3h-1.4v-3zm4.4-1.5v5.7h2.9v-5h1.5v4.4h1.5v-4.2h1.5v4.2h1.5v-5.7h-8.8z" fill="#1C140F"/>
            <path d="M748.77 278.3c-26.47 2.67-31.25 35.56-30.45 36.8 20.9 27.37 57.5 20.63 66.87 1.42 0 0 4.7-10.42-6.6-15.12-4.4-1.63-6.8-23.9-29.9-23.1z" fill="#986945"/>
            <path d="M771.46 300.38c.6 1.02.4 2.45-.6 3.06-1 .62-2.2.2-2.8-.8-.58-1.04-.4-2.47.6-3.08 1-.6 2.2-.2 2.8.82" fill="#B68563"/>
            <path d="M769.47 300.17c.6-.4 1.6-.2 2 .62.38.8.2 1.8-.4 2.2-.6.4-1.6.2-2-.6-.4-.9-.2-1.9.4-2.3" fill="#010101"/>
            <path d="M770.48 301.2c.22-.2.65 0 .65.2.2.2 0 .6-.22.82-.2.2-.6 0-.6-.2-.2-.42 0-.62.2-.82" fill="#FFF"/>
            <path d="M745.38 273.4l4.98 5.32a5.95 5.95 0 0 1-3.38 4.5c-2.4 1.22-3.98.4-5.77-1.03 0-.2.4-6 4.2-8.8" fill="#8A5E3E"/>
            <path d="M748.97 279.74l.8-.82-4.2-4.5-1.98 4.9c1 .42 4.1 1.24 5.3.42" fill="#986945"/>
            <path d="M780.8 304.06c-5.36 1.22-5.76 2.04-4.57 5.72.8 2.45 10.55 7.56 9.56 4.08 0 0-3-5.3-5-9.8" fill="#8A5E3E"/>
            <path d="M775.44 307.53c-.2 2.66 5.37 6.95 9.75 6.33h.4c3.9-2.86 3.3-9.4-1.2-11.03-4.6-1.63-8.8 1.84-9 4.7" fill="#010101"/>
            <path d="M770.46 322.65c.6.4 4.98 3.27 7.96 2.45-1 1.02-2.98 2.25-2.98 2.25s-1.6.2-3.2-1.43c-1.38-1.02-1.78-3.27-1.78-3.27z" fill="#8A5E3E"/>
            <path d="M742.4 326.12l-2.2-.2c-.8.2-13.32 2.86-18.7 18.4-1.8 5.1-2.2 9.18-1.6 12.04.2 1.03.6 1.84 1 2.66 2 4.1 26.47 9.8 22.3 9.2-14.73-2.46 14.32 15.52 23.28 8.58 27.47-21.25-6.57-57.62-17.3-37.2" fill="#B58463"/>
            <text id="B58463" font-family="Helvetica" font-size="2.48" transform="translate(661 245)">
                <tspan x="73.56" y="107.82">B58463</tspan>
            </text>
            <path d="M718.52 356.57s51.15-8.38 57.9-4.3c0 0-2.38-14.7-11.13-20.22 0 0-28.3-1.84-31.5-10.22-.2-.2-13 4.9-15.3 34.74z" fill="#CB3935"/>
            <path d="M720.1 356.77c-.8 7.15-.6 16.96 30.66 18.8 0 0 2.2 1.23 1.6 4.5-.6 3.27 22.08 1.22 14.12-14.3-9.15-18.2-47.96-11.45-46.37-9z" fill="#986945"/>
            <path d="M757.72 386c-1 .6-2.38-1.64-3.78-3.9-1.4-2.24-2.58-4.08-1.8-4.5 1-.6 3.6.83 5 3.28 1.38 2.25 1.38 4.7.58 5.1" fill="#7A5537"/>
            <path d="M733.64 321.63c6.37 4.7 28.86 10 28.86 10s2.6-.4 3.78 1.44c0 0-7.56 0-8.36 1.64-21.5-5.9-10.94-4-27.86-10.4 0 0 3-3.2 3.58-2.6z" fill="#BC3431"/>
            <path d="M719.1 350.85c.8-.2 1.6 0 2.6-.2 1.2-.2 2.8-.42 3.78 0-2.2.8-4.77.6-6.57 2.24.2-.5.2-.9.2-1.5" fill="#010101" opacity=".15"/>
            <path d="M722.1 355.55s1 10.2 6.37 11.03c0 0 19.3-5.92 23.68 10.83 0 0-12.14-5.5-18.5-5.1-6.18.7-15.73-5.5-13.54-15.9l2-.8z" fill="#010101" opacity=".12"/>
            <g id="arm_21_-Clipped" transform="translate(742.6 336.95)">
                <mask id="mask-20" fill="#fff">
                    <use xlink:href="#path-19"/>
                </mask>
                <path d="M13.73 20.23s18.1 3.68 30.05 2.66C42.58 11 29.45 2.8 27.46 2 21.5-.2 18.7-1.43 6.76 3.9c-18.5 8.16 6.97 16.33 6.97 16.33z" id="arm_21_" fill="#966C47" mask="url(#mask-20)"/>
            </g>
            <path d="M743.8 345.13c1.4 5.1 12.73 9.6 12.73 9.6s17.5 5.1 29.65 5.1c-11.94 1.44-30.05-1.83-30.05-1.83s-19.9-5.52-12.34-12.87z" fill="#8A5E3E"/>
            <g id="Clipped" transform="translate(741.63 333.9)">
                <mask id="mask-22" fill="#fff">
                    <use xlink:href="#path-21"/>
                </mask>
                <path d="M21.07-1.23l3.8 5.73S14.7 19 1.97 18.4c0 0-1.4-1.85-1.6-2.05 0-.2 14.72-6.54 20.7-17.58" fill="#A62928" mask="url(#mask-22)"/>
            </g>
            <g id="Clipped" transform="translate(741.63 333.9)">
                <mask id="mask-24" fill="#fff">
                    <use xlink:href="#path-23"/>
                </mask>
                <g opacity=".1" mask="url(#mask-24)">
                    <g id="Clipped" transform="translate(-.4 13.28)">
                        <mask id="mask-26" fill="#fff">
                            <use xlink:href="#path-25"/>
                        </mask>
                        <path d="M8.74 4.5S5.94 1.84 5.54.62C5.14-.6.6 1.44.6 1.44L.2 2.66l1.2 2.86L8.73 4.5z" fill="#010101" mask="url(#mask-26)"/>
                    </g>
                </g>
            </g>
            <g id="Clipped" transform="translate(737.25 323.67)">
                <mask id="mask-28" fill="#fff">
                    <use xlink:href="#path-27"/>
                </mask>
                <path d="M27.84 14.1S18.5 27.38 5.74 27.58c0 0-1.18.2-1.38 0-.4-.2-10.95-17.77 1.2-25.33 12.13-7.77 22.08 10 22.08 10s.4 1.64.2 1.85" fill="#CC3936" mask="url(#mask-28)"/>
            </g>
            <g id="Clipped" transform="translate(737.25 323.67)">
                <mask id="mask-30" fill="#fff">
                    <use xlink:href="#path-29"/>
                </mask>
                <g opacity=".1" mask="url(#mask-30)">
                    <g id="Clipped" transform="translate(-5.97 7.15)">
                        <mask id="mask-32" fill="#fff">
                            <use xlink:href="#path-31"/>
                        </mask>
                        <path d="M18.3 19.82S7.73 11.45 6.34 3.68C4.94-3.88.78 7.58.78 7.58l6.76 10 3.98 3.88 6.77-1.64z" fill="#010101" mask="url(#mask-32)"/>
                    </g>
                </g>
            </g>
            <path d="M765.5 332.05c1.18.4 3.77 3.68 3.97 3.88l-2.8 1.23-2.18-3.88-2.4-.62s2.2-1.02 3.4-.6z" fill="#AB3130"/>
            <path d="M767.72 334.1c0 .2 0 .62-.42.62-.2 0-.62 0-.62-.42 0-.2 0-.62.4-.62.22 0 .64 0 .64.42" fill="#7C2423"/>
            <path fill="#DA9B5C" d="M857.64 353.7h73.24v45.17h-73.24z"/>
            <path fill="#C79669" d="M857.64 399.07h73.24v2.25h-73.24z"/>
            <path fill="#FEC989" d="M857.64 351.66h73.24v2.25h-73.24z"/>
            <path fill="#FEC989" d="M859.82 399.07l-2.2 2.25v-49.65h2.2z"/>
            <path fill="#C79669" d="M928.28 399.07l2.4 2.25v-49.65l-2.4 2.04z"/>
            <path fill="#DA9B5C" d="M857.64 304.05h73.24v45.16h-73.24z"/>
            <path fill="#C79669" d="M857.64 349.4h73.24v2.26h-73.24z"/>
            <path fill="#FEC989" d="M857.64 302h73.24v2.26h-73.24z"/>
            <path fill="#FEC989" d="M859.82 349.42l-2.2 2.25V302h2.2z"/>
            <path fill="#C79669" d="M928.28 349.42l2.4 2.25V302l-2.4 2.06z"/>
            <path fill="#DA9B5C" d="M857.64 254.4h73.24v45.17h-73.24z"/>
            <path fill="#C79669" d="M857.64 299.77h73.24v2.25h-73.24z"/>
            <path fill="#FEC989" d="M857.64 252.16h73.24v2.25h-73.24z"/>
            <path fill="#FEC989" d="M859.82 299.77l-2.2 2.24v-49.8h2.2z"/>
            <path fill="#C79669" d="M928.28 299.77l2.4 2.24v-49.8l-2.4 2.3z"/>
            <path fill="#484A49" d="M825 252.77h19.7v153.25H825z"/>
            <path fill="#E4D030" d="M834.74 314.68h5.97v14.7h-5.9zm0-25.95h5.97v9.4h-5.9zm0-27.58h5.97v9.4h-5.9z"/>
            <path fill="#9F9EA1" d="M825 270.55h4.97v135.47H825z"/>
            <path fill="#484A49" d="M844.7 401.32h91.15v4.7H844.7z"/>
            <path fill="#195470" d="M674.93 372.92h50.15v41.27h-50.15z"/>
            <path fill="#CC3938" d="M725.08 372.92h60.7v41.27h-60.7v-21.3l-26.86-6.2v-13.9zm-58.1-2.46v-32.7h27.46v48.64l-17.92 5.72v22.07l-15.32-7.8v-33.5z"/>
            <path fill="#9B2121" d="M785.8 414.2l36.2-9v-38.62h-36.2z"/>
            <path fill="#CC3938" d="M785.8 372.92l50.93-4.3-9.75-7.15H783.6l-10.75 11.45z"/>
            <ellipse fill="#29282A" cx="26.25" cy="26.97" rx="26.07" ry="26.77" transform="translate(794.96 377.42)"/>
            <ellipse fill="url(#linearGradient-33)" cx="26.25" cy="26.97" rx="17.51" ry="17.98" transform="translate(794.96 377.42)"/>
            <ellipse fill="#29282A" cx="26.25" cy="26.97" rx="11.34" ry="11.65" transform="translate(794.96 377.42)"/>
            <ellipse fill="#CC9341" cx="26.25" cy="26.97" rx="7.76" ry="7.97" transform="translate(794.96 377.42)"/>
            <ellipse fill="#29282A" cx="21.1" cy="21.25" rx="20.5" ry="21.05" transform="translate(678.9 389.06)"/>
            <ellipse fill="url(#linearGradient-34)" cx="21.1" cy="21.25" rx="13.73" ry="14.1" transform="translate(678.9 389.06)"/>
            <ellipse fill="#29282A" cx="21.1" cy="21.25" rx="8.76" ry="8.99" transform="translate(678.9 389.06)"/>
            <ellipse fill="#CC9341" cx="21.1" cy="21.25" rx="6.17" ry="6.33" transform="translate(678.9 389.06)"/>
            <path fill="#484A49" d="M801.3 344.72l-28.45-91.95h6.57l30.45 91.54 9.75 17.2h-24.68zm-90.35-99.52h68.46v7.57H711zm61.9 127.72h-78.4v-35.15l16.5-85h8.16l9.4 81.12z"/>
            <path d="M872.76 322.04h37.6v12.87h-18.7v2.1h-8.35v-2H873l-.2-12.8zm2 10.83h4.17v-6.54h2v6.54h1.98v-8.6h-8.3l.2 8.6zm10.34-8.6v10.84h4.18v-2.2h4.18v-8.6h-8.36zm4.18 2.06h2.2v4.5h-2.2v-4.5zm6.36-2.05v8.6h4.18v-6.35h2v6.34h1.98v-6.34h2v6.34h2v-8.6h-12.16zm-22.88-50.46h37.6v12.87h-18.7v2h-8.35v-2.1H873l-.2-12.9zm2 10.62h4.17v-6.54h2v6.54h1.98v-8.58h-8.3l.2 8.58zm10.34-8.58v10.83h4.18v-2.3h4.18v-8.6h-8.36zm4.18 2.25h2.2v4.5h-2.2v-4.5zm6.36-2.2v8.6h4.18v-6.3h2v6.4h1.98v-6.3h2v6.4h2V276h-12.16zm-22.88 94.4h37.6v12.9h-18.7v2.1h-8.35v-2H873l-.2-12.8zm2 10.8h4.17v-6.5h2v6.6h1.98v-8.6h-8.3l.2 8.6zm10.34-8.6v10.9h4.18v-2.2h4.18v-8.6h-8.36zm4.18 2.1h2.2v4.5h-2.2v-4.5zm6.36-2v8.6h4.18v-6.3h2v6.4h1.98V375h2v6.34h2v-8.6h-12.16z" fill="#1C140F"/>
        </g>
    </symbol>
    <svg class="wide" viewBox="0 0 1330 464" preserveAspectRatio="xMidYMid meet">
        <use xlink:href="#foreground" transform="scale(0.90) translate(60 -20)"/>
    </svg>
    <svg class="narrow" viewBox="0 0 1330 464" preserveAspectRatio="xMidYMin meet">
        <use xlink:href="#foreground"/>
    </svg>
</svg>
