<svg width="122" height="122" viewBox="0 0 122 122" xmlns="http://www.w3.org/2000/svg">
    <g fill="none" fill-rule="evenodd">
        <circle fill="#F09233" cx="61" cy="61" r="61"/>
        <path d="M70.707 79.293a1 1 0 0 1 0 1.414l-4 4a1 1 0 0 1-1.414 0L62 81.414l-5.293 5.293a1 1 0 0 1-1.414 0L51 82.414l-5.293 5.293a1 1 0 0 1-1.414 0l-2.47-2.47a1 1 0 0 1 1.415-1.413L45 85.586l5.293-5.293a1 1 0 0 1 1.414 0L56 84.586l5.293-5.293a1 1 0 0 1 1.414 0L66 82.586 68.586 80 56 67.414 32.707 90.707a.997.997 0 0 1-1.414 0 1 1 0 0 1 0-1.414L55 65.586V32a1 1 0 0 1 1-1h16a1 1 0 0 1 1 1v20a1 1 0 0 1-1 1H60a1 1 0 0 1 0-2h11v-8H60a1 1 0 0 1 0-2h11v-8H57v32.586l13.707 13.707zm20 10l-17-17a1 1 0 0 0-1.414 0l-2.484 2.484a1 1 0 1 0 1.413 1.414L73 74.415l16.293 16.293a.997.997 0 0 0 1.414 0 1 1 0 0 0 0-1.414zM76 45a1 1 0 0 0 0 2h5.322l3.2 8H70a1 1 0 0 0 0 2h16a1 1 0 0 0 .93-1.372L83.076 46l3.852-9.628A1.003 1.003 0 0 0 86 35H76a1 1 0 0 0 0 2h8.523l-3.2 8H76zm3.75 39.835L78 86.585l-4.75-4.75a1 1 0 0 0-1.415 1.414l5.458 5.457a.997.997 0 0 0 1.414 0l2.458-2.458a1 1 0 0 0-1.414-1.415z" fill="#FFF"/>
    </g>
</svg>
