<svg viewBox="0 0 348 348" xmlns="http://www.w3.org/2000/svg" xmlns:xlink="http://www.w3.org/1999/xlink">
    <defs>
        <circle id="a" cx="174" cy="174" r="174"/>
        <path d="M29.994 6.51c-4.572-5.347-12.4-7.518-18.91-5.58-6.51 1.938-9.69 7.983-10.54 14.88-.854 6.977 1.16 13.177 1.16 13.177 6.977 5.193 19.61 2.48 19.61 2.48s12.168-7.673 15.113-15.733c0 0-1.86-3.876-6.433-9.224z" id="c"/>
        <path d="M29.994 6.51c-4.572-5.347-12.4-7.518-18.91-5.58-6.51 1.938-9.69 7.983-10.54 14.88-.854 6.977 1.16 13.177 1.16 13.177 6.977 5.193 19.61 2.48 19.61 2.48s12.168-7.673 15.113-15.733c0 0-1.86-3.876-6.433-9.224z" id="e"/>
        <path d="M19.066 2.79s2.558 5.27-4.185 11.238h-2.17S1.706 13.098.7 4.805c0-.077 11.393-7.983 18.368-2.015z" id="g"/>
        <path d="M19.066 2.79s2.558 5.27-4.185 11.238h-2.17S1.706 13.098.7 4.805c0-.077 11.393-7.983 18.368-2.015z" id="i"/>
        <path d="M16.82 10.463C15.81 6.2 9.687 4.96 9.687 4.96L9.146.155S4.186 1.318 3.1 3.178C1.938 5.038 0 6.51.31 10.386c.698 8.293 7.13 9.61 7.13 9.61h3.1c5.814-3.332 6.59-8.37 6.28-9.533z" id="k"/>
        <path d="M16.82 10.463C15.81 6.2 9.687 4.96 9.687 4.96L9.146.155S4.186 1.318 3.1 3.178C1.938 5.038 0 6.51.31 10.386c.698 8.293 7.13 9.61 7.13 9.61h3.1c5.814-3.332 6.59-8.37 6.28-9.533z" id="m"/>
        <path d="M4.34 5.58s-1.86 3.256-2.247 4.65c-.388 1.396-1.55 3.566-1.55 3.876 0 .31-.155.31-.155.542 0 .233.232.388.232.388s5.89-2.015 11.16-2.403c5.27-.387 8.45-3.565 12.014-3.875 3.565-.387 4.65.233 4.65.233s.155-.387 0-.542c0 0 .155-.31.078-.387-.078-.077-.31-.154-.31-.154s.077-2.79-4.263-7.673C23.87.078 11.625.543 4.34 5.58z" id="o"/>
        <path d="M4.34 5.58s-1.86 3.256-2.247 4.65c-.388 1.396-1.55 3.566-1.55 3.876 0 .31-.155.31-.155.542 0 .233.232.388.232.388s5.89-2.015 11.16-2.403c5.27-.387 8.45-3.565 12.014-3.875 3.565-.387 4.65.233 4.65.233s.155-.387 0-.542c0 0 .155-.31.078-.387-.078-.077-.31-.154-.31-.154s.077-2.79-4.263-7.673C23.87.078 11.625.543 4.34 5.58z" id="q"/>
        <path d="M4.34 5.58s-1.86 3.256-2.247 4.65c-.388 1.396-1.55 3.566-1.55 3.876 0 .31-.155.31-.155.542 0 .233.232.388.232.388s5.89-2.015 11.16-2.403c5.27-.387 8.45-3.565 12.014-3.875 3.565-.387 4.65.233 4.65.233s.155-.387 0-.542c0 0 .155-.31.078-.387-.078-.077-.31-.154-.31-.154s.077-2.79-4.263-7.673C23.87.078 11.625.543 4.34 5.58z" id="s"/>
        <path d="M10.85 4.495s.31.775 1.706 2.558c3.488 4.495 3.41 6.975 8.06 11.083l.62-.232s-.155.465-.852.62c-6.278 1.627-11.393.465-14.494-1.86C2.79 14.26.62 11.626.465 3.874c4.65-7.75 10.386.62 10.386.62z" id="u"/>
        <path d="M10.85 4.495s.31.775 1.706 2.558c3.488 4.495 3.41 6.975 8.06 11.083l.62-.232s-.155.465-.852.62c-6.278 1.627-11.393.465-14.494-1.86C2.79 14.26.62 11.626.465 3.874c4.65-7.75 10.386.62 10.386.62z" id="w"/>
        <path d="M9.998.078l1.085 1.472S6.665 8.526.93 7.75c0 0-.62-.852-.697-1.007 0 .077 6.742-1.705 9.765-6.665z" id="y"/>
        <path d="M9.998.078l1.085 1.472S6.665 8.526.93 7.75c0 0-.62-.852-.697-1.007 0 .077 6.742-1.705 9.765-6.665z" id="A"/>
        <path d="M12.788 6.123S8.526 12.71 2.713 12.478c0 0-.233 0-.31-.077C2.248 12.247-1.86 4.11 3.488.93c4.805-2.868 9.3 4.805 9.3 4.883.078.077.078.155 0 .31z" id="C"/>
        <path d="M12.788 6.123S8.526 12.71 2.713 12.478c0 0-.233 0-.31-.077C2.248 12.247-1.86 4.11 3.488.93c4.805-2.868 9.3 4.805 9.3 4.883.078.077.078.155 0 .31z" id="E"/>
        <path d="M6.2.543c-.155.077-6.51 3.1-4.107 9.688 0 0-1.395-1.394-1.86-1.472-.466-.077 1.472 3.488 1.937 3.643.388.156 3.178-.154 5.736-.852.697-.155 1.007-.31 1.627-.62L6.2.543z" id="G"/>
        <path d="M6.2.543c-.155.077-6.51 3.1-4.107 9.688 0 0-1.395-1.394-1.86-1.472-.466-.077 1.472 3.488 1.937 3.643.388.156 3.178-.154 5.736-.852.697-.155 1.007-.31 1.627-.62L6.2.543z" id="I"/>
        <path d="M6.2.543c-.155.077-6.51 3.1-4.107 9.688 0 0-1.395-1.394-1.86-1.472-.466-.077 1.472 3.488 1.937 3.643.388.156 3.178-.154 5.736-.852.697-.155 1.007-.31 1.627-.62L6.2.543z" id="K"/>
        <path d="M3.1.388c.155.077 7.286 4.03 4.418 11.858 0 0 1.395-1.395 1.86-1.473.465-.077-1.472 3.488-1.938 3.643-.387.155-3.177-.155-5.735-.853-.697-.155-1.007-.31-1.627-.62L3.1.388z" id="M"/>
        <path d="M3.1.388c.155.077 7.286 4.03 4.418 11.858 0 0 1.395-1.395 1.86-1.473.465-.077-1.472 3.488-1.938 3.643-.387.155-3.177-.155-5.735-.853-.697-.155-1.007-.31-1.627-.62L3.1.388z" id="O"/>
        <path d="M3.1.388c.155.077 7.286 4.03 4.418 11.858 0 0 1.395-1.395 1.86-1.473.465-.077-1.472 3.488-1.938 3.643-.387.155-3.177-.155-5.735-.853-.697-.155-1.007-.31-1.627-.62L3.1.388z" id="Q"/>
        <path d="M27.36 1.55c3.332 2.713 5.812 11.78 5.812 11.78s6.433 7.52 1.628 15.424c0 0-25.344 1.008-32.94-.697 0 0-4.263-7.828 2.17-17.05 1.705-2.404 1.783-5.97 3.566-9.302-.078 0 16.43-2.868 19.763-.155z" id="S"/>
        <path d="M27.36 1.55c3.332 2.713 5.812 11.78 5.812 11.78s6.433 7.52 1.628 15.424c0 0-25.344 1.008-32.94-.697 0 0-4.263-7.828 2.17-17.05 1.705-2.404 1.783-5.97 3.566-9.302-.078 0 16.43-2.868 19.763-.155z" id="U"/>
        <path d="M27.36 1.55c3.332 2.713 5.812 11.78 5.812 11.78s6.433 7.52 1.628 15.424c0 0-25.344 1.008-32.94-.697 0 0-4.263-7.828 2.17-17.05 1.705-2.404 1.783-5.97 3.566-9.302-.078 0 16.43-2.868 19.763-.155z" id="W"/>
        <path d="M27.36 1.55c3.332 2.713 5.812 11.78 5.812 11.78s6.433 7.52 1.628 15.424c0 0-25.344 1.008-32.94-.697 0 0-4.263-7.828 2.17-17.05 1.705-2.404 1.783-5.97 3.566-9.302-.078 0 16.43-2.868 19.763-.155z" id="Y"/>
        <path d="M3.798 12.556S13.253 3.41 20.074 0c2.713 6.51-2.79 16.43-3.72 17.594-2.636 3.177-3.876 4.727-11.936 5.89-8.603-3.875-.62-10.928-.62-10.928z" id="Z"/>
        <path d="M3.798 12.556S13.253 3.41 20.074 0c2.713 6.51-2.79 16.43-3.72 17.594-2.636 3.177-3.876 4.727-11.936 5.89-8.603-3.875-.62-10.928-.62-10.928z" id="ab"/>
        <path d="M.388 1.473L1.55.62s7.208 3.953 7.208 9.998c0 0-.775.698-.93.853 0-.077-1.938-7.517-7.44-9.997z" id="ad"/>
        <path d="M.388 1.473L1.55.62s7.208 3.953 7.208 9.998c0 0-.775.698-.93.853 0-.077-1.938-7.517-7.44-9.997z" id="af"/>
        <path d="M6.975.388s6.743 4.03 7.208 10.075c0 0 0 .155-.077.233-.155.232-8.216 6.123-12.4.62C-2.405 5.813 6.587.388 6.587.388s.31-.078.387 0z" id="ah"/>
        <path d="M6.975.388s6.743 4.03 7.208 10.075c0 0 0 .155-.077.233-.155.232-8.216 6.123-12.4.62C-2.405 5.813 6.587.388 6.587.388s.31-.078.387 0z" id="aj"/>
        <path d="M.93 18.06c.62-7.054 4.805-14.03 11.858-16.82C19.84-1.55 27.668.62 32.94 5.27c5.27 4.65 6.51 7.673 6.51 7.673s0 11.86-14.88 17.827C9.687 36.66 1.55 28.057 1.55 28.057S.31 25.112.93 18.06z" id="al"/>
        <path d="M.93 18.06c.62-7.054 4.805-14.03 11.858-16.82C19.84-1.55 27.668.62 32.94 5.27c5.27 4.65 6.51 7.673 6.51 7.673s0 11.86-14.88 17.827C9.687 36.66 1.55 28.057 1.55 28.057S.31 25.112.93 18.06z" id="an"/>
        <path d="M3.643 3.41s9.223-4.573 20.616-1.86c0 0 3.177 1.473 5.657 11.393 0 .155.155.155.077.388 0 0-2.17.93-4.65.233-2.48-.697-14.57-6.665-25.266-1.472 0 0-.078-.31 0-.464.077-.233.697-.775.697-.93 0 0-.155-.155-.077-.233.077-.077.232-.077.31-.31C1.085 9.92 2.17 7.75 2.325 6.82c.155-.93 1.163-3.332 1.318-3.41z" id="ap"/>
        <path d="M3.643 3.41s9.223-4.573 20.616-1.86c0 0 3.177 1.473 5.657 11.393 0 .155.155.155.077.388 0 0-2.17.93-4.65.233-2.48-.697-14.57-6.665-25.266-1.472 0 0-.078-.31 0-.464.077-.233.697-.775.697-.93 0 0-.155-.155-.077-.233.077-.077.232-.077.31-.31C1.085 9.92 2.17 7.75 2.325 6.82c.155-.93 1.163-3.332 1.318-3.41z" id="ar"/>
        <path d="M3.643 3.41s9.223-4.573 20.616-1.86c0 0 3.177 1.473 5.657 11.393 0 .155.155.155.077.388 0 0-2.17.93-4.65.233-2.48-.697-14.57-6.665-25.266-1.472 0 0-.078-.31 0-.464.077-.233.697-.775.697-.93 0 0-.155-.155-.077-.233.077-.077.232-.077.31-.31C1.085 9.92 2.17 7.75 2.325 6.82c.155-.93 1.163-3.332 1.318-3.41z" id="at"/>
        <path d="M3.643 3.41s9.223-4.573 20.616-1.86c0 0 3.177 1.473 5.657 11.393 0 .155.155.155.077.388 0 0-2.17.93-4.65.233-2.48-.697-14.57-6.665-25.266-1.472 0 0-.078-.31 0-.464.077-.233.697-.775.697-.93 0 0-.155-.155-.077-.233.077-.077.232-.077.31-.31C1.085 9.92 2.17 7.75 2.325 6.82c.155-.93 1.163-3.332 1.318-3.41z" id="av"/>
        <path d="M2.635.388c-.155.155-5.27 6.51.155 11.16 0 0-2.015-.465-2.557-.232-.543.232 3.022 2.247 3.565 2.17.465-.078 3.177-1.938 5.425-4.03.62-.543.853-.853 1.395-1.473L2.635.388z" id="ax"/>
        <path d="M2.635.388c-.155.155-5.27 6.51.155 11.16 0 0-2.015-.465-2.557-.232-.543.232 3.022 2.247 3.565 2.17.465-.078 3.177-1.938 5.425-4.03.62-.543.853-.853 1.395-1.473L2.635.388z" id="az"/>
        <path d="M2.635.388c-.155.155-5.27 6.51.155 11.16 0 0-2.015-.465-2.557-.232-.543.232 3.022 2.247 3.565 2.17.465-.078 3.177-1.938 5.425-4.03.62-.543.853-.853 1.395-1.473L2.635.388z" id="aB"/>
        <path d="M10.076.543c.077.155 3.565 7.595-2.868 10.773 0 0 2.093 0 2.558.387.465.388-3.488 1.473-4.03 1.24-.388-.232-2.636-2.712-4.263-5.27C1.008 6.975.853 6.588.465 5.89l9.61-5.347z" id="aD"/>
        <path d="M10.076.543c.077.155 3.565 7.595-2.868 10.773 0 0 2.093 0 2.558.387.465.388-3.488 1.473-4.03 1.24-.388-.232-2.636-2.712-4.263-5.27C1.008 6.975.853 6.588.465 5.89l9.61-5.347z" id="aF"/>
        <path d="M10.076.543c.077.155 3.565 7.595-2.868 10.773 0 0 2.093 0 2.558.387.465.388-3.488 1.473-4.03 1.24-.388-.232-2.636-2.712-4.263-5.27C1.008 6.975.853 6.588.465 5.89l9.61-5.347z" id="aH"/>
        <path d="M9.378 1.24C6.045 3.953 3.643 12.323 3.643 12.323s-6.898 7.13-1.55 14.804c0 0 23.484 1.705 31.08 0 0 0 5.27-10.618-2.636-25.5 0 0-17.826-3.1-21.16-.387z" id="aJ"/>
        <path d="M9.378 1.24C6.045 3.953 3.643 12.323 3.643 12.323s-6.898 7.13-1.55 14.804c0 0 23.484 1.705 31.08 0 0 0 5.27-10.618-2.636-25.5 0 0-17.826-3.1-21.16-.387z" id="aL"/>
        <path d="M9.378 1.24C6.045 3.953 3.643 12.323 3.643 12.323s-6.898 7.13-1.55 14.804c0 0 23.484 1.705 31.08 0 0 0 5.27-10.618-2.636-25.5 0 0-17.826-3.1-21.16-.387z" id="aN"/>
        <path d="M3.798 15.656S11.47 5.426 18.136.233c4.65 5.89 1.395 15.888.698 17.283-2.093 3.875-3.1 5.736-11.55 8.913C-5.812 31.39 3.8 15.655 3.8 15.655z" id="aP"/>
        <path d="M12.71 8.138S1.55-.698 1.32.853c0 0-2.79 6.277 2.17 13.873 7.673 11.78 9.223-6.588 9.223-6.588z" id="aR"/>
        <path d="M12.71 8.138S1.55-.698 1.32.853c0 0-2.79 6.277 2.17 13.873 7.673 11.78 9.223-6.588 9.223-6.588z" id="aT"/>
        <path d="M5.348 1.628S2.325 7.75 1.86 9.688c0 0-.465 0-.465.31v.31s-.465.155-.62.62c-.155.465 0 .93 0 .93s4.65-1.627 10.928-1.627c6.278 0 13.64 3.72 15.734 3.72 2.092 0 6.045-.542 6.045-.542s-.232-6.743-2.557-9.765c-.078-.078-7.673-5.58-25.577-2.015z" id="aV"/>
        <path d="M5.348 1.628S2.325 7.75 1.86 9.688c0 0-.465 0-.465.31v.31s-.465.155-.62.62c-.155.465 0 .93 0 .93s4.65-1.627 10.928-1.627c6.278 0 13.64 3.72 15.734 3.72 2.092 0 6.045-.542 6.045-.542s-.232-6.743-2.557-9.765c-.078-.078-7.673-5.58-25.577-2.015z" id="aX"/>
        <path d="M5.348 1.628S2.325 7.75 1.86 9.688c0 0-.465 0-.465.31v.31s-.465.155-.62.62c-.155.465 0 .93 0 .93s4.65-1.627 10.928-1.627c6.278 0 13.64 3.72 15.734 3.72 2.092 0 6.045-.542 6.045-.542s-.232-6.743-2.557-9.765c-.078-.078-7.673-5.58-25.577-2.015z" id="aZ"/>
        <path d="M38.83 15.036C36.892 8.293 31.39 2.248 23.95.853 16.51-.543 9.222 3.178 4.96 8.758.698 14.338.078 17.594.078 17.594s2.325 11.625 18.058 14.57c15.734 2.946 22.09-7.13 22.09-7.13s.542-3.255-1.396-9.998z" id="bb"/>
        <path d="M38.83 15.036C36.892 8.293 31.39 2.248 23.95.853 16.51-.543 9.222 3.178 4.96 8.758.698 14.338.078 17.594.078 17.594s2.325 11.625 18.058 14.57c15.734 2.946 22.09-7.13 22.09-7.13s.542-3.255-1.396-9.998z" id="bd"/>
    </defs>
    <g fill="none" fill-rule="evenodd">
        <mask id="b" fill="#fff">
            <use xlink:href="#a"/>
        </mask>
        <use fill="#3D9CD1" xlink:href="#a"/>
        <g mask="url(#b)">
            <path fill="#365066" d="M179.946 263.767l-42.628-7.13-11.858 12.865-69.754-46.658-59.757 72.468-32.243-22.09-91.61 68.98-16.51-17.206-39.76 31.622-20.54-1.937-83.704 76.11H189.17z"/>
            <path fill="#DAF0F5" opacity=".43" d="M56.946 229.277l-26.12 34.49 13.1-5.658 5.192 9.377 5.27-8.448 36.815 8.447L80.895 254l20.77 3.877z"/>
            <path fill="#263D4B" opacity=".79" d="M55.706 222.844l-18.214 35.808 13.718-8.06-26.74 36.737-28.52 7.982z"/>
            <path fill="#9FB3A9" opacity=".79" d="M56.946 273.223L47.8 291.36l-2.325 25.266 11.47-28.6zM79.5 247.57l29.762 18.29 14.648 16.508-30.847-18.6z"/>
            <path fill="#263D4B" opacity=".79" d="M-2.268 316.626l-11.006 27.98 5.503 14.105 10.074-14.338z"/>
            <path fill="#DBE4BB" d="M205.29 37.918h3.024v57.276h-3.023z"/>
            <path fill="#2B495E" d="M-73.65 430.79l50.765-54.95 16.044 6.432 26.66-28.444 16.277 2.79 60.3-74.25 34.488 8.99 38.288-81.767L204.67 92.017l4.65 1.472 63.167 116.956 78.978 89.208 18.446-15.734 38.986 40.458 12.4-9.61L504.85 430.79z"/>
            <path fill="#263D4B" d="M351.465 299.652l-42.24 36.737-59.214-4.496-76.42 79.443 71.926-94.48 61.77 2.636 29.22-36.66z"/>
            <path fill="#DAF0F5" opacity=".74" d="M130.885 298.102l-31.7-9.61L79.5 324.995l24.49-23.484zM372.78 289.886l22.01 46.116-12.4-8.293-7.13 19.375-17.672-22.09L322.4 342.59zM204.67 92.016l4.65 1.472 16.122 29.375-7.363-10.618-6.977-1.008-6.433-6.2-9.378 17.206z"/>
            <path fill="#D44C3D" d="M204.438 36.367v18.68l32.474-9.38z"/>
            <path fill="#263D4B" d="M96.396 282.368l-14.65 56.734 21.935-24.57-21.933 64.33-11.936-26.507-27.745 51.696 27.28-17.127L91.59 422.42l12.09-8.99 11.782 17.36H12.148l-27.282-20.15-15.424 20.15H-73.65l50.765-54.95 16.044 6.432 26.66-28.444 16.277 2.79z"/>
            <path d="M127.94 456.6c-.775 0-1.472-.31-1.937-1.008-.775-1.085-.62-2.635.542-3.41l74.87-89.75-48.75-53.634a2.552 2.552 0 0 1-.62-1.938c.077-.698.464-1.318 1.084-1.783l83.937-53.633-31.157-49.293c-.155-.31-.31-.62-.387-.93l-.853-104.864c-.232-1.318.698-2.635 2.015-2.79 1.318-.233 2.636.697 2.79 2.015l.776 104.4 32.243 50.92a2.502 2.502 0 0 1-.775 3.41l-83.55 53.402 48.672 53.48c.466.542.698 1.162.62 1.86a2.447 2.447 0 0 1-1.007 1.704l-77.04 91.38c-.465.31-.93.464-1.473.464z" fill="#DAF0F5" opacity=".12"/>
            <path d="M164.678 307.092a7.442 7.442 0 0 1-7.44 7.44 7.442 7.442 0 0 1-7.44-7.44 7.442 7.442 0 0 1 7.44-7.44 7.442 7.442 0 0 1 7.44 7.44zM246.6 252.14a6.252 6.252 0 0 1-6.277 6.28c-3.41 0-6.278-2.79-6.278-6.28a6.252 6.252 0 0 1 6.278-6.277c3.487.078 6.278 2.868 6.278 6.278z" fill="#5D7886"/>
            <path fill="#9FB3A9" d="M202.113 159.755l-17.982 40.148 8.992-4.108-24.88 50.146-7.517-2.712-5.27 23.717-24.57 24.414 38.288-81.77zM182.426 246.87l-4.96 1.706 6.588 11.16 14.338-17.98z"/>
            <path d="M135.226 84.265H-42.416c-1.473-10.618 8.448-20.384 18.29-21.236 5.582-.854 11.472.774 17.052 3.874 3.1-7.44 9.844-12.866 19.377-12.866 9.688-.542 21.004 6.976 31.157 16.276 1.162-9.378 7.44-15.966 19.92-15.19 9.144.542 17.437 6.122 24.955 12.943 5.348-14.65 39.76 6.433 46.89 16.198zM433.93 149.447H271.015c-3.798-5.27-1.783-11.858 1.472-14.648 8.99-7.752 20.307-5.427 30.537.386 2.713-7.828 13.1-13.098 22.71-10.463 7.905 2.17 13.64 5.89 18.6 10.618 4.34-9.532 26.43-6.897 39.916.234 5.968-9.844 42.007 3.41 49.68 13.873z" fill="#DAF0F5" opacity=".68"/>
            <path fill="#263D4B" d="M246.988 184.867l24.957 34.645 16.74 23.794 30.305 29.917-21.236-12.48-17.594 8.682-24.336-33.405z"/>
            <path fill="#E79B59" d="M206.22 160.065l-2.712-1.007 12.478-34.49 2.79 1.007z"/>
            <path fill="#D7864A" d="M204.593 159.445l-1.085-.387 12.478-34.49 1.085.387z"/>
            <path d="M233.27 139.37s-3.41-6.82-11.16-11.004c-9.767-5.193-22.865-3.41-22.865-3.41l1.395 2.712s3.643-.232 6.976.62c4.495 1.085 7.208 3.798 7.208 3.798s4.96 0 10.308 1.938c4.65 1.627 8.138 5.347 8.138 5.347z" fill="#93ABBD"/>
            <path d="M218.544 127.048c.155.078.31.078.387.155l.156.078.155.078c.08.078.234.078.31.155.08.078.234.078.31.155.08.078.234.078.31.155.234.078.466.233.62.31.466.233.854.465 1.24.698.777.466 1.552.93 2.25 1.473.154.155.31.233.542.388.155.156.31.233.465.388.155.155.31.233.465.388.155.155.31.232.465.387.62.465 1.085.93 1.55 1.318.465.388.852.776 1.162 1.086l.697.698.233.232-.233-.232a8.64 8.64 0 0 0-.775-.698c-.31-.31-.698-.62-1.163-1.008-.466-.387-1.008-.775-1.628-1.24-.62-.465-1.24-.93-1.938-1.395-.697-.465-1.472-.93-2.248-1.395-.775-.465-1.705-.852-2.557-1.24-.08-.077-.234-.077-.31-.155l-.156-.077-.155-.078c-.08-.077-.234-.077-.31-.155h-.156l-.155-.077c-.156-.078-.234-.078-.39-.155l-.154-.077c-.077 0-.155 0-.155-.077l-.696-.233c-.93-.31-1.938-.542-2.868-.775-.155 0-.233-.078-.388-.078s-.232-.077-.387-.077c-.154 0-.232-.078-.387-.078s-.232-.077-.387-.077l-1.395-.233c-.93-.155-1.782-.232-2.634-.31-.233 0-.388 0-.62-.077h-.62c-.388 0-.776 0-1.163-.078h-2.015c-.62 0-1.163.078-1.55.078-.465 0-.775.077-1.008.077-.232 0-.387.078-.387.078s.155 0 .387-.078c.233 0 .543-.077 1.008-.155.465-.077.93-.077 1.55-.155.62-.077 1.317-.077 2.015-.077h2.403c.852.077 1.782.155 2.712.232l1.395.233c.155 0 .233 0 .388.077.156 0 .233.078.388.078s.233.077.388.077.232.078.387.078c.93.232 1.938.465 2.868.775l.7.233c.076 0 .154 0 .154.078l.155.078c.154.077.23.077.386.155l.155.078h.234z" fill="#E9ECF0"/>
            <path d="M118.407 219.124l-1.86 2.248 2.015 2.247 3.333-.078s-1.318-2.713-3.488-4.418z" fill="#966945"/>
            <path fill="#875D3D" d="M117.012 221.914l-.465-.542 1.86-2.248.233 3.023z"/>
            <path d="M101.046 224.394l2.79.853-.387 2.945-2.87 1.783s-.387-2.945.466-5.58z" fill="#966945"/>
            <path fill="#875D3D" d="M103.76 225.867l.076-.697-2.79-.776 1.55 2.636z"/>
            <g transform="translate(98.333 220.442)">
                <mask id="d" fill="#fff">
                    <use xlink:href="#c"/>
                </mask>
                <path d="M29.994 6.51c-4.572-5.347-12.4-7.518-18.91-5.58-6.51 1.938-9.69 7.983-10.54 14.88-.854 6.977 1.16 13.177 1.16 13.177 6.977 5.193 19.61 2.48 19.61 2.48s12.168-7.673 15.113-15.733c0 0-1.86-3.876-6.433-9.224z" fill="#966945" mask="url(#d)"/>
            </g>
            <g transform="translate(98.333 220.442)">
                <mask id="f" fill="#fff">
                    <use xlink:href="#e"/>
                </mask>
                <path d="M-.775 8.603L3.333 7.13s-3.72 10.62 1.782 19.377c0 0 7.053 3.642 13.564 3.1L4.804 32.94l-5.348-2.79-.232-21.547z" fill="#000" opacity=".05" mask="url(#f)"/>
            </g>
            <g transform="translate(117.71 232.843)">
                <ellipse fill="#875D3D" transform="rotate(-106.74 6.568 5.015)" cx="6.568" cy="5.015" rx="2.558" ry="5.348"/>
                <ellipse fill="#000" transform="rotate(-106.74 6.442 4.54)" cx="6.442" cy="4.54" rx="2.558" ry="5.348"/>
            </g>
            <g transform="translate(115.384 235.168)">
                <path d="M2.325 1.24c.155.62-.155 1.24-.775 1.473a1.228 1.228 0 0 1-1.472-.775C-.078 1.318.233.698.853.465c.62-.155 1.24.155 1.472.775z" fill="#B48363"/>
                <ellipse fill="#000" cx="1.473" cy="1.705" rx=".853" ry=".853"/>
                <ellipse fill="#FFF" cx="1.705" cy="1.783" rx=".31" ry=".31"/>
            </g>
            <path d="M126.933 233.54c.155.62.852.93 1.472.775.62-.155.93-.852.775-1.472-.155-.62-.852-.93-1.472-.776-.543.233-.93.853-.775 1.473z" fill="#B48363"/>
            <g transform="translate(127.01 232.067)">
                <ellipse fill="#000" cx="1.085" cy="1.473" rx=".853" ry=".853"/>
                <ellipse fill="#FFF" cx=".775" cy="1.705" rx=".31" ry=".31"/>
            </g>
            <g transform="translate(115.384 256.87)">
                <mask id="h" fill="#fff">
                    <use xlink:href="#g"/>
                </mask>
                <path d="M19.066 2.79s2.558 5.27-4.185 11.238h-2.17S1.706 13.098.7 4.805c0-.077 11.393-7.983 18.368-2.015z" fill="#875D3D" mask="url(#h)"/>
            </g>
            <g transform="translate(115.384 256.87)">
                <mask id="j" fill="#fff">
                    <use xlink:href="#i"/>
                </mask>
                <path d="M19.144 2.325c0 .155 1.317 10.308-10.308 10.928L19.144 2.325z" fill="#000" opacity=".05" mask="url(#j)"/>
            </g>
            <path d="M132.668 270.433c0 .543-1.24.543-2.403.543s-2.17.077-2.17-.388c0-.542 1.24-1.24 2.402-1.24 1.163.078 2.17.62 2.17 1.085z" fill="#7A5436"/>
            <path d="M105.774 251.29c-.388 4.96-3.72 4.804-4.03 9.997-.155 3.1 5.192 10.386 18.136 9.456 12.943-.93 15.656-7.673 14.028-14.416-1.627-6.666-7.518-13.564-7.518-13.564s-20.306 3.643-20.616 8.526z" fill="#B48363"/>
            <g>
                <g transform="translate(101.434 251.444)">
                    <mask id="l" fill="#fff">
                        <use xlink:href="#k"/>
                    </mask>
                    <path d="M16.82 10.463C15.81 6.2 9.687 4.96 9.687 4.96L9.146.155S4.186 1.318 3.1 3.178C1.938 5.038 0 6.51.31 10.386c.698 8.293 7.13 9.61 7.13 9.61h3.1c5.814-3.332 6.59-8.37 6.28-9.533z" fill="#966945" mask="url(#l)"/>
                </g>
                <g transform="translate(101.434 251.444)">
                    <mask id="n" fill="#fff">
                        <use xlink:href="#m"/>
                    </mask>
                    <path d="M.31 3.023l2.868 1.86s-3.256 9.223 4.262 14.88l-5.812.156-4.34-13.255L.31 3.023z" fill="#000" opacity=".05" mask="url(#n)"/>
                </g>
                <path d="M113.602 270.975c0 .543-1.24.543-2.557.543-1.24 0-2.248.077-2.248-.388 0-.542 1.24-1.24 2.558-1.24 1.317 0 2.247.62 2.247 1.085z" fill="#7A5436"/>
            </g>
            <g>
                <path d="M101.976 258.652s3.023-.62 3.565-.62c.544 0 .466-.388.466-.388l-.62-.465-3.41 1.472z" fill="#000" opacity=".1"/>
                <g transform="translate(101.434 243.693)">
                    <mask id="p" fill="#fff">
                        <use xlink:href="#o"/>
                    </mask>
                    <path d="M4.34 5.58s-1.86 3.256-2.247 4.65c-.388 1.396-1.55 3.566-1.55 3.876 0 .31-.155.31-.155.542 0 .233.232.388.232.388s5.89-2.015 11.16-2.403c5.27-.387 8.45-3.565 12.014-3.875 3.565-.387 4.65.233 4.65.233s.155-.387 0-.542c0 0 .155-.31.078-.387-.078-.077-.31-.154-.31-.154s.077-2.79-4.263-7.673C23.87.078 11.625.543 4.34 5.58z" fill="#BB3331" mask="url(#p)"/>
                </g>
                <g transform="translate(101.434 243.693)">
                    <mask id="r" fill="#fff">
                        <use xlink:href="#q"/>
                    </mask>
                    <path d="M6.588 3.023l4.96-1.24s-1.86 5.425-1.86 5.58c0 .155 1.395 3.565 1.395 3.565l1.163 1.783L.078 15.347l-.93-2.248 7.44-10.075z" fill="#000" opacity=".1" mask="url(#r)"/>
                </g>
                <g transform="translate(101.434 243.693)">
                    <mask id="t" fill="#fff">
                        <use xlink:href="#s"/>
                    </mask>
                    <path d="M.31 10.773l.233 1.938s-.078 1.008.775.698c.852-.31 2.945-.93 2.867-.775-.077.155-3.642 1.55-3.952 1.783-.31.232.077-3.643.077-3.643z" fill="#000" opacity=".1" mask="url(#t)"/>
                </g>
            </g>
            <path d="M140.806 258.11s-1.162.93-2.015 1.084c-.852.155-1.317-.232-1.317-.232l3.333-.853z" fill="#966945"/>
            <g>
                <g fill="#000" opacity=".1">
                    <path d="M105.62 258.497s4.727 7.208 11.78 6.588l.077.232 3.643-.542s2.402.31 2.868.077l10.85-4.185-.155-.62c-.232-.698-.542-1.783-.775-1.86-.465-.233-28.29.31-28.29.31zM111.277 244.313l-.62.62.62 2.713 2.015-.62z"/>
                </g>
                <path fill="#B87D4A" d="M149.19 255.607l-31.768 9.82-7.347-23.77 31.767-9.82z"/>
                <path fill="#D8995C" d="M149.153 255.552l-23.77 7.347-7.347-23.77 23.77-7.348z"/>
                <path d="M127.475 247.956l13.1-4.03 1.394 4.65-6.512 2.015.233.776-2.867.93-.232-.775-3.642 1.164-1.473-4.728zm1.938 3.643l1.472-.466-.697-2.325.697-.234.698 2.325.698-.23-.93-3.024-2.867.93.93 3.023zm2.713-4.187l1.162 3.876 1.473-.466-.232-.775 1.473-.466-.93-3.1-2.944.93zm1.627.31l.775-.232.465 1.55-.775.234-.465-1.55zm2.015-1.472l.93 3.024 1.473-.465-.697-2.327.698-.232.7 2.326.696-.232-.697-2.248.696-.233.698 2.248.697-.23-.93-3.024-4.262 1.395z" fill="#1C1510"/>
                <path fill="#E1B283" d="M135.67 240.18l-6.22 1.922-1.83-5.924 6.22-1.922z"/>
                <path d="M111.897 247.49s1.782.776 3.255 3.334c0 0 .155.155.077.31l.542 1.007v.156s1.395 1.318 3.643 5.658c2.247 4.34 4.185 5.503 4.185 5.503l-10.308-4.883-1.395-11.083z" fill="#000" opacity=".1"/>
            </g>
            <g>
                <g transform="translate(102.984 245.243)">
                    <mask id="v" fill="#fff">
                        <use xlink:href="#u"/>
                    </mask>
                    <path d="M22.942 20.074L9.842.544 3.333-2.87l-3.41 1.86-.697 10 2.558 6.432 4.34 3.875c-.078.076 13.02 4.572 16.82.774z" fill="#875D3D" mask="url(#v)"/>
                </g>
                <g transform="translate(102.984 245.243)">
                    <mask id="x" fill="#fff">
                        <use xlink:href="#w"/>
                    </mask>
                    <path d="M21.004 22.01l.387-3.33s-18.6.774-19.297-15.192l-3.178.232L0 14.106c0 .077 11.316 9.456 21.004 7.905z" fill="#000" opacity=".05" mask="url(#x)"/>
                </g>
                <g>
                    <g transform="translate(104.534 250.67)">
                        <mask id="z" fill="#fff">
                            <use xlink:href="#y"/>
                        </mask>
                        <path d="M10.076-.775l1.55 2.713S6.666 8.448.93 7.75c0 0-.62-.852-.697-1.007 0 .077 6.82-2.558 9.843-7.518z" fill="#A52828" mask="url(#z)"/>
                    </g>
                    <g transform="translate(104.534 250.67)">
                        <mask id="B" fill="#fff">
                            <use xlink:href="#A"/>
                        </mask>
                        <path d="M3.875 7.75S2.713 6.434 2.558 5.89C2.403 5.27.233 6.2.233 6.2l-.155.543.465 1.395 3.332-.387z" fill="#000" opacity=".1" mask="url(#B)"/>
                    </g>
                    <g>
                        <g transform="translate(102.21 245.243)">
                            <mask id="D" fill="#fff">
                                <use xlink:href="#C"/>
                            </mask>
                            <path d="M13.33 7.13s-4.65 5.968-10.385 5.658c0 0-.542.078-.62 0C2.17 12.633-2.17 4.185 3.565.93c5.658-3.255 9.766 5.348 9.766 5.348s.078.697 0 .852z" fill="#CA3836" mask="url(#D)"/>
                        </g>
                        <g transform="translate(102.21 245.243)">
                            <mask id="F" fill="#fff">
                                <use xlink:href="#E"/>
                            </mask>
                            <path d="M5.968 12.71S1.395 8.45.93 4.806C.465 1.163-1.705 6.51-1.705 6.51l2.79 4.883L2.79 13.33l3.178-.62z" fill="#000" opacity=".1" mask="url(#F)"/>
                        </g>
                    </g>
                </g>
            </g>
            <path d="M205.755 193.702c-.465 0-1.55 1.086-1.86 1.396 1.705-4.496 0-8.604-3.487-11.006-.62-1.008-1.163-1.55-1.163-1.55.077-.155-.078-.233-.078-.388-.465-1.782-.93-3.333-1.472-4.65h-1.163c-.077-.078-.077-.233-.155-.388l1.085-.31c-.077-.31-.232-.542-.31-.775 2.248-.85 4.03-2.09 4.108-2.17.078-.076.078-.154.078-.23.232-.156.542-.466.775-.62.697-.62 1.395-1.397 2.092-2.327.93-1.085 5.27-10.773 2.558-17.128-1.705.852-2.48 2.015-4.34 3.333v-.466s-1.24-2.945-6.51-7.518c-1.318-1.162-3.488-2.015-5.27-2.79l-2.56 98.354c1.474 0 5.272-.232 5.272-.232l.775.155h1.24c.232-.154.465-.154.62-.387 4.883-1.705 8.37-16.353 3.332-18.833 0-.31 0-.698-.077-1.008h.077s-.155-3.565-1.085-6.665c3.178-1.396 5.038-5.116 4.573-4.883.155-.233.233-.388.233-.465 1.705-3.102 3.177-10.31 1.007-15.27l.388-.542v-.078c.852-.93 1.705-2.558 1.317-2.558z" fill="#000" opacity=".1"/>
            <g>
                <g transform="translate(162.663 185.564)">
                    <mask id="H" fill="#fff">
                        <use xlink:href="#G"/>
                    </mask>
                    <ellipse fill="#875D3D" mask="url(#H)" transform="rotate(-10.166 5.874 6.75)" cx="5.874" cy="6.751" rx="8.526" ry="8.836"/>
                </g>
                <g transform="translate(162.663 185.564)">
                    <mask id="J" fill="#fff">
                        <use xlink:href="#I"/>
                    </mask>
                    <path d="M6.82-.93L3.023 3.1s-2.79 5.89 1.86 10.928l4.805-2.557L6.82-.93z" fill="#000" opacity=".05" mask="url(#J)"/>
                </g>
                <g transform="translate(162.663 185.564)">
                    <mask id="L" fill="#fff">
                        <use xlink:href="#K"/>
                    </mask>
                    <path d="M-.543 7.75l1.396.466s1.86 2.635 2.402 4.96c-.31-.155-2.092-.233-2.092-.233L-.543 7.75z" fill="#704C35" mask="url(#L)"/>
                </g>
                <g transform="translate(195.215 184.014)">
                    <mask id="N" fill="#fff">
                        <use xlink:href="#M"/>
                    </mask>
                    <ellipse fill="#875D3D" mask="url(#N)" transform="rotate(-169.834 3.75 8.767)" cx="3.749" cy="8.767" rx="8.526" ry="8.836"/>
                </g>
                <g transform="translate(195.215 184.014)">
                    <mask id="P" fill="#fff">
                        <use xlink:href="#O"/>
                    </mask>
                    <path d="M1.24.543l2.79.465s5.89 6.432.93 13.408l-6.665-1.473L1.24.543z" fill="#000" opacity=".05" mask="url(#P)"/>
                </g>
                <g transform="translate(195.215 184.014)">
                    <mask id="R" fill="#fff">
                        <use xlink:href="#Q"/>
                    </mask>
                    <path d="M10.153 9.766l-1.395.465s-1.86 2.636-2.403 4.96c.31-.154 2.093-.232 2.093-.232l1.705-5.192z" fill="#704C35" mask="url(#R)"/>
                </g>
                <g>
                    <g transform="translate(164.988 170.063)">
                        <mask id="T" fill="#fff">
                            <use xlink:href="#S"/>
                        </mask>
                        <path fill="#966945" mask="url(#T)" d="M-2.713-3.333h40.69V32.63h-40.69z"/>
                    </g>
                    <g transform="translate(164.988 170.063)">
                        <mask id="V" fill="#fff">
                            <use xlink:href="#U"/>
                        </mask>
                        <path d="M-2.093 12.71s12.48-6.355 26.507-.542c0 0-9.378-5.425-20.23-2.867l-6.277 3.41z" fill="#000" opacity=".1" mask="url(#V)"/>
                    </g>
                    <g transform="translate(164.988 170.063)">
                        <mask id="X" fill="#fff">
                            <use xlink:href="#W"/>
                        </mask>
                        <path d="M27.282-1.318l.077 2.868s2.48 7.363 2.247 11.78c0 0 3.565 10.62-.62 13.797-4.185 3.177 4.805 2.48 4.805 2.48l5.58-4.805-1.162-10.696L27.282-1.318z" fill="#000" opacity=".05" mask="url(#X)"/>
                    </g>
                </g>
                <g fill="#000" opacity=".1">
                    <path d="M201.57 196.26l.155-.387-3.72 1.55.387 1.705zM201.725 195.873s1.318.852 1.705 1.782l-.542.853-1.318-.543.155-2.092"/>
                </g>
                <g>
                    <g transform="translate(186.69 153.787)">
                        <mask id="aa" fill="#fff">
                            <use xlink:href="#Z"/>
                        </mask>
                        <path d="M19.454-1.628L-.233 14.182l-2.712 7.21 2.402 3.255 10.464-.543 6.356-3.488 3.488-4.96s4.108-13.796-.31-17.284z" fill="#875D3D" mask="url(#aa)"/>
                    </g>
                    <g transform="translate(186.69 153.787)">
                        <mask id="ac" fill="#fff">
                            <use xlink:href="#ab"/>
                        </mask>
                        <path d="M20.616-.155L20.074 0s.155 19.066-16.276 21.856l.697 3.256 10.696-2.48S23.485 9.687 20.617-.156z" fill="#000" opacity=".05" mask="url(#ac)"/>
                    </g>
                    <g transform="translate(192.115 163.088)">
                        <mask id="ae" fill="#fff">
                            <use xlink:href="#ad"/>
                        </mask>
                        <path d="M.388 1.473L1.55.62s7.208 3.953 7.208 9.998c0 0-.775.698-.93.853 0-.077-1.938-7.517-7.44-9.997z" fill="#A52828" mask="url(#ae)"/>
                    </g>
                    <g transform="translate(192.115 163.088)">
                        <mask id="ag" fill="#fff">
                            <use xlink:href="#af"/>
                        </mask>
                        <path d="M8.37 7.596S7.21 8.99 6.59 9.223c-.62.233.62 2.325.62 2.325l.62.155 1.395-.62-.852-3.487z" fill="#000" opacity=".1" mask="url(#ag)"/>
                    </g>
                    <g>
                        <g transform="translate(185.914 163.863)">
                            <mask id="ai" fill="#fff">
                                <use xlink:href="#ah"/>
                            </mask>
                            <path d="M6.975.388s6.743 4.03 7.208 10.075c0 0 0 .155-.077.233-.155.232-8.216 6.123-12.4.62C-2.405 5.813 6.587.388 6.587.388s.31-.078.387 0z" fill="#BB3331" mask="url(#ai)"/>
                        </g>
                        <g transform="translate(185.914 163.863)">
                            <mask id="ak" fill="#fff">
                                <use xlink:href="#aj"/>
                            </mask>
                            <path d="M13.796 7.285s-2.79 2.713-6.51 3.643c-3.72.93 1.162 3.333 1.162 3.333l4.573-1.782 1.86-2.015-1.084-3.178z" fill="#000" opacity=".1" mask="url(#ak)"/>
                        </g>
                    </g>
                    <g>
                        <path d="M201.26 157.198s-1.007 14.958-11.316 17.438l-4.262-8.138 15.578-9.3z" fill="#000" opacity=".1"/>
                        <path d="M165.22 149.835l3.178.62-.155 3.332-3.023 2.248c0 .077-.697-3.178 0-6.2z" fill="#966945"/>
                        <path fill="#875D3D" d="M168.398 151.23l.077-.698-3.255-.697 1.938 2.79z"/>
                        <g transform="translate(161.888 143.712)">
                            <mask id="am" fill="#fff">
                                <use xlink:href="#al"/>
                            </mask>
                            <path d="M.93 18.06c.62-7.054 4.805-14.03 11.858-16.82C19.84-1.55 27.668.62 32.94 5.27c5.27 4.65 6.51 7.673 6.51 7.673s0 11.86-14.88 17.827C9.687 36.66 1.55 28.057 1.55 28.057S.31 25.112.93 18.06z" fill="#966945" mask="url(#am)"/>
                        </g>
                        <g transform="translate(161.888 143.712)">
                            <mask id="ao" fill="#fff">
                                <use xlink:href="#an"/>
                            </mask>
                            <path d="M.388 28.212l1.085-.078s8.37 4.883 18.91.388c10.542-4.495 18.99-15.5 18.99-15.5l.697 2.014-4.03 10.773-14.96 7.285s-16.042.775-16.12.697c-.077-.077-4.572-5.58-4.572-5.58z" fill="#000" opacity=".05" mask="url(#ao)"/>
                        </g>
                        <g>
                            <path d="M184.13 142.317l-1.86 2.635 2.482 2.325 3.72-.465c-.078.077-1.783-2.79-4.34-4.495z" fill="#966945"/>
                            <path fill="#875D3D" d="M182.814 145.494l-.543-.465 1.86-2.713.467 3.332z"/>
                        </g>
                    </g>
                    <g>
                        <path d="M170.723 178.434c-.077.155-2.48 3.798-2.48 3.798s4.185-1.86 9.843-1.86 13.95 2.867 14.726 3.1c.775.232.155-2.48.155-2.48l-22.244-2.558z" fill="#000" opacity=".1"/>
                        <g transform="translate(168.088 170.063)">
                            <mask id="aq" fill="#fff">
                                <use xlink:href="#ap"/>
                            </mask>
                            <path d="M3.643 3.41s9.223-4.573 20.616-1.86c0 0 3.487 1.55 6.044 11.78 0 0-2.402.93-4.882.233-2.48-.697-14.57-6.665-25.267-1.472 0 0-.077-.31 0-.464.078-.233.698-.775.698-.93 0 0-.155-.155-.078-.233.078-.077.233-.077.31-.31.078-.232 1.163-2.402 1.318-3.333.155-.93 1.085-3.332 1.24-3.41z" fill="#CA3836" mask="url(#aq)"/>
                        </g>
                        <g transform="translate(168.088 170.063)">
                            <mask id="as" fill="#fff">
                                <use xlink:href="#ar"/>
                            </mask>
                            <path d="M24.182 2.48s2.557 4.418 2.092 5.58c-.465 1.163-2.557 1.706-.387 2.403 2.17.698 3.41 2.093 2.402 2.248-1.086.156-5.426-1.627-6.976-1.704-1.55-.078 4.495 2.247 5.27 2.325.775.078 3.565.156 4.728-.697 1.163-.852-4.418-10.385-4.418-10.385l-2.712.232z" fill="#000" opacity=".1" mask="url(#as)"/>
                        </g>
                        <g transform="translate(168.088 170.063)">
                            <mask id="au" fill="#fff">
                                <use xlink:href="#at"/>
                            </mask>
                            <path d="M.775 9.843c.078-.155 8.448-4.883 17.75-1.86 0 0-6.667-1.55-17.44 2.248-10.773 3.798-1.705.93-1.705.93l1.473-.464s10.618-4.806 21.7-.078c0 0-11.47-3.875-22.786.775l-4.96 1.24s1.24-2.015 1.395-2.015c.155 0 4.573-.775 4.573-.775z" fill="#000" opacity=".1" mask="url(#au)"/>
                        </g>
                        <g transform="translate(168.088 170.063)">
                            <mask id="aw" fill="#fff">
                                <use xlink:href="#av"/>
                            </mask>
                            <path d="M2.79 3.798l-.387 2.015s2.635-3.1 8.99-3.565C17.75 1.783 26.43 3.41 26.43 3.41L24.8 1.55S17.982.078 11.702.543c-6.2.31-8.912 3.255-8.912 3.255z" fill="#000" opacity=".1" mask="url(#aw)"/>
                        </g>
                        <path d="M171.11 173.63l-.232-.156s2.015-2.868 7.673-3.41c5.737-.543 13.177.774 14.34 1.084l-14.34.62-7.44 1.86z" fill="#000" opacity=".1"/>
                        <path d="M170.878 173.474l-.387 2.015s2.636-3.1 8.99-3.566c6.357-.466 15.037 1.162 15.037 1.162l-1.627-1.86s-6.82-1.473-13.1-1.008c-6.2.388-8.912 3.256-8.912 3.256z" fill="#D74141"/>
                    </g>
                </g>
                <path d="M199.4 198.043c-.62-2.79-1.085-3.565-3.1-5.89-.155-.853-.465-1.783-.853-2.636l-1.317.543c-2.326-2.015-5.193-3.488-8.37-4.03-3.18-.62-6.356-.233-9.302.774l-1.007-.93c-.697.698-1.24 1.473-1.782 2.17-2.712 1.473-6.898 5.58-7.673 8.06-2.015 6.667 34.878 8.837 33.405 1.94z" fill="#000" opacity=".1"/>
            </g>
            <g>
                <g transform="translate(161.112 229.742)">
                    <mask id="ay" fill="#fff">
                        <use xlink:href="#ax"/>
                    </mask>
                    <ellipse fill="#966945" mask="url(#ay)" transform="rotate(-37.973 5.064 6.094)" cx="5.064" cy="6.094" rx="10.076" ry="8.836"/>
                </g>
                <g transform="translate(161.112 229.742)">
                    <mask id="aA" fill="#fff">
                        <use xlink:href="#az"/>
                    </mask>
                    <path d="M4.03-2.635l-3.1 4.34s.775 7.44 7.673 9.3l3.798-4.03-8.37-9.61z" fill="#000" opacity=".05" mask="url(#aA)"/>
                </g>
                <g transform="translate(161.112 229.742)">
                    <mask id="aC" fill="#fff">
                        <use xlink:href="#aB"/>
                    </mask>
                    <path d="M-1.085 10.773l1.628-.387s3.1 1.24 4.65 3.1c-.388.077-2.248.93-2.248.93l-4.03-3.643z" fill="#7A5436" mask="url(#aC)"/>
                </g>
            </g>
            <g>
                <g transform="translate(185.914 231.292)">
                    <mask id="aE" fill="#fff">
                        <use xlink:href="#aD"/>
                    </mask>
                    <ellipse fill="#966945" mask="url(#aE)" transform="rotate(-127.814 6.168 5.64)" cx="6.168" cy="5.639" rx="10.076" ry="8.836"/>
                </g>
                <g transform="translate(185.914 231.292)">
                    <mask id="aG" fill="#fff">
                        <use xlink:href="#aF"/>
                    </mask>
                    <path d="M9.456-2.713l1.937 4.96s-2.557 6.976-9.688 7.13l-2.713-4.882L9.456-2.713z" fill="#000" opacity=".05" mask="url(#aG)"/>
                </g>
                <g transform="translate(185.914 231.292)">
                    <mask id="aI" fill="#fff">
                        <use xlink:href="#aH"/>
                    </mask>
                    <path d="M11.083 11.548l-1.472-.775s-3.255.465-5.27 1.86c.388.155 1.938 1.473 1.938 1.473l4.805-2.558z" fill="#7A5436" mask="url(#aI)"/>
                </g>
            </g>
            <g>
                <g transform="translate(163.438 210.366)">
                    <mask id="aK" fill="#fff">
                        <use xlink:href="#aJ"/>
                    </mask>
                    <path fill="#966945" mask="url(#aK)" d="M-3.255-4.728h40.69v35.962h-40.69z"/>
                </g>
                <g transform="translate(163.438 210.366)">
                    <mask id="aM" fill="#fff">
                        <use xlink:href="#aL"/>
                    </mask>
                    <path d="M-4.418 16.974s3.023-2.713 8.06-4.65c5.27-2.016 12.557-3.1 20.54.542 15.578 7.053-4.03 20.694-4.03 20.694L2.247 31.235l-6.666-14.26z" fill="#B48363" mask="url(#aM)"/>
                </g>
                <g transform="translate(163.438 210.366)">
                    <mask id="aO" fill="#fff">
                        <use xlink:href="#aN"/>
                    </mask>
                    <path d="M31.39 5.425s1.705 11.16-.233 14.65l4.883-3.49S33.87 6.28 33.095 5.04l-1.705.387z" fill="#000" opacity=".05" mask="url(#aO)"/>
                </g>
            </g>
            <g>
                <g transform="translate(183.59 195.64)">
                    <mask id="aQ" fill="#fff">
                        <use xlink:href="#aP"/>
                    </mask>
                    <path d="M3.798 15.656S11.47 5.426 18.136.233c4.65 5.89 1.395 15.888.698 17.283-2.093 3.875-3.1 5.736-11.55 8.913C-5.812 31.39 3.8 15.655 3.8 15.655z" fill="#875D3D" mask="url(#aQ)"/>
                </g>
                <path d="M199.633 213.08s1.627 1.006 2.17 1.16c0 0 .155-.076 0 .39-.155.464-1.938 3.72-5.193 4.882l-2.713-2.558 4.263-3.798h1.473v-.077z" fill="#BB3331"/>
                <path d="M199.788 212.536s1.627 1.008 2.247 1.163l-.232.464s-1.163-.233-2.015-.853c-.853-.54 0-.774 0-.774z" fill="#A52828"/>
                <path d="M201.26 202.306c-1.007-3.566-3.023-6.976-5.813-9.534-2.48-2.325-30.614 23.717-14.88 26.585 15.733 2.945 22.088-7.13 22.088-7.13s.62-3.18-1.395-9.92z" fill="#000" opacity=".05"/>
                <g transform="translate(163.438 200.29)">
                    <mask id="aS" fill="#fff">
                        <use xlink:href="#aR"/>
                    </mask>
                    <path d="M12.71 8.138S1.55-.698 1.32.853c0 0-2.79 6.277 2.17 13.873 7.673 11.78 9.223-6.588 9.223-6.588z" fill="#80583B" mask="url(#aS)"/>
                </g>
                <g transform="translate(163.438 200.29)">
                    <mask id="aU" fill="#fff">
                        <use xlink:href="#aT"/>
                    </mask>
                    <path d="M-1.473 5.968s3.566 8.68 11.006 10.618L10.54 5.968 8.217-.62-2.404.93l.93 5.038z" fill="#000" opacity=".05" mask="url(#aU)"/>
                </g>
                <path d="M169.095 211.45s-1.55 1.164-3.41 1.32v.31c0 .31 2.093 4.417 3.41 4.96l2.016-3.644v-3.022l-2.015.077z" fill="#BB3331"/>
                <path d="M168.785 210.986s-2.092.853-3.41 1.008c0 0 .155.542.31.697 0 0 1.55 0 3.41-1.084l-.31-.62z" fill="#A52828"/>
                <path d="M164.833 208.97s2.015 5.968 5.115 7.52l1.24-3.8-6.355-3.72z" fill="#000" opacity=".05"/>
                <path d="M170.336 214.55s-3.023 6.124-3.488 8.062c0 0-.465 0-.465.31v.31s-.155.077-.233.542c-.155.465-.31.698-.31.698s4.65-1.395 10.93-1.395c6.276 0 13.64 3.72 15.732 3.72 2.093 0 5.89-.775 5.89-.775s-.155-6.51-2.402-9.533c-.155 0-7.75-5.504-25.654-1.94z" fill="#000" opacity=".1"/>
                <g>
                    <g transform="translate(164.988 212.69)">
                        <mask id="aW" fill="#fff">
                            <use xlink:href="#aV"/>
                        </mask>
                        <path d="M5.348 1.628S2.325 7.75 1.86 9.688c0 0-.465 0-.465.31v.31s-.465.155-.62.62c-.155.465 0 .93 0 .93s4.65-1.627 10.928-1.627c6.278 0 13.64 3.72 15.734 3.72 2.092 0 6.045-.542 6.045-.542s-.232-6.743-2.557-9.765c-.078-.078-7.673-5.58-25.577-2.015z" fill="#CA3836" mask="url(#aW)"/>
                    </g>
                    <g transform="translate(164.988 212.69)">
                        <mask id="aY" fill="#fff">
                            <use xlink:href="#aX"/>
                        </mask>
                        <path d="M21.314 7.363l3.1.31-.077 1.008-1.55-.154v.155l-.698-.077v-.155l-.854-.077.078-1.007zm.077.853h.31l.08-.543h.154l-.078.543h.155l.08-.698-.7-.078v.776zm.93-.62l-.076.852h.31v-.155h.31l.078-.697h-.62zm.31.232h.157v.388h-.156v-.388zm.544-.155l-.077.698h.31l.077-.542h.155l-.078.543h.155l.077-.542h.155l-.078.543h.155l.077-.697h-.93z" fill="#FFF" mask="url(#aY)"/>
                    </g>
                    <g transform="translate(164.988 212.69)">
                        <mask id="ba" fill="#fff">
                            <use xlink:href="#aZ"/>
                        </mask>
                        <g mask="url(#ba)" fill="#000" opacity=".1">
                            <path d="M29.994 5.27s1.008 4.108.233 5.116c-.775 1.007.077.852.62 1.317.543.465-3.798.388-4.96 0-1.085-.387 1.705 1.163 3.642.93 1.937-.232-2.403 1.163-4.65.62-2.25-.465 4.572 2.016 7.362 1.318 2.79-.697 2.015-1.394 2.015-1.394L32.94 4.728l-2.946.542zM3.41 9.61s8.526-3.1 19.3 1.396c0 0-7.286-3.643-13.797-3.488 0 0 1.938.31 3.333.62-.078 0-5.116-.232-8.836 1.473z"/>
                        </g>
                    </g>
                </g>
                <path fill="#966945" d="M179.946 215.17l-2.325 2.482 3.024 1.472 3.72-.465z"/>
                <g>
                    <path d="M195.447 190.68l-3.022 1.24.852 3.255 3.41 1.628s.078-3.333-1.24-6.123z" fill="#966945"/>
                    <path fill="#875D3D" d="M192.657 192.695l-.155-.775 2.945-1.24-1.317 3.1z"/>
                    <path d="M175.528 186.96l2.326 2.247-1.938 2.713-3.72.31s1.085-3.1 3.332-5.27z" fill="#966945"/>
                    <path fill="#875D3D" d="M177.39 189.827l.464-.62-2.326-2.247.155 3.41z"/>
                    <g>
                        <g transform="translate(161.888 186.34)">
                            <mask id="bc" fill="#fff">
                                <use xlink:href="#bb"/>
                            </mask>
                            <path d="M38.83 15.036C36.892 8.293 31.39 2.248 23.95.853 16.51-.543 9.222 3.178 4.96 8.758.698 14.338.078 17.594.078 17.594s2.325 11.625 18.058 14.57c15.734 2.946 22.09-7.13 22.09-7.13s.542-3.255-1.396-9.998z" fill="#966945" mask="url(#bc)"/>
                        </g>
                        <g transform="translate(161.888 186.34)">
                            <mask id="be" fill="#fff">
                                <use xlink:href="#bd"/>
                            </mask>
                            <path d="M-3.255 15.346L0 17.516s8.06 14.57 28.832 14.57c17.67 0-31.622 3.256-31.622 3.256l-.465-19.996z" fill="#000" opacity=".05" mask="url(#be)"/>
                        </g>
                    </g>
                    <g transform="translate(176.613 197.19)">
                        <ellipse fill="#875D3D" transform="rotate(-79.46 6.435 4.634)" cx="6.435" cy="4.634" rx="2.868" ry="5.968"/>
                        <ellipse fill="#000" transform="rotate(-79.46 6.543 4.108)" cx="6.543" cy="4.108" rx="2.868" ry="5.968"/>
                    </g>
                    <g>
                        <path d="M177.7 197.423c-.156.697-.854 1.162-1.552 1.007-.697-.155-1.162-.852-1.007-1.55.156-.697.853-1.162 1.55-1.007.7.155 1.164.852 1.01 1.55z" fill="#B48363"/>
                        <g transform="translate(175.063 195.64)">
                            <ellipse fill="#000" cx="1.705" cy="1.395" rx="1.008" ry="1.008"/>
                            <path d="M2.093 1.163c-.078.387-.698.31-.62-.078.077-.387.697-.31.62.078z" fill="#FFF"/>
                        </g>
                        <g>
                            <path d="M189.712 199.67c-.155.698.31 1.395 1.007 1.55.697.155 1.395-.31 1.55-1.007.155-.698-.31-1.395-1.008-1.55-.775-.155-1.395.31-1.55 1.007z" fill="#B48363"/>
                            <g transform="translate(189.79 197.965)">
                                <ellipse fill="#000" cx="1.008" cy="1.628" rx="1.008" ry="1.008"/>
                                <path d="M1.24 1.473c-.077.387-.697.31-.62-.078.078-.465.698-.387.62.078z" fill="#FFF"/>
                            </g>
                        </g>
                    </g>
                </g>
                <g>
                    <g fill="#000" opacity=".1">
                        <path d="M196.687 218.117s-2.325 2.557-12.323 2.325l-.62-.853-.155.62s-1.396-1.163-2.946-1.163l2.17-.31 11.083-.31 2.79-.31zM169.56 215.714l-.077.387s4.263 3.102 7.363 3.102l.62-.698.31.543s1.628-.698 2.713.077l-2.636-1.627-8.293-1.783z"/>
                    </g>
                    <g transform="translate(179.714 218.892)">
                        <path d="M2.17 0s-.465 1.783-.465 2.015L.543 1.783.93.31 1.55 0h.62z" fill="#AA3030"/>
                        <circle fill="#7C2323" cx="1.413" cy="1.025" r=".25"/>
                    </g>
                    <path d="M180.644 219.124s.62-1.007 2.015-1.007l.93.852-.156.852s-1.163-1.085-2.79-.698zM178.086 217.187l.233-.078s1.78.542 2.324 2.092c0 0-2.17-1.163-2.868-.62l-.465-.775.776-.62z" fill="#BB3331"/>
                    <path d="M169.406 214.63s2.867 2.324 8.215 3.332M196.842 217.187s-5.348 2.712-13.408 1.782"/>
                </g>
            </g>
        </g>
    </g>
</svg>
