<?xml version="1.0" encoding="utf-8"?>
<!-- Generator: Adobe Illustrator 21.1.0, SVG Export Plug-In . SVG Version: 6.00 Build 0)  -->
<svg version="1.1" id="Capa_1" xmlns="http://www.w3.org/2000/svg" xmlns:xlink="http://www.w3.org/1999/xlink" x="0px" y="0px"
	 viewBox="0 0 30 75" style="enable-background:new 0 0 30 75;" xml:space="preserve">
<style type="text/css">
	.st0{fill:#FFFFFF;}
</style>
<circle class="st0" cx="15" cy="12.5" r="3"/>
<path class="st0" d="M15,0C6.7,0,0,6.7,0,15v25c0,8.3,6.7,15,15,15s15-6.7,15-15V15C30,6.7,23.3,0,15,0z M28,40c0,7.2-5.8,13-13,13
	S2,47.2,2,40V15C2,7.8,7.8,2,15,2s13,5.8,13,13V40z"/>
<path class="st0" d="M28.3,59.3L15,72.6L1.7,59.3c-0.4-0.4-1-0.4-1.4,0s-0.4,1,0,1.4l14,14c0.2,0.2,0.5,0.3,0.7,0.3s0.5-0.1,0.7-0.3
	l14-14c0.4-0.4,0.4-1,0-1.4S28.7,58.9,28.3,59.3z"/>
</svg>
